<?xml version="1.0" encoding="utf-8" ?>
<svg baseProfile="full" height="200mm" version="1.1" viewBox="0,0,200,200" width="200mm" xmlns="http://www.w3.org/2000/svg" xmlns:ev="http://www.w3.org/2001/xml-events" xmlns:xlink="http://www.w3.org/1999/xlink"><defs /><rect fill="#1a1a1a" height="200" width="200" x="0" y="0" /><rect fill="#1a1a1a" height="200" width="180" x="10" y="0" /><text alignment-baseline="middle" fill="#e1ed5e" style="dominant-baseline: central; font-size:9.0px; font-family:Arial;" text-anchor="middle" x="100.0" y="100.0">2026</text><line stroke="#e1ed5e" stroke-width="0.3" x1="100.0" x2="100.0" y1="15.0" y2="10.0" /><path d="M 100.0 14.0 a86.0,86.0 0 0,1 42.46469731375804,11.215312516191453" fill="none" id="id61" stroke="none" /><text fill="#e1ed5e" style="font-size:6.75px; font-family:Arial;" text-anchor="middle"><textPath startOffset="22.20632615414155" xlink:href="#id61">January</textPath></text><path d="M 101.80526077348638 79.07773832637324 l 0.5417614626495368 -6.278802072650212 a27.30213146085741,27.30213146085741 0 0,0 0.4678738614115003,0.04443026077380114 l -0.6497604511512812 6.268546267361232" fill="#ff3104" stroke="none" /><path d="M 102.52436894288641 79.15227682838746 l 1.549185258207933 -12.794082852141718 a33.887533937558246,33.887533937558246 0 0,0 0.5784848478002451,0.07510393587077076 l -1.7691848345160244 12.76552059310681" fill="#ff8e0d" stroke="none" /><path d="M 102.88285421437855 79.19881850522331 l 0.5377326440114338 -3.8799999902732365 a24.91708518173346,24.91708518173346 0 0,0 0.4243391703947319,0.0625365632242066 l -0.6044407948348215 3.870168942888061" fill="#ff0d01" stroke="none" /><path d="M 103.2404852339499 79.25152402106235 l 5.261385960185581 -33.68808444708313 a55.09646925908667,55.09646925908667 0 0,0 0.9357762585515953,0.1544111007013971 l -5.840491424876051 33.59252708344211" fill="#6cff28" stroke="none" /><path d="M 103.59715602781102 79.31037775812273 l 1.3447094502287245 -7.73431297814595 a28.850340167753963,28.850340167753963 0 0,0 0.48853912959496487,0.08927740326994975 l -1.4776437009265904 7.710020093525262" fill="#ff4706" stroke="none" /><path d="M 103.95276090670814 79.375362276772 l 6.3671264244962975 -33.222266396221684 a54.82690177073626,54.82690177073626 0 0,0 0.9253569358283464,0.18561789602108808 l -6.938049769791769 33.10774454412339" fill="#6fff28" stroke="none" /><path d="M 104.307194497241 79.44645832069477 l 0.9174831869751644 -4.378146595338362 a25.473247479030753,25.473247479030753 0 0,0 0.42838393745988157,0.09362813643069372 l -0.9927098485885738 4.361704960811798" fill="#ff1602" stroke="none" /><path d="M 105.71112130821622 79.79150937346287 l 9.166610851753186 -32.43555152790577 a54.70596026561044,54.70596026561044 0 0,0 0.9039763505238251,0.26389548538158786 l -9.723577420000439 32.272957713605486" fill="#70ff27" stroke="none" /><path d="M 106.0581310904928 79.89281104454417 l 3.9441231544279023 -13.090708726017244 a34.67196995340168,34.67196995340168 0 0,0 0.5699652945166065,0.17709099145519824 l -4.168873821655227 13.020877599679524" fill="#ff990e" stroke="none" /><path d="M 108.43124777332544 80.76684994638697 l 5.879531695509896 -13.412239609714868 a35.64435264212488,35.64435264212488 0 0,0 0.5598164227166025,0.2511733106158974 l -6.109530236693279 13.30904596858244" fill="#ffa60f" stroke="none" /><path d="M 109.41281617654863 81.2277094730956 l 10.60446462036513 -21.148834419155286 a44.658568578285184,44.658568578285184 0 0,0 0.6842107656838855,0.35047932907360446 l -10.966935873637771 20.96316256476918" fill="#e4ff1a" stroke="none" /><path d="M 109.73455568895987 81.39251694778311 l 3.2888662256692984 -6.286627198050263 a28.094950498602053,28.094950498602053 0 0,0 0.426581625429579,0.2278651308472419 l -3.396592897627188 6.229083340701267" fill="#ff3c05" stroke="none" /><path d="M 110.05341064243156 81.56283822128135 l 3.9173211073481182 -7.184057785378407 a29.1826701584343,29.1826701584343 0 0,0 0.4389572628383701,0.24427924152060831 l -4.040402459258524 7.115563146297618" fill="#ff4c07" stroke="none" /><line stroke="#e1ed5e" stroke-width="0.3" x1="143.23703022742887" x2="145.7803849466894" y1="26.81831364943548" y2="22.513508569990506" /><path d="M 143.74570117128098 25.957352633546492 a86.0,86.0 0 0,1 28.547481713284135,27.462654790039103" fill="none" id="id62" stroke="none" /><text fill="#e1ed5e" style="font-size:6.75px; font-family:Arial;" text-anchor="middle"><textPath startOffset="19.985693538727396" xlink:href="#id62">February</textPath></text><path d="M 110.68208982089419 81.91981866633111 l 19.478752958073144 -32.96914663148009 a59.293425629077355,59.293425629077355 0 0,0 0.8742616094602709,0.5267328375198981 l -20.043376633751052 32.628967184501576" fill="#40ff2d" stroke="none" /><line stroke="#e1ed5e" stroke-width="0.3" x1="172.23445277983987" x2="176.4835382374775" y1="55.19839476539836" y2="52.563006222186495" /><path d="M 173.08426987136738 54.67131705675599 a86.0,86.0 0 0,1 12.851231095245387,41.99856678651699" fill="none" id="id63" stroke="none" /><text fill="#e1ed5e" style="font-size:6.75px; font-family:Arial;" text-anchor="middle"><textPath startOffset="22.20632615414155" xlink:href="#id63">March</textPath></text><path d="M 119.196687751892 91.48605970444005 l 7.179500927653346 -3.184186930577819 a28.853934044734387,28.853934044734387 0 0,0 0.1974561133245184,0.4557559335561972 l -7.233247750820546 3.060131852435019" fill="#ff4706" stroke="none" /><path d="M 119.34039704204932 91.81776055985345 l 5.023726981995091 -2.125361592072727 a26.45481390027959,26.45481390027959 0 0,0 0.17381859979524544,0.4209155265718498 l -5.059567268676534 2.038571495047574" fill="#ff2403" stroke="none" /><path d="M 119.47837535516314 92.15188598940014 l 8.577655939534516 -3.4560593750608555 a30.24773095526561,30.24773095526561 0 0,0 0.19042595874900325,0.48461329426398575 l -8.63587544816522 3.3078970759010855" fill="#ff5b08" stroke="none" /><path d="M 119.7369772167798 92.82701384747503 l 7.481804203435103 -2.719103201959268 a28.960585177073625,28.960585177073625 0 0,0 0.16624330100196769,0.4699921984962331 l -7.52750058524688 2.5899133770364204" fill="#ff4906" stroke="none" /><path d="M 119.85752413597 93.16781622104841 l 24.713079275340725 -8.502787064329043 a47.13491295433364,47.13491295433364 0 0,0 0.2573626989131404,0.769481712007668 l -24.855779268025632 8.07613224939906" fill="#c6ff1e" stroke="none" /><path d="M 119.97218684219823 93.5106431181261 l 28.03179252968362 -9.108081513608656 a50.474370922646784,50.474370922646784 0 0,0 0.26137195467082597,0.8286205226339842 l -28.184419968122654 8.624210824548253" fill="#9fff22" stroke="none" /><line stroke="#e1ed5e" stroke-width="0.3" x1="184.98032266829074" x2="189.97916517819016" y1="98.17113171792111" y2="98.06355123074" /><path d="M 185.9800911702706 98.14961562048488 a86.0,86.0 0 0,1 -9.607161424134198,41.387399972396054" fill="none" id="id64" stroke="none" /><text fill="#e1ed5e" style="font-size:6.75px; font-family:Arial;" text-anchor="middle"><textPath startOffset="21.466115282336823" xlink:href="#id64">April</textPath></text><path d="M 118.64920377521936 109.65438752849418 l 3.088579801331969 1.5989072066637156 a24.477905899347622,24.477905899347622 0 0,0 -0.19692765740961304,0.3725129136936206 l -3.060599635697463 -1.6518351354434706" fill="#ff0701" stroke="none" /><line stroke="#e1ed5e" stroke-width="0.3" x1="174.80103733775053" x2="179.2010983576182" y1="140.37084112569926" y2="142.7455964860345" /><path d="M 175.68104954172406 140.8457921977663 a86.0,86.0 0 0,1 -30.038265399797805,32.042727171017184" fill="none" id="id65" stroke="none" /><text fill="#e1ed5e" style="font-size:6.75px; font-family:Arial;" text-anchor="middle"><textPath startOffset="22.206326154141568" xlink:href="#id65">May</textPath></text><path d="M 118.30583269289576 110.29060199501025 l 3.1410382909015717 1.7657309254934606 a24.603321696178938,24.603321696178938 0 0,0 -0.2107075378608873,0.36738635285167864 l -3.110178756888305 -1.8195371242034544" fill="#ff0901" stroke="none" /><path d="M 117.94076556474637 110.91462005526583 l 28.911718600792693 17.58901661880531 a54.84170471575023,54.84170471575023 0 0,0 -0.49758495091612615,0.8022653753743262 l -28.604669010208603 -18.084078325544912" fill="#6eff28" stroke="none" /><path d="M 117.35343817320211 111.8261652097733 l 15.865538534866042 10.812179003529916 a40.19944082013048,40.19944082013048 0 0,0 -0.39460363158338513,0.5684559622254071 l -15.67707399612052 -11.083676227942343" fill="#ffe215" stroke="none" /><path d="M 117.14729908036423 112.12312394758627 l 12.273183311947562 8.677128790071068 a36.03075489282386,36.03075489282386 0 0,0 -0.3624011204440962,0.5033434597991309 l -12.122002399127863 -8.88710585532133" fill="#ffab0f" stroke="none" /><path d="M 116.0416608686014 113.55231037782055 l 2.4132012392639415 2.0387198349679045 a24.159100945945948,24.159100945945948 0 0,0 -0.2711082428546594,0.3153601349024846 l -2.3777504868385035 -2.079957069031917" fill="#ff0200" stroke="none" /><path d="M 115.32070863581623 114.36230785411682 l 17.304976211706276 16.222447777622165 a44.71982321994408,44.71982321994408 0 0,0 -0.5313001388984243,0.5570660715250344 l -17.023169521428887 -16.517920965729708" fill="#e3ff1b" stroke="none" /><path d="M 114.81725581225074 114.88116024355365 l 6.462698714010572 6.490571289825822 a30.159366262814537,30.159366262814537 0 0,0 -0.37103208144352384,0.3631329835939576 l -6.350016680191254 -6.600854376342352" fill="#ff5a08" stroke="none" /><path d="M 114.55890576462653 115.13401014063108 l 2.115756358940006 2.1993327458098375 a24.051801025163094,24.051801025163094 0 0,0 -0.3008355356034658,0.28445877612045 l -2.0775849889457327 -2.235426158676209" fill="#ff0000" stroke="none" /><path d="M 114.29624159901734 115.38237550388516 l 2.492762234488118 2.6821458260355433 a24.661662162162163,24.661662162162163 0 0,0 -0.31343851152271784,0.28631864872062407 l -2.4462241734985364 -2.7246572413427503" fill="#ff0a01" stroke="none" /><path d="M 114.0293411484842 115.62618273729858 l 7.828584762202701 8.71964654461537 a32.718317935694316,32.718317935694316 0 0,0 -0.4223119179287377,0.37264116620736853 l -7.677330491367376 -8.853110852595028" fill="#ff7e0b" stroke="none" /><path d="M 113.75828350139079 115.86535959552629 l 2.105671310902512 2.428154103240751 a24.2139981360671,24.2139981360671 0 0,0 -0.3172431827300518,0.2703615227664173 l -2.063562651595413 -2.4640400162301153" fill="#ff0300" stroke="none" /><path d="M 113.48314897796784 116.09983520530334 l 8.260146688159564 9.863200404320144 a33.865175689655175,33.865175689655175 0 0,0 -0.4501324827173762,0.3704283884130007 l -8.089144076897497 -10.003923911590324" fill="#ff8e0d" stroke="none" /><path d="M 112.04921762599082 117.19931262002967 l 3.9076658785898917 5.5778863945088535 a27.81048230661696,27.81048230661696 0 0,0 -0.39443622334966566,0.27129683108140795 l -3.811072770617343 -5.644324014955355" fill="#ff3805" stroke="none" /><path d="M 111.1453310114006 117.79835938074945 l 1.607763336998735 2.5674921311736303 a24.02934296365331,24.02934296365331 0 0,0 -0.3524541640364495,0.21650613444093175 l -1.5633299730299768 -2.59478673244294" fill="#ff0000" stroke="none" /><line stroke="#e1ed5e" stroke-width="0.3" x1="143.8653032363475" x2="146.44561519142675" y1="172.8068346515853" y2="177.08958963109032" /><path d="M 144.38136562736335 173.6633856474863 a86.0,86.0 0 0,1 -40.68145358897372,12.25698825130547" fill="none" id="id66" stroke="none" /><text fill="#e1ed5e" style="font-size:6.75px; font-family:Arial;" text-anchor="middle"><textPath startOffset="21.466115282336833" xlink:href="#id66">June</textPath></text><path d="M 110.5260780823613 118.17145234162733 l 14.773787131440917 25.5043869771582 a50.474370922646784,50.474370922646784 0 0,0 -0.7555562256386091,0.4290245437238147 l -14.33258213888111 -25.754914686676646" fill="#9fff22" stroke="none" /><path d="M 110.21172684928248 118.3499491758327 l 7.337596832056662 13.185285008916129 a36.08946877912395,36.08946877912395 0 0,0 -0.5454273391558357,0.29741047358339534 l -7.109546681032177 -13.309636134259295" fill="#ffac0f" stroke="none" /><path d="M 109.89434966115114 118.52300852407294 l 11.885933786589932 22.251412208526826 a46.22698490214351,46.22698490214351 0 0,0 -0.7050916101393763,0.36887060573742825 l -11.50115127392406 -22.45271223320897" fill="#d1ff1d" stroke="none" /><path d="M 109.57404056367764 118.69057910512821 l 7.1336863286675385 13.926484617474374 a36.64725069897484,36.64725069897484 0 0,0 -0.5639245646449497,0.28276348359490383 l -6.8929078563398285 -14.04721594197858" fill="#ffb410" stroke="none" /><path d="M 109.2508944713604 118.85261126421891 l 27.752683414081186 56.55783379265672 a84.0,84.0 0 0,0 -1.303549327999069,0.6257828940017598 l -26.775021418081884 -57.02717096315804" fill="#4dd2ff" stroke="none" /><path d="M 108.92500713936063 119.00905698771935 l 6.288262252895281 13.393147327787354 a35.79589934762349,35.79589934762349 0 0,0 -0.5600046931420223,0.257070688125795 l -6.05678956398584 -13.499405086247224" fill="#ffa80f" stroke="none" /><path d="M 108.59647513512805 119.15986991738527 l 6.080824443208004 13.552974154049789 a35.85461323392358,35.85461323392358 0 0,0 -0.5652724361854568,0.24779882419809812 l -5.846631332364794 -13.655637531542341" fill="#ffa90f" stroke="none" /><path d="M 108.2653958097858 119.30500536409082 l 5.939068191374512 13.871536939155655 a36.08946877912395,36.08946877912395 0 0,0 -0.5731841833053883,0.23959103510826602 l -5.6994125485716625 -13.971713017283895" fill="#ffac0f" stroke="none" /><line stroke="#e1ed5e" stroke-width="0.3" x1="102.19456741930631" x2="102.32365962044197" y1="184.97166512339345" y2="189.96999836594603" /><path d="M 102.22038585953345 185.97133177190398 a86.0,86.0 0 0,1 -42.740103519485714,-10.115201625700543" fill="none" id="id67" stroke="none" /><text fill="#e1ed5e" style="font-size:6.75px; font-family:Arial;" text-anchor="middle"><textPath startOffset="22.20632615414155" xlink:href="#id67">July</textPath></text><line stroke="#e1ed5e" stroke-width="0.3" x1="58.666819895761336" x2="56.23545636021788" y1="174.27360380694188" y2="178.64263932499728" /><path d="M 58.180547188652646 175.14741091055294 a86.0,86.0 0 0,1 -31.652253787137756,-30.449443065178592" fill="none" id="id68" stroke="none" /><text fill="#e1ed5e" style="font-size:6.75px; font-family:Arial;" text-anchor="middle"><textPath startOffset="22.20632615414155" xlink:href="#id68">August</textPath></text><line stroke="#e1ed5e" stroke-width="0.3" x1="26.63291911575756" x2="22.317208475507996" y1="142.92168965132927" y2="145.44649492493687" /><path d="M 25.769776987707644 143.4266507060508 a86.0,86.0 0 0,1 -11.730757126820373,-40.83630448921669" fill="none" id="id69" stroke="none" /><text fill="#e1ed5e" style="font-size:6.75px; font-family:Arial;" text-anchor="middle"><textPath startOffset="21.46611528233685" xlink:href="#id69">September</textPath></text><line stroke="#e1ed5e" stroke-width="0.3" x1="15.007084014347285" x2="10.007500721073583" y1="101.09737516637583" y2="101.16192664675087" /><path d="M 14.007167355692545 101.11028546245083 a86.0,86.0 0 0,1 10.666146001902534,-42.60595125391555" fill="none" id="id70" stroke="none" /><text fill="#e1ed5e" style="font-size:6.75px; font-family:Arial;" text-anchor="middle"><textPath startOffset="22.20632615414155" xlink:href="#id70">October</textPath></text><line stroke="#e1ed5e" stroke-width="0.3" x1="26.266209847984243" x2="21.928928074336255" y1="57.711370442889674" y2="55.22380399835377" /><path d="M 25.398753493254645 57.213857153982495 a86.0,86.0 0 0,1 29.58750427330803,-30.492523968695096" fill="none" id="id71" stroke="none" /><text fill="#e1ed5e" style="font-size:6.75px; font-family:Arial;" text-anchor="middle"><textPath startOffset="21.46611528233685" xlink:href="#id71">November</textPath></text><line stroke="#e1ed5e" stroke-width="0.3" x1="56.762969772571076" x2="54.21961505331055" y1="26.818313649435495" y2="22.513508569990535" /><path d="M 56.25429882871897 25.957352633546506 a86.0,86.0 0 0,1 42.265352541879196,-11.944610805530505" fill="none" id="id72" stroke="none" /><text fill="#e1ed5e" style="font-size:6.75px; font-family:Arial;" text-anchor="middle"><textPath startOffset="22.20632615414155" xlink:href="#id72">December</textPath></text></svg>