<?xml version="1.0" encoding="utf-8" ?>
<svg baseProfile="full" height="200mm" version="1.1" viewBox="0,0,200,200" width="200mm" xmlns="http://www.w3.org/2000/svg" xmlns:ev="http://www.w3.org/2001/xml-events" xmlns:xlink="http://www.w3.org/1999/xlink"><defs /><rect fill="#1a1a1a" height="200" width="200" x="0" y="0" /><rect fill="#1a1a1a" height="200" width="180" x="10" y="0" /><text alignment-baseline="middle" fill="#e1ed5e" style="dominant-baseline: central; font-size:9.0px; font-family:Arial;" text-anchor="middle" x="100.0" y="100.0">2026</text><line stroke="#e1ed5e" stroke-width="0.3" x1="100.0" x2="100.0" y1="15.0" y2="10.0" /><path d="M 100.0 14.0 a86.0,86.0 0 0,1 42.46469731375804,11.215312516191453" fill="none" id="id61" stroke="none" /><text fill="#e1ed5e" style="font-size:6.75px; font-family:Arial;" text-anchor="middle"><textPath startOffset="22.20632615414155" xlink:href="#id61">January</textPath></text><path d="M 101.80526077348638 79.07773832637324 l 0.5263105925060687 -6.099732570351902 a27.122396611588954,27.122396611588954 0 0,0 0.46479376350493173,0.04413776836402038 l -0.6312294831012446 6.089769257472703" fill="#ff2f04" stroke="none" /><path d="M 102.52436894288641 79.15227682838746 l 1.505002971532017 -12.429199547621609 a33.519985436849254,33.519985436849254 0 0,0 0.5722105276067595,0.07428934903546106 l -1.7187282276466225 12.40145187542201" fill="#ff8a0c" stroke="none" /><path d="M 102.88285421437855 79.19881850522331 l 0.5223966745353269 -3.7693435849372414 a24.805371118153012,24.805371118153012 0 0,0 0.42243667446812555,0.062256184779088425 l -0.5872023294321083 3.7597929159971843" fill="#ff0d01" stroke="none" /><path d="M 103.2404852339499 79.25152402106235 l 5.111332852221936 -32.72731064890919 a54.124048451788134,54.124048451788134 0 0,0 0.9192603489655837,0.15168583410593112 l -5.673922407326394 32.63447855186363" fill="#76ff27" stroke="none" /><path d="M 103.59715602781102 79.31037775812273 l 1.3063587506522598 -7.513732752875149 a28.626450882752376,28.626450882752376 0 0,0 0.4847478856864245,0.0885845776786852 l -1.4355017574415851 7.490132693845726" fill="#ff4506" stroke="none" /><path d="M 103.95276090670814 79.375362276772 l 6.185537938872365 -32.2747775854648 a53.862168945224084,53.862168945224084 0 0,0 0.9090743777687652,0.18235176805268938 l -6.7401787261082555 32.1635218613349" fill="#79ff26" stroke="none" /><path d="M 104.307194497241 79.44645832069477 l 0.8913168489129487 -4.253283202171176 a25.34567183793572,25.34567183793572 0 0,0 0.4262384962278106,0.09315922607525075 l -0.9643980692942873 4.2373104780000554" fill="#ff1502" stroke="none" /><path d="M 105.71112130821622 79.79150937346287 l 8.905181932033651 -31.51049958301756 a53.74467665459484,53.74467665459484 0 0,0 0.8880918354493221,0.2592583598492572 l -9.4462639852064 31.3525428942496" fill="#7aff26" stroke="none" /><path d="M 106.0581310904928 79.89281104454417 l 3.831637976189352 -12.717365742885018 a34.28204957899502,34.28204957899502 0 0,0 0.5635554746726402,0.17509942922827373 l -4.049978823572711 12.649526178774224" fill="#ff950d" stroke="none" /><path d="M 108.43124777332544 80.76684994638697 l 5.711849261459592 -13.029726664756954 a35.226700212765955,35.226700212765955 0 0,0 0.553256935122871,0.248230259737064 l -5.935288315049243 12.92947607450336" fill="#ffa10e" stroke="none" /><path d="M 109.41281617654863 81.2277094730956 l 10.302028553781607 -20.545676171800473 a43.98383348528746,43.98383348528746 0 0,0 0.673873197120655,0.3451840249421764 l -10.654162238491017 20.365299621545795" fill="#ebff1a" stroke="none" /><path d="M 109.73455568895987 81.39251694778311 l 3.195068773330155 -6.107334525584364 a27.89260469443187,27.89260469443187 0 0,0 0.42350929390701353,0.22622399774946608 l -3.29972311376548 6.051431801333145" fill="#ff3b05" stroke="none" /><path d="M 110.05341064243156 81.56283822128135 l 3.805600315241766 -6.979170668819402 a28.949302924400182,28.949302924400182 0 0,0 0.43544702057021456,0.24232579549883843 l -3.9251714248840157 6.912629475760384" fill="#ff4a06" stroke="none" /><line stroke="#e1ed5e" stroke-width="0.3" x1="143.23703022742887" x2="145.7803849466894" y1="26.81831364943548" y2="22.513508569990506" /><path d="M 143.74570117128098 25.957352633546492 a86.0,86.0 0 0,1 28.547481713284135,27.462654790039103" fill="none" id="id62" stroke="none" /><text fill="#e1ed5e" style="font-size:6.75px; font-family:Arial;" text-anchor="middle"><textPath startOffset="19.985693538727396" xlink:href="#id62">February</textPath></text><path d="M 110.68208982089419 81.91981866633111 l 18.923224919884547 -32.02887671849537 a58.20130891806247,58.20130891806247 0 0,0 0.8581587160389453,0.5170310244100537 l -19.47174570214113 31.698399084626704" fill="#4aff2c" stroke="none" /><line stroke="#e1ed5e" stroke-width="0.3" x1="172.23445277983987" x2="176.4835382374775" y1="55.19839476539836" y2="52.563006222186495" /><path d="M 173.08426987136738 54.67131705675599 a86.0,86.0 0 0,1 12.851231095245387,41.99856678651699" fill="none" id="id63" stroke="none" /><text fill="#e1ed5e" style="font-size:6.75px; font-family:Arial;" text-anchor="middle"><textPath startOffset="22.20632615414155" xlink:href="#id63">March</textPath></text><path d="M 119.196687751892 91.48605970444005 l 6.974743771273919 -3.093374899511092 a28.629942263467633,28.629942263467633 0 0,0 0.19592327047276037,0.4522179209156375 l -7.02695775158936 2.9728578340088516" fill="#ff4506" stroke="none" /><path d="M 119.34039704204932 91.81776055985345 l 4.880451834930497 -2.064746933720268 a26.299244287007696,26.299244287007696 0 0,0 0.17279644585186343,0.41844029972142666 l -4.915269967668557 1.9804320635455386" fill="#ff2303" stroke="none" /><path d="M 119.47837535516314 92.15188598940014 l 8.333023832612527 -3.3574936255684005 a29.983988515165233,29.983988515165233 0 0,0 0.18876555628466,0.4803877511009864 l -8.389582938778888 3.21355686957163" fill="#ff5908" stroke="none" /><path d="M 119.7369772167798 92.82701384747503 l 7.268425450688878 -2.6415552156652735 a28.73355173834314,28.73355173834314 0 0,0 0.16494005425948605,0.4663077444581437 l -7.312818585758174 2.5160498447805155" fill="#ff4706" stroke="none" /><path d="M 119.85752413597 93.16781622104841 l 24.008269861874684 -8.260290194680906 a46.38955328202806,46.38955328202806 0 0,0 0.2532929390493335,0.7573136480236983 l -24.146900094695788 7.845803443734894" fill="#ceff1d" stroke="none" /><path d="M 119.97218684219823 93.5106431181261 l 27.23233443580853 -8.848321832595824 a49.633770937075596,49.633770937075596 0 0,0 0.25701906711009304,0.8148206795326689 l -27.38060898668683 8.378250986636735" fill="#a8ff21" stroke="none" /><line stroke="#e1ed5e" stroke-width="0.3" x1="184.98032266829074" x2="189.97916517819016" y1="98.17113171792111" y2="98.06355123074" /><path d="M 185.9800911702706 98.14961562048488 a86.0,86.0 0 0,1 -9.607161424134198,41.387399972396054" fill="none" id="id64" stroke="none" /><text fill="#e1ed5e" style="font-size:6.75px; font-family:Arial;" text-anchor="middle"><textPath startOffset="21.466115282336823" xlink:href="#id64">April</textPath></text><path d="M 118.64920377521936 109.65438752849418 l 3.000494456160439 1.553306865323828 a24.37871709370756,24.37871709370756 0 0,0 -0.19612967169889603,0.3710034254577109 l -2.97331227623665 -1.6047253058676734" fill="#ff0701" stroke="none" /><line stroke="#e1ed5e" stroke-width="0.3" x1="174.80103733775053" x2="179.2010983576182" y1="140.37084112569926" y2="142.7455964860345" /><path d="M 175.68104954172406 140.8457921977663 a86.0,86.0 0 0,1 -30.038265399797805,32.042727171017184" fill="none" id="id65" stroke="none" /><text fill="#e1ed5e" style="font-size:6.75px; font-family:Arial;" text-anchor="middle"><textPath startOffset="22.206326154141568" xlink:href="#id65">May</textPath></text><path d="M 118.30583269289576 110.29060199501025 l 3.051456845755897 1.7153728230461605 a24.500556070620192,24.500556070620192 0 0,0 -0.2098274334503686,0.36585181662771776 l -3.0214774161531484 -1.7676444855321933" fill="#ff0801" stroke="none" /><path d="M 117.94076556474637 110.91462005526583 l 28.08716528623862 17.087383279292077 a53.876549714803076,53.876549714803076 0 0,0 -0.4888279911122341,0.7881463678937491 l -27.788872655458423 -17.568325978551098" fill="#78ff26" stroke="none" /><path d="M 117.35343817320211 111.8261652097733 l 15.413058259765744 10.503818986679585 a39.651878678134906,39.651878678134906 0 0,0 -0.38922868095370305,0.5607129449605892 l -15.229968671649905 -10.767573193827193" fill="#ffdc14" stroke="none" /><path d="M 117.14729908036423 112.12312394758627 l 11.923155901964453 8.429659748072666 a35.602082390221824,35.602082390221824 0 0,0 -0.3580894873487404,0.49735497853576904 l -11.776286622240109 -8.633648332059566" fill="#ffa70f" stroke="none" /><path d="M 116.0416608686014 113.55231037782055 l 2.3443774827797275 1.9805761728570042 a24.06900435943866,24.06900435943866 0 0,0 -0.27009719830834766,0.31418406168110263 l -2.309937774900601 -2.020637333699635" fill="#ff0200" stroke="none" /><path d="M 115.32070863581623 114.36230785411682 l 16.811443617166898 15.759788560786408 a44.04334116342237,44.04334116342237 0 0,0 -0.523263098840717,0.548639267156191 l -16.537673966947217 -16.046834944525106" fill="#ebff1a" stroke="none" /><path d="M 114.81725581225074 114.88116024355365 l 6.278384536109864 6.3054621946429235 a29.89814395654142,29.89814395654142 0 0,0 -0.36781842452608743,0.35998774391512495 l -6.168916159207982 -6.41260004148062" fill="#ff5708" stroke="none" /><path d="M 114.55890576462653 115.13401014063108 l 2.055415638879699 2.1366084529234555 a23.96476459936623,23.96476459936623 0 0,0 -0.29974689988158293,0.2834294030961941 l -2.018332904607308 -2.171672492765571" fill="#ff0000" stroke="none" /><path d="M 114.29624159901734 115.38237550388516 l 2.4216694229114992 2.6056518527262456 a24.557232684472613,24.557232684472613 0 0,0 -0.3121112603491807,0.28510623624241943 l -2.376458613095455 -2.646950855555248" fill="#ff0901" stroke="none" /><path d="M 114.0293411484842 115.62618273729858 l 7.605315934670437 8.47096490934567 a32.38411511543685,32.38411511543685 0 0,0 -0.4179981926853581,0.3688348052283199 l -7.458375389078491 -8.600622856346279" fill="#ff7a0b" stroke="none" /><path d="M 113.75828350139079 115.86535959552629 l 2.0456182133077365 2.358903895678883 a24.12233589859665,24.12233589859665 0 0,0 -0.3160422567289892,0.2693380675747785 l -2.0047104800017 -2.393766353476608" fill="#ff0300" stroke="none" /><path d="M 113.48314897796784 116.09983520530334 l 8.024569847347406 9.581904964993672 a33.498264839293796,33.498264839293796 0 0,0 -0.44525554088418906,0.3664149973047972 l -7.858444177918525 -9.718615081155649" fill="#ff8a0c" stroke="none" /><path d="M 112.04921762599082 117.19931262002967 l 3.7962204506355404 5.418806791587143 a27.616249447713898,27.616249447713898 0 0,0 -0.3916814176446993,0.2694020505978726 l -3.7023821483679575 -5.48334963155011" fill="#ff3705" stroke="none" /><path d="M 111.1453310114006 117.79835938074945 l 1.5619104215478872 2.4942680459477624 a23.9429470348574,23.9429470348574 0 0,0 -0.35118693817405394,0.21572770081487175 l -1.5187442834415246 -2.520784213591012" fill="#ff0000" stroke="none" /><line stroke="#e1ed5e" stroke-width="0.3" x1="143.8653032363475" x2="146.44561519142675" y1="172.8068346515853" y2="177.08958963109032" /><path d="M 144.38136562736335 173.6633856474863 a86.0,86.0 0 0,1 -40.68145358897372,12.25698825130547" fill="none" id="id66" stroke="none" /><text fill="#e1ed5e" style="font-size:6.75px; font-family:Arial;" text-anchor="middle"><textPath startOffset="21.466115282336833" xlink:href="#id66">June</textPath></text><path d="M 110.5260780823613 118.17145234162733 l 14.352443270290722 24.777009711625848 a49.633770937075596,49.633770937075596 0 0,0 -0.7429731950676413,0.42187957056869385 l -13.923821308301882 -25.02039244798917" fill="#a8ff21" stroke="none" /><path d="M 110.21172684928248 118.3499491758327 l 7.128330829150568 12.809244739309202 a35.65912177455863,35.65912177455863 0 0,0 -0.5389234190496599,0.2938640177678139 l -6.906784598232259 -12.930049408836787" fill="#ffa70f" stroke="none" /><path d="M 109.89434966115114 118.52300852407294 l 11.546950613862382 21.616808782027423 a45.50751905839746,45.50751905839746 0 0,0 -0.6941177313263616,0.3631295910000018 l -11.173141980009525 -21.812367791972143" fill="#d9ff1c" stroke="none" /><path d="M 109.57404056367764 118.69057910512821 l 6.930235790548004 13.529305563196022 a36.200995925758264,36.200995925758264 0 0,0 -0.5570576367333853,0.27932026338496047 l -6.696324246131858 -13.646593667490285" fill="#ffaf10" stroke="none" /><path d="M 109.2508944713604 118.85261126421891 l 26.96118542626448 54.94482178317852 a82.20325939339068,82.20325939339068 0 0,0 -1.2756667088284237,0.6123975423758734 l -26.01140604943582 -55.40077360205395" fill="#4be3ff" stroke="none" /><path d="M 108.92500713936063 119.00905698771935 l 6.108922949168523 13.011178888832797 a35.3739248528746,35.3739248528746 0 0,0 -0.5534031633089326,0.25404024956401505 l -5.884051790092171 -13.114406208730887" fill="#ffa30f" stroke="none" /><path d="M 108.59647513512805 119.15986991738527 l 5.907401201957616 13.166447503209978 a35.430964237211406,35.430964237211406 0 0,0 -0.5585933207562479,0.24487089627504205 l -5.679887206543614 -13.266182952779474" fill="#ffa40f" stroke="none" /><path d="M 108.2653958097858 119.30500536409082 l 5.769687794789366 13.475924975748326 a35.65912177455863,35.65912177455863 0 0,0 -0.5663492781462306,0.2367340441974109 l -5.536867057145674 -13.57324406296571" fill="#ffa70f" stroke="none" /><path d="M 107.93186726928326 119.44442032107085 l 5.601499746528697 13.731686600665698 a35.83023992756904,35.83023992756904 0 0,0 -0.573077258668269,0.22803926819082224 l -5.364301411818562 -13.826072713262588" fill="#ffaa0f" stroke="none" /><path d="M 107.59598834532513 119.57807347666477 l 5.312721590551076 13.693129706404296 a35.68764146672703,35.68764146672703 0 0,0 -0.5746216347967082,0.21727273386134346 l -5.076229734994093 -13.78255069037227" fill="#ffa80f" stroke="none" /><path d="M 107.2578585660854 119.70592522655815 l 5.26350811356669 14.291033143026779 a36.229515617926666,36.229515617926666 0 0,0 -0.587056928220951,0.21049772797497146 l -5.016731624716004 -14.37951841204171" fill="#ffaf10" stroke="none" /><path d="M 106.91757812671514 119.82793768551818 l 14.110732023077599 40.44576152600496 a63.83657763693979,63.83657763693979 0 0,0 -1.0406282224203354,0.3530375930190601 l -13.412434067720035 -40.68266210592214" fill="#33ff54" stroke="none" /><path d="M 106.57524785965236 119.94407469862006 l 4.554155375857004 13.81368686685772 a35.54504300588502,35.54504300588502 0 0,0 -0.582733314035751,0.18657280504271487 l -4.315700716730313 -13.890032518560142" fill="#ffa60f" stroke="none" /><path d="M 106.2309692047433 120.05430185196036 l 4.298776400194114 13.835561802801076 a35.48800362154821,35.48800362154821 0 0,0 -0.5849183885987154,0.1762311123260871 l -4.059983037155152 -13.90750828423289" fill="#ffa50f" stroke="none" /><path d="M 105.88484417918355 120.15858648285463 l 4.187856518640356 14.345540041216607 a35.94431869624265,35.94431869624265 0 0,0 -0.5954241980065577,0.16827282588821166 l -3.9403011525291918 -14.415501660443338" fill="#ffab0f" stroke="none" /><path d="M 105.53697534728816 120.25689768951611 l 3.9177421764650937 14.332970162387365 a35.85875961973744,35.85875961973744 0 0,0 -0.596808533143971,0.157622557911671 l -3.670443200509625 -14.39828406960262" fill="#ffaa0f" stroke="none" /><path d="M 105.18746579009965 120.34920634021253 l 3.670443200509625 14.39828406960262 a35.85875961973744,35.85875961973744 0 0,0 -0.5994333227472195,0.14732612659098193 l -3.4220565930191946 -14.459331454507632" fill="#ffaa0f" stroke="none" /><path d="M 104.83641907484287 120.43548508189849 l 14.509257224528598 61.306455245695496 a84.0,84.0 0 0,0 -1.4099194024285517,0.32089306568926235 l -13.451817672707184 -61.54712504496244" fill="#4dd2ff" stroke="none" /><path d="M 104.48393922423573 120.51570834832081 l 4.0556408193856885 18.556082064257577 a39.99411498415573,39.99411498415573 0 0,0 -0.673821874950931,0.14120592534334145 l -3.7356274830053793 -18.62314397032746" fill="#ffe015" stroke="none" /><line stroke="#e1ed5e" stroke-width="0.3" x1="102.19456741930631" x2="102.32365962044197" y1="184.97166512339345" y2="189.96999836594603" /><path d="M 102.22038585953345 185.97133177190398 a86.0,86.0 0 0,1 -42.740103519485714,-10.115201625700543" fill="none" id="id67" stroke="none" /><text fill="#e1ed5e" style="font-size:6.75px; font-family:Arial;" text-anchor="middle"><textPath startOffset="22.20632615414155" xlink:href="#id67">July</textPath></text><line stroke="#e1ed5e" stroke-width="0.3" x1="58.666819895761336" x2="56.23545636021788" y1="174.27360380694188" y2="178.64263932499728" /><path d="M 58.180547188652646 175.14741091055294 a86.0,86.0 0 0,1 -31.652253787137756,-30.449443065178592" fill="none" id="id68" stroke="none" /><text fill="#e1ed5e" style="font-size:6.75px; font-family:Arial;" text-anchor="middle"><textPath startOffset="22.20632615414155" xlink:href="#id68">August</textPath></text><line stroke="#e1ed5e" stroke-width="0.3" x1="26.63291911575756" x2="22.317208475507996" y1="142.92168965132927" y2="145.44649492493687" /><path d="M 25.769776987707644 143.4266507060508 a86.0,86.0 0 0,1 -11.730757126820373,-40.83630448921669" fill="none" id="id69" stroke="none" /><text fill="#e1ed5e" style="font-size:6.75px; font-family:Arial;" text-anchor="middle"><textPath startOffset="21.46611528233685" xlink:href="#id69">September</textPath></text><line stroke="#e1ed5e" stroke-width="0.3" x1="15.007084014347285" x2="10.007500721073583" y1="101.09737516637583" y2="101.16192664675087" /><path d="M 14.007167355692545 101.11028546245083 a86.0,86.0 0 0,1 10.666146001902534,-42.60595125391555" fill="none" id="id70" stroke="none" /><text fill="#e1ed5e" style="font-size:6.75px; font-family:Arial;" text-anchor="middle"><textPath startOffset="22.20632615414155" xlink:href="#id70">October</textPath></text><line stroke="#e1ed5e" stroke-width="0.3" x1="26.266209847984243" x2="21.928928074336255" y1="57.711370442889674" y2="55.22380399835377" /><path d="M 25.398753493254645 57.213857153982495 a86.0,86.0 0 0,1 29.58750427330803,-30.492523968695096" fill="none" id="id71" stroke="none" /><text fill="#e1ed5e" style="font-size:6.75px; font-family:Arial;" text-anchor="middle"><textPath startOffset="21.46611528233685" xlink:href="#id71">November</textPath></text><line stroke="#e1ed5e" stroke-width="0.3" x1="56.762969772571076" x2="54.21961505331055" y1="26.818313649435495" y2="22.513508569990535" /><path d="M 56.25429882871897 25.957352633546506 a86.0,86.0 0 0,1 42.265352541879196,-11.944610805530505" fill="none" id="id72" stroke="none" /><text fill="#e1ed5e" style="font-size:6.75px; font-family:Arial;" text-anchor="middle"><textPath startOffset="22.20632615414155" xlink:href="#id72">December</textPath></text></svg>