<?xml version="1.0" encoding="utf-8" ?>
<svg baseProfile="full" height="200mm" version="1.1" viewBox="0,0,200,200" width="200mm" xmlns="http://www.w3.org/2000/svg" xmlns:ev="http://www.w3.org/2001/xml-events" xmlns:xlink="http://www.w3.org/1999/xlink"><defs /><rect fill="#1a1a1a" height="200" width="200" x="0" y="0" /><rect fill="#1a1a1a" height="200" width="180" x="10" y="0" /><text alignment-baseline="middle" fill="#e1ed5e" style="dominant-baseline: central; font-size:9.0px; font-family:Arial;" text-anchor="middle" x="100.0" y="100.0">2022</text><line stroke="#e1ed5e" stroke-width="0.3" x1="100.0" x2="100.0" y1="15.0" y2="10.0" /><path d="M 100.0 14.0 a86.0,86.0 0 0,1 42.46469731375804,11.215312516191453" fill="none" id="id13" stroke="none" /><text fill="#e1ed5e" style="font-size:6.75px; font-family:Arial;" text-anchor="middle"><textPath startOffset="22.20632615414155" xlink:href="#id13">January</textPath></text><path d="M 101.08401301168833 79.027996857942 l 0.6570654208427922 -12.712004304257059 a33.72897436554561,33.72897436554561 0 0,0 0.5795568573716537,0.034960452337783825 l -0.8757843270540578 12.69881058253897" fill="#ff800b" stroke="none" /><path d="M 102.16513564639614 79.11191278185805 l 1.293784282882477 -12.481748655005974 a33.54862252430031,33.54862252430031 0 0,0 0.5738943934339182,0.06448372193181462 l -1.5084453798261206 12.457628979603559" fill="#ff7d0b" stroke="none" /><path d="M 102.52436894288641 79.15227682838746 l 3.184085910991369 -26.296053837153732 a47.48812659466617,47.48812659466617 0 0,0 0.8106568549972702,0.10524652578616754 l -3.636257494496485 26.237348988203426" fill="#c9ff1d" stroke="none" /><path d="M 102.88285421437855 79.19881850522331 l 1.755652665135377 -12.667879474141806 a33.7889595609643,33.7889595609643 0 0,0 0.5754276218115515,0.08480307349165636 l -1.9734492673755843 12.63578191648918" fill="#ff810b" stroke="none" /><path d="M 103.2404852339499 79.25152402106235 l 2.1348067403101254 -13.66893633920616 a34.83463842909327,34.83463842909327 0 0,0 0.5916427686842829,0.09762612622376672 l -2.369778715133284 13.630163950042768" fill="#ff8f0d" stroke="none" /><path d="M 103.59715602781102 79.31037775812273 l 2.3395100696024196 -13.456068960288334 a34.65793173323861,34.65793173323861 0 0,0 0.5868823627058213,0.10724900052683217 l -2.570787553411142 13.413804478410764" fill="#ff8d0d" stroke="none" /><path d="M 103.95276090670814 79.375362276772 l 2.4986243339685097 -13.037272658481998 a34.27454714609511,34.27454714609511 0 0,0 0.5784786099466086,0.11603736711107486 l -2.7226693533822437 12.992331335293715" fill="#ff870c" stroke="none" /><path d="M 104.307194497241 79.44645832069477 l 2.892125441153526 -13.800960424379443 a35.10074105154247,35.10074105154247 0 0,0 0.5902896233311986,0.1290144483814875 l -3.1292577886382524 13.749132477902085" fill="#ff930d" stroke="none" /><path d="M 104.66035177308747 79.52364482259891 l 3.3484724940278623 -14.712304012203072 a36.08854391221193,36.08854391221193 0 0,0 0.6045283295394752,0.14307232407501963 l -3.6012245105298613 14.652485775987184" fill="#ffa10e" stroke="none" /><path d="M 105.01212808612495 79.60689891045804 l 6.084702388883917 -24.75713884084361 a46.49391156229457,46.49391156229457 0 0,0 0.7755430452636347,0.19770319042393036 l -6.509954322832577 24.64873265425081" fill="#d6ff1c" stroke="none" /><path d="M 105.36241919743992 79.69619591428918 l 6.458715201698142 -24.454725241041817 a46.293251840589704,46.293251840589704 0 0,0 0.7686930776910459,0.2101128556821978 l -6.878706168612899 24.339925844533326" fill="#d8ff1c" stroke="none" /><path d="M 105.71112130821622 79.79150937346287 l 3.899113089837876 -13.796798575165868 a35.337180120618,35.337180120618 0 0,0 0.5839212942820805,0.17046263797711306 l -4.136024601843384 13.72763760827005" fill="#ff960d" stroke="none" /><path d="M 106.0581310904928 79.89281104454417 l 3.9939931058301092 -13.256229168058718 a34.844839929934516,34.844839929934516 0 0,0 0.5728070680650965,0.1779739443297589 l -4.221585546605924 13.185515088846438" fill="#ff8f0d" stroke="none" /><path d="M 106.40334571778207 80.00007090966166 l 3.886744550917205 -12.139687412899523 a33.7467169768139,33.7467169768139 0 0,0 0.5517060776696974,0.18188881967062726 l -4.09513345082932 12.070984868969658" fill="#ff800b" stroke="none" /><path d="M 106.74666289553966 80.11325718540242 l 4.048491515527785 -11.933501169831533 a33.6015369587075,33.6015369587075 0 0,0 0.5461337740542803,0.19053535014978226 l -4.253307293645339 11.862044966509544" fill="#ff7e0b" stroke="none" /><path d="M 107.08798089147638 80.2323363322302 l 4.266902321657196 -11.899960128162347 a33.641815790242205,33.641815790242205 0 0,0 0.543423738531113,0.20014754904259272 l -4.471108385960886 11.824749311313429" fill="#ff7e0b" stroke="none" /><path d="M 107.4271985657038 80.35727306442388 l 9.108152914871615 -24.08835027252854 a46.752806999873044,46.752806999873044 0 0,0 0.750308716308506,0.29110812518240553 l -9.52144479617979 23.927999443455587" fill="#d2ff1c" stroke="none" /><path d="M 107.76421540070413 80.48803036053334 l 4.694559800681648 -11.79772888491138 a33.69745244385851,33.69745244385851 0 0,0 0.5370990898446503,0.21909620450263909 l -4.896942760114686 11.715171794225162" fill="#ff7f0b" stroke="none" /><path d="M 108.09893153111575 80.62456947434976 l 5.547937259068817 -13.272574599596032 a35.3854386214813,35.3854386214813 0 0,0 0.5599598091253387,0.23974556715752626 l -5.775580825984471 13.175109504475715" fill="#ff970d" stroke="none" /><path d="M 108.43124777332544 80.76684994638697 l 7.440716018376673 -16.973573963811546 a39.53284835018914,39.53284835018914 0 0,0 0.620887633039687,0.2785741825048134 l -7.73178576988314 16.8429794507902" fill="#ffcf13" stroke="none" /><path d="M 108.76106565485865 80.91482961587045 l 5.574549730631541 -12.143640467401907 a34.36202112334827,34.36202112334827 0 0,0 0.5354286673972866,0.25139093865762846 l -5.782756609328426 12.045884546104276" fill="#ff890c" stroke="none" /><path d="M 109.08828744355905 81.06846463323043 l 5.515680852714446 -11.489547154341029 a33.744898158903695,33.744898158903695 0 0,0 0.5214851925890965,0.25589051921814393 l -5.712637312313975 11.392901474988053" fill="#ff800b" stroke="none" /><path d="M 109.41281617654863 81.2277094730956 l 6.35691244234041 -12.677800669157808 a35.18227646065611,35.18227646065611 0 0,0 0.5390251654271,0.27610962558277097 l -6.574198095356265 12.566498518262536" fill="#ff940d" stroke="none" /><path d="M 109.73455568895987 81.39251694778311 l 6.113715497686398 -11.686291716250969 a34.18889423962323,34.18889423962323 0 0,0 0.5191094420011217,0.2772902860185463 l -6.31396998621583 11.579322703730668" fill="#ff860c" stroke="none" /><path d="M 110.05341064243156 81.56283822128135 l 6.285481331185519 -11.52707675851531 a34.12938590191428,34.12938590191428 0 0,0 0.5133643267228198,0.28568669201348584 l -6.482969746980373 11.417174668941644" fill="#ff850c" stroke="none" /><path d="M 110.36928655335952 81.73862282372117 l 6.365959386182459 -11.21110742207104 a33.89241515526633,33.89241515526633 0 0,0 0.5048408669147112,0.29243641534022563 l -6.557996985562498 11.099866849340764" fill="#ff820c" stroke="none" /><line stroke="#e1ed5e" stroke-width="0.3" x1="143.23703022742887" x2="145.7803849466894" y1="26.81831364943548" y2="22.513508569990506" /><path d="M 143.74570117128098 25.957352633546492 a86.0,86.0 0 0,1 28.547481713284135,27.462654790039103" fill="none" id="id14" stroke="none" /><text fill="#e1ed5e" style="font-size:6.75px; font-family:Arial;" text-anchor="middle"><textPath startOffset="19.985693538727396" xlink:href="#id14">February</textPath></text><path d="M 110.68208982089419 81.91981866633111 l 7.957090177609001 -13.46792956356955 a36.64290288993294,36.64290288993294 0 0,0 0.5402872732679331,0.32551703682836763 l -8.187739517094572 13.328965917282568" fill="#ffa80f" stroke="none" /><path d="M 110.99172775467656 82.1063720568725 l 13.769242569265646 -22.415193415638093 a47.30651890295906,47.30651890295906 0 0,0 0.6901814933241024,0.43219158780218103 l -14.153043214962013 22.174857486512966" fill="#ccff1d" stroke="none" /><path d="M 111.2981086023043 82.29822771554956 l 6.811031788490818 -10.67146174514799 a33.659788694997616,33.659788694997616 0 0,0 0.4857155180817996,0.3159228840165232 l -6.993714332356898 10.55263993697194" fill="#ff7f0b" stroke="none" /><path d="M 111.60114157652 82.49532879139004 l 7.150176133138774 -10.788721219260308 a33.94301063438584,33.94301063438584 0 0,0 0.4842460306557536,0.32696508152646747 l -7.33482685820107 10.664044225435171" fill="#ff830c" stroke="none" /><path d="M 111.90073688211348 82.69761687909136 l 7.279283905881831 -10.583290785525227 a33.84499972882107,33.84499972882107 0 0,0 0.47716430954779515,0.33428409240038 l -7.460379355013277 10.456421850360911" fill="#ff810b" stroke="none" /><path d="M 112.19680574252982 82.90503203632743 l 8.134253528339434 -11.400919749871406 a35.005250858385594,35.005250858385594 0 0,0 0.4874975983688298,0.35418773751542953 l -8.329296443062052 11.259212777539302" fill="#ff920d" stroke="none" /><path d="M 112.48926042617603 83.11751280151076 l 8.56436288571698 -11.576966277226019 a35.4005020684098,35.4005020684098 0 0,0 0.48676338719703094,0.36662009157347947 l -8.762372426672394 11.427829596146692" fill="#ff970d" stroke="none" /><path d="M 112.77801427241765 83.33499621200491 l 7.936956657730803 -10.351327674735087 a34.043974302965864,34.043974302965864 0 0,0 0.46197258901591415,0.3605769334147064 l -8.113961801906147 10.213172352097155" fill="#ff840c" stroke="none" /><path d="M 113.06298171725822 83.55741782278167 l 8.13392633127196 -10.238302021711037 a34.07606920486167,34.07606920486167 0 0,0 0.4561270116079913,0.36882298854621975 l -8.308956741444442 10.096772935900688" fill="#ff850c" stroke="none" /><path d="M 113.34407831869373 83.78471172551755 l 8.319478612242666 -10.109558769744382 a34.09262780722337,34.09262780722337 0 0,0 0.44992927819190337,0.37680283121237307 l -8.492265427393686 9.96485478113819" fill="#ff850c" stroke="none" /><path d="M 113.6212207817346 84.01681056812373 l 8.510254580910308 -9.985963318543353 a34.12036190168542,34.12036190168542 0 0,0 0.44373725846509404,0.3848045778813745 l -8.680885638022167 9.837993747242308" fill="#ff850c" stroke="none" /><path d="M 113.89432698308785 84.25364557470407 l 8.71179441847653 -9.87302247605231 a34.16707768650405,34.16707768650405 0 0,0 0.4376461182678005,0.3929230061308166 l -8.88045152434032 9.721600461152194" fill="#ff860c" stroke="none" /><path d="M 114.16331599549186 84.49514656593476 l 17.93830462570806 -19.63740582824998 a47.59718933474147,47.59718933474147 0 0,0 0.6001600233030259,0.5577833338579481 l -18.273672532805932 19.325717908317394" fill="#c8ff1d" stroke="none" /><path d="M 114.42810811169701 84.74124197986012 l 9.620519905178417 -10.174389055349994 a35.002592470523446,35.002592470523446 0 0,0 0.4342267550274838,0.41772579429903234 l -9.79422990381832 10.007280174288661" fill="#ff920d" stroke="none" /><path d="M 114.68862486808459 84.99185889309783 l 9.28856905591754 -9.490619872477826 a34.27966041246612,34.27966041246612 0 0,0 0.4181534180997759,0.4163577344337368 l -9.450558274184639 9.32932628739397" fill="#ff870c" stroke="none" /><path d="M 114.94478906791727 85.2469230424477 l 9.242495255143252 -9.123932305719928 a33.98729607195837,33.98729607195837 0 0,0 0.4074198572102319,0.4198819760716647 l -9.398179376056593 8.963486134098149" fill="#ff830c" stroke="none" /><path d="M 115.19652480421416 85.50635884689758 l 9.708746366378497 -9.259688494158553 a34.41646700944477,34.41646700944477 0 0,0 0.4051845384314402,0.4322226149237171 l -9.8666982267804 9.09119646235678" fill="#ff890c" stroke="none" /><path d="M 115.4437574822437 85.77008943001954 l 2.999883519988671 -2.764098973897847 a25.07915975061075,25.07915975061075 0 0,0 0.28979131435676453,0.31999480727608864 l -3.047018474961471 2.7120513793522094" fill="#ff0000" stroke="none" /><path d="M 115.68641384162765 86.03803664274999 l 20.163913022482834 -17.947238776244717 a47.994198785476016,47.994198785476016 0 0,0 0.5439528481907356,0.6218321372395905 l -20.46985773425142 17.59749108280218" fill="#c3ff1e" stroke="none" /><path d="M 115.9244219780498 86.31012108654704 l 9.665484898884468 -8.309206958213315 a33.746157013193596,33.746157013193596 0 0,0 0.37488667937025477,0.4437475830287796 l -9.80708219174184 8.14160042555543" fill="#ff800b" stroke="none" /><path d="M 116.15771136456269 86.58626213691792 l 9.96489351038973 -8.272611533032743 a33.95126265079485,33.95126265079485 0 0,0 0.36942451007697735,0.4528707681086129 l -10.105816512543116 8.099856595316028" fill="#ff830c" stroke="none" /><path d="M 116.38621287248628 86.86637796730983 l 9.885964395724578 -7.923644152096167 a33.669507831110955,33.669507831110955 0 0,0 0.3585737159446446,0.4553522055187262 l -10.020892192263187 7.752299552624403" fill="#ff7f0b" stroke="none" /><path d="M 116.60985879189232 87.15038557335679 l 10.01039938343487 -7.74418217189374 a33.656241674658006,33.656241674658006 0 0,0 0.35054427694664664,0.4612751781235139 l -10.14221960060563 7.570722217889192" fill="#ff7f0b" stroke="none" /><path d="M 116.82858285166822 87.43820079747576 l 10.307579838037476 -7.694156384450322 a33.86259089708968,33.86259089708968 0 0,0 0.344652462469705,0.4701055714804499 l -10.438494913020808 7.515588369298378" fill="#ff820b" stroke="none" /><path d="M 117.04232023915458 87.72973835380427 l 10.26609603704184 -7.3914632920737455 a33.65015641957995,33.65015641957995 0 0,0 0.3343982374472234,0.4729825921309519 l -10.391806894292946 7.213654199611001" fill="#ff7f0b" stroke="none" /><path d="M 117.2510076193507 88.02491185347247 l 10.40801392261329 -7.224904591298943 a33.66988556249363,33.66988556249363 0 0,0 0.32639833067891627,0.4789492748327286 l -10.530836718960938 7.044677293195807" fill="#ff7f0b" stroke="none" /><path d="M 117.45458315368197 88.32363383020206 l 10.514738662302424 -7.033908384966262 a33.650517629908116,33.650517629908116 0 0,0 0.3179226628438684,0.4842180269313832 l -10.634257960504216 6.8518722940572045" fill="#ff7f0b" stroke="none" /><path d="M 117.65298651832404 88.62581576622439 l 10.710977469421488 -6.901304260021946 a33.741783189171436,33.741783189171436 0 0,0 0.3103800650285738,0.4909467249413612 l -10.828185130696017 6.7159098873663785" fill="#ff800b" stroke="none" /><line stroke="#e1ed5e" stroke-width="0.3" x1="172.23445277983987" x2="176.4835382374775" y1="55.19839476539836" y2="52.563006222186495" /><path d="M 173.08426987136738 54.67131705675599 a86.0,86.0 0 0,1 12.851231095245387,41.99856678651699" fill="none" id="id15" stroke="none" /><text fill="#e1ed5e" style="font-size:6.75px; font-family:Arial;" text-anchor="middle"><textPath startOffset="22.20632615414155" xlink:href="#id15">March</textPath></text><path d="M 117.84615892207809 88.93136811851018 l 10.9447048145442 -6.7881782949881195 a33.878894674701506,33.878894674701506 0 0,0 0.3031099562333996,0.49823307065099126 l -11.059930569063823 6.598777451130047" fill="#ff820b" stroke="none" /><path d="M 118.03404312379186 89.2402003453031 l 11.085100814112602 -6.6137949817040536 a33.90820452731725,33.90820452731725 0 0,0 0.29474355678777203,0.5038122810779923 l -11.197304045370702 6.422003288272165" fill="#ff820c" stroke="none" /><path d="M 118.21658344932153 89.55222093294921 l 11.634244128295588 -6.672602060793809 a34.41190719839987,34.41190719839987 0 0,0 0.29027649565478364,0.516369495848065 l -11.747378265242805 6.47134905501095" fill="#ff890c" stroke="none" /><path d="M 118.3937258080291 89.86733742301442 l 11.047858928503572 -6.086000622657925 a33.61327041187609,33.61327041187609 0 0,0 0.2748155375475591,0.5091914538288658 l -11.150982565269596 5.8949281854966005" fill="#ff7e0b" stroke="none" /><path d="M 118.56541770881063 90.18545643968196 l 11.183184432375974 -5.911951590646765 a33.649695081648694,33.649695081648694 0 0,0 0.26629818569564007,0.514403333753864 l -11.283292051231731 5.7185755346325555" fill="#ff7f0b" stroke="none" /><path d="M 118.73160827565052 90.50648371742162 l 11.282656373397531 -5.71825336166264 a33.64898242343367,33.64898242343367 0 0,0 0.25739867145863726,0.5189000149807792 l -11.379415057809576 5.523193758182911" fill="#ff7f0b" stroke="none" /><path d="M 118.89224826269711 90.83032412892265 l 11.409317086538636 -5.537707219340127 a33.68222053223781,33.68222053223781 0 0,0 0.24867391936849684,0.5237706939461986 l -11.502949199748889 5.340494109753387" fill="#ff7f0b" stroke="none" /><path d="M 119.04729006885535 91.15688171328212 l 11.485182419706492 -5.332245496070231 a33.66263231892549,33.66263231892549 0 0,0 0.2394818701601058,0.5276665563729593 l -11.575266606829944 5.133756930855209" fill="#ff7f0b" stroke="none" /><path d="M 119.196687751892 91.48605970444005 l 11.543772469137426 -5.119788937447189 a33.62817966229582,33.62817966229582 0 0,0 0.23012770612149203,0.531166474284711 l -11.630190885101598 4.920323318575875" fill="#ff7e0b" stroke="none" /><path d="M 119.34039704204932 91.81776055985345 l 11.846421554110192 -5.011802883565401 a33.862965124006244,33.862965124006244 0 0,0 0.2224930859448529,0.5387846556087335 l -11.930936326941241 4.807143657503364" fill="#ff820b" stroke="none" /><path d="M 119.47837535516314 92.15188598940014 l 11.72056264297937 -4.722381113068413 a33.63615732907235,33.63615732907235 0 0,0 0.21175795029034666,0.5389008859451594 l -11.800114143151417 4.519931222227469" fill="#ff7e0b" stroke="none" /><path d="M 119.61058180528143 92.48833698450437 l 12.348472321937717 -4.729975059362595 a34.22336692177352,34.22336692177352 0 0,0 0.20598459737797287,0.5519363118743018 l -12.428061507817315 4.51671561045896" fill="#ff870c" stroke="none" /><path d="M 119.7369772167798 92.82701384747503 l 12.28851476358991 -4.466000303196907 a34.07489020233524,34.07489020233524 0 0,0 0.1956010969350247,0.5529906409623022 l -12.363568941334744 4.25381203580799" fill="#ff850c" stroke="none" /><path d="M 119.85752413597 93.16781622104841 l 24.24576430259107 -8.34200258008924 a46.64071164501904,46.64071164501904 0 0,0 0.25466429607754293,0.7614138309884273 l -24.385765892440382 7.923415646178498" fill="#d4ff1c" stroke="none" /><path d="M 119.97218684219823 93.5106431181261 l 12.063168523118037 -3.9195610521378703 a33.683966006678745,33.683966006678745 0 0,0 0.1744260280078318,0.5529781749952691 l -12.128850034894075 3.711332710716182" fill="#ff7f0b" stroke="none" /><path d="M 120.08093135843002 93.85539295169968 l 13.150352563545423 -4.023904449813965 a34.75222089579637,34.75222089579637 0 0,0 0.17011063668377818,0.5735285003702956 l -13.217669097340902 3.7969465626971393" fill="#ff8e0d" stroke="none" /><path d="M 120.18372546131832 94.20196356495316 l 12.194704890636269 -3.5030868511394657 a33.687885752020875,33.687885752020875 0 0,0 0.1553063339259307,0.5587195151972673 l -12.253197995128561 3.292656032523247" fill="#ff7f0b" stroke="none" /><path d="M 120.28053869075195 94.5502522615342 l 12.209431622301441 -3.2808952161577416 a33.64256674726541,33.64256674726541 0 0,0 0.14546992694999422,0.5605549694561692 l -12.264097881121739 3.070243821152722" fill="#ff7e0b" stroke="none" /><path d="M 120.37134235888165 94.90015583598534 l 12.374534890486881 -3.0978910683384977 a33.7564118319835,33.7564118319835 0 0,0 0.1362588811542754,0.564881030664103 l -12.426026571901977 2.8844248060149886" fill="#ff800b" stroke="none" /><path d="M 120.45610955862082 95.25157060432595 l 12.340118321927537 -2.86448312265919 a33.668219439178145,33.668219439178145 0 0,0 0.12618465950049668,0.5656610862154439 l -12.387597368430072 2.651643866893782" fill="#ff7f0b" stroke="none" /><path d="M 120.53481517161879 95.60439243477599 l 12.512455130734905 -2.6783704636504257 a33.79590566310995,33.79590566310995 0 0,0 0.11687059354501847,0.5699025198720021 l -12.55670502019492 2.4625922876150117" fill="#ff810b" stroke="none" /><path d="M 120.6074358757038 95.95851677861258 l 12.47780212183006 -2.447118031536584 a33.71549969335921,33.71549969335921 0 0,0 0.1067886692914833,0.5704693414454652 l -12.518076515031403 2.231970612628556" fill="#ff7f0b" stroke="none" /><path d="M 120.67395015179393 96.31383870115 l 12.623036063513743 -2.250684879748272 a33.822114563857866,33.822114563857866 0 0,0 0.09725973990291098,0.5740324904651819 l -12.659907664936876 2.0330666009672522" fill="#ff810b" stroke="none" /><path d="M 120.73433829027371 96.67025291283417 l 12.48729004981281 -2.0053457741385277 a33.647285260561226,33.647285260561226 0 0,0 0.08691271081676939,0.5726461722724473 l -12.519958654068878 1.7901004894739982" fill="#ff7f0b" stroke="none" /><path d="M 120.83666639777658 97.38593545837742 l 13.389111883157605 -1.6797313903012112 a34.49406590184276,34.49406590184276 0 0,0 0.06883972025796051,0.5897766834615157 l -13.416041956419155 1.449010968514843" fill="#ff8a0c" stroke="none" /><path d="M 120.87857604477298 97.74499172005257 l 12.570087183974916 -1.3576429071953362 a33.643191293189716,33.643191293189716 0 0,0 0.05723007115311213,0.5762990063500879 l -12.591594380810257 1.1410683701408133" fill="#ff7e0b" stroke="none" /><path d="M 120.91429891909075 98.10471618934814 l 12.623789900623374 -1.1439859743939313 a33.67551874144371,33.67551874144371 0 0,0 0.04734700349940019,0.5777533682548154 l -12.64161138794227 0.9265186889313473" fill="#ff7f0b" stroke="none" /><line stroke="#e1ed5e" stroke-width="0.3" x1="184.98032266829074" x2="189.97916517819016" y1="98.17113171792111" y2="98.06355123074" /><path d="M 185.9800911702706 98.14961562048488 a86.0,86.0 0 0,1 -9.607161424134198,41.387399972396054" fill="none" id="id16" stroke="none" /><text fill="#e1ed5e" style="font-size:6.75px; font-family:Arial;" text-anchor="middle"><textPath startOffset="21.466115282336823" xlink:href="#id16">April</textPath></text><line stroke="#e1ed5e" stroke-width="0.3" x1="174.80103733775053" x2="179.2010983576182" y1="140.37084112569926" y2="142.7455964860345" /><path d="M 175.68104954172406 140.8457921977663 a86.0,86.0 0 0,1 -30.038265399797805,32.042727171017184" fill="none" id="id17" stroke="none" /><text fill="#e1ed5e" style="font-size:6.75px; font-family:Arial;" text-anchor="middle"><textPath startOffset="22.206326154141568" xlink:href="#id17">May</textPath></text><path d="M 113.75828350139079 115.86535959552629 l 8.574342275809578 9.887499664263405 a34.08747474013013,34.08747474013013 0 0,0 -0.44660195796750685,0.3806038774024719 l -8.402874841265024 -10.033627931888823" fill="#ff850c" stroke="none" /><path d="M 111.7513745106137 117.40417183066458 l 4.913621388807553 7.27723475108354 a29.78076424777052,29.78076424777052 0 0,0 -0.42731894089112177,0.2832036930329851 l -4.787627749176467 -7.360736465207844" fill="#ff4706" stroke="none" /><path d="M 111.1453310114006 117.79835938074945 l 7.971109141877069 12.729336170023428 a36.0191404641272,36.0191404641272 0 0,0 -0.5283164030243339,0.3245350852734053 l -7.750813538920427 -12.864659722125213" fill="#ffa00e" stroke="none" /><line stroke="#e1ed5e" stroke-width="0.3" x1="143.8653032363475" x2="146.44561519142675" y1="172.8068346515853" y2="177.08958963109032" /><path d="M 144.38136562736335 173.6633856474863 a86.0,86.0 0 0,1 -40.68145358897372,12.25698825130547" fill="none" id="id18" stroke="none" /><text fill="#e1ed5e" style="font-size:6.75px; font-family:Arial;" text-anchor="middle"><textPath startOffset="21.466115282336833" xlink:href="#id18">June</textPath></text><path d="M 110.8373102113329 117.98757091392108 l 6.706130470495087 11.130713714358192 a33.99480564219043,33.99480564219043 0 0,0 -0.503822653999776,0.29766730457535595 l -6.513539945466929 -11.244499591227298" fill="#ff830c" stroke="none" /><path d="M 110.5260780823613 118.17145234162733 l 6.519056876904929 11.254023618686835 a34.00581216896056,34.00581216896056 0 0,0 -0.5090366184361355,0.28904427698771235 l -6.324371491547595 -11.364571061469176" fill="#ff840c" stroke="none" /><path d="M 110.21172684928248 118.3499491758327 l 6.129442579240787 11.01429380802094 a33.60494880678293,33.60494880678293 0 0,0 -0.5078782933140369,0.2769357399118158 l -5.938941474058101 -11.118170199692527" fill="#ff7e0b" stroke="none" /><path d="M 109.89434966115114 118.52300852407294 l 6.918952430054676 12.952828556560972 a35.68494706646983,35.68494706646983 0 0,0 -0.5442958661071776,0.2847498721359702 l -6.694965661421003 -13.070007847641659" fill="#ff9b0e" stroke="none" /><path d="M 109.57404056367764 118.69057910512821 l 4.1312204232313965 8.065027676409533 a30.06154808002341,30.06154808002341 0 0,0 -0.4625843710031609,0.23194940671500083 l -3.991782144545475 -8.134944924033837" fill="#ff4b07" stroke="none" /><path d="M 109.2508944713604 118.85261126421891 l 6.159361751719166 12.552305412233693 a34.98206380869907,34.98206380869907 0 0,0 -0.542867211545836,0.26060925152811815 l -5.9423818721730965 -12.656468940261371" fill="#ff910d" stroke="none" /><path d="M 108.92500713936063 119.00905698771935 l 5.3725534498776 11.442811541056951 a33.64129212287802,33.64129212287802 0 0,0 -0.5262971964810876,0.24159722965706956 l -5.174788257629094 -11.533595841048095" fill="#ff7e0b" stroke="none" /><path d="M 108.59647513512805 119.15986991738527 l 5.88456550918829 13.115551188609382 a35.37517979758728,35.37517979758728 0 0,0 -0.5577138410117073,0.24448535820056272 l -5.6579309935188284 -13.2149011001044" fill="#ff970d" stroke="none" /><path d="M 108.2653958097858 119.30500536409082 l 5.3616685007959095 12.522937987530474 a34.6224617801615,34.6224617801615 0 0,0 -0.5498847212448666,0.22985185807732564 l -5.1453123200535815 -12.613374888627773" fill="#ff8c0c" stroke="none" /><path d="M 107.59598834532513 119.57807347666477 l 4.904007332713846 12.639700263503364 a34.5577030012653,34.5577030012653 0 0,0 -0.5564280231833251,0.21039346671462394 l -4.6857090887702455 -12.72224198032462" fill="#ff8b0c" stroke="none" /><path d="M 107.2578585660854 119.70592522655815 l 4.467703886017759 12.130332647106759 a33.926923382715714,33.926923382715714 0 0,0 -0.5497461140548489,0.19711939747019133 l -4.258238211333175 -12.205439585616912" fill="#ff820c" stroke="none" /><path d="M 106.57524785965236 119.94407469862006 l 4.514578859512956 13.693643179513197 a35.41864368817642,35.41864368817642 0 0,0 -0.5806610956032682,0.18590934613913512 l -4.278196418818747 -13.76932537231204" fill="#ff970e" stroke="none" /><path d="M 105.53697534728816 120.25689768951611 l 4.118312290792437 15.06675133905333 a36.61945876262546,36.61945876262546 0 0,0 -0.609469086505136,0.16096632512433356 l -3.8583527614758033 -15.135409013481247" fill="#ffa80f" stroke="none" /><path d="M 105.18746579009965 120.34920634021253 l 3.134851140842974 12.297282583070073 a33.69056541699869,33.69056541699869 0 0,0 -0.5631886821324456,0.1384180757555955 l -2.922709173967317 -12.349421917139699" fill="#ff7f0b" stroke="none" /><path d="M 104.83641907484287 120.43548508189849 l 2.923949223033418 12.354661538396455 a33.69594977885508,33.69594977885508 0 0,0 -0.5655782544817363,0.12872376935533605 l -2.7108508191588196 -12.403162041329475" fill="#ff7f0b" stroke="none" /><path d="M 104.48393922423573 120.51570834832081 l 3.1797283382640598 14.54845303480562 a35.89188228569862,35.89188228569862 0 0,0 -0.604707353240563,0.12672230533102635 l -2.9288295235941186 -14.601031320863187" fill="#ff9e0e" stroke="none" /><path d="M 104.13013068566511 120.58985236759428 l 2.509536011895009 12.510736324983522 a33.7599488395628,33.7599488395628 0 0,0 -0.5707559604022477,0.1093867382217255 l -2.293812436921057 -12.552080261553716" fill="#ff800b" stroke="none" /><path d="M 103.7750983002368 120.6578951692458 l 2.3409628321565457 12.810094184502988 a34.022235599058085,34.022235599058085 0 0,0 -0.5770025810202273,0.10031929477080492 l -2.1201112796642683 -12.8484920577948" fill="#ff840c" stroke="none" /><path d="M 103.41894727170886 120.7198165907248 l 2.133007132783939 12.926644684959168 a34.10144504395184,34.10144504395184 0 0,0 -0.5799911032773654,0.09058268221244213 l -1.9101801658980564 -12.961445674518716" fill="#ff850c" stroke="none" /><path d="M 102.70371172650421 120.8252237178851 l 1.8339712369840957 14.12608486620802 a35.24463843505325,35.24463843505325 0 0,0 -0.6023016294671393,0.07293033945054353 l -1.590542184465576 -14.155560734383915" fill="#ff950d" stroke="none" /><path d="M 101.62511606390274 120.93702456842531 l 1.0080835752007855 12.987546581945635 a34.0266111753133,34.0266111753133 0 0,0 -0.5843458625863707,0.040299911925272075 l -0.7843749518354846 -13.002974838387193" fill="#ff840c" stroke="none" /><line stroke="#e1ed5e" stroke-width="0.3" x1="102.19456741930631" x2="102.32365962044197" y1="184.97166512339345" y2="189.96999836594603" /><path d="M 102.22038585953345 185.97133177190398 a86.0,86.0 0 0,1 -42.740103519485714,-10.115201625700543" fill="none" id="id19" stroke="none" /><text fill="#e1ed5e" style="font-size:6.75px; font-family:Arial;" text-anchor="middle"><textPath startOffset="22.20632615414155" xlink:href="#id19">July</textPath></text><path d="M 100.18074693466247 120.99922214144158 l 0.15761915559841147 18.312231232792683 a39.312909559146505,39.312909559146505 0 0,0 -0.6767321805217212,0.0 l 0.15761915559839887 -18.312231232792683" fill="#ffcc13" stroke="none" /><path d="M 99.81925306533755 120.99922214144158 l -0.10990353073442101 12.76861851256802 a33.76909149100133,33.76909149100133 0 0,0 -0.5812148047881138,-0.010006139955471047 l 0.32967802541520275 -12.76483489533339" fill="#ff800b" stroke="none" /><path d="M 99.09653310690486 120.98055641714683 l -0.5637166262969725 13.090782375864976 a34.102914166208244,34.102914166208244 0 0,0 -0.5862647102796109,-0.030303188967308967 l 0.7889694049900723 -13.079139380135464" fill="#ff850c" stroke="none" /><path d="M 98.73552117531835 120.96189622390904 l -0.7843226501638613 13.00210780748773 a34.025742568356456,34.025742568356456 0 0,0 -0.5843309458237577,-0.04029888317798725 l 1.008016356766549 -12.986680579793457" fill="#ff840c" stroke="none" /><path d="M 98.37488393609728 120.93702456842531 l -1.0105569036394488 13.019411468052233 a34.05857190622096,34.05857190622096 0 0,0 -0.5841137238873224,-0.05039978991936783 l 1.234514945268313 -13.000087425854202" fill="#ff840c" stroke="none" /><path d="M 98.01472825383883 120.90594882070398 l -1.2327714272916308 12.981727270546005 a34.04012915268804,34.04012915268804 0 0,0 -0.5828438500305849,-0.06041414816038825 l 1.4560478739278089 -12.958583753929855" fill="#ff840c" stroke="none" /><path d="M 97.2962882734958 120.8252237178851 l -1.6332398665709142 12.579960087048622 a33.68553775972832,33.68553775972832 0 0,0 -0.5743727601073866,-0.07960283085437057 l 1.8495412178651318 -12.549982690701647" fill="#ff7f0b" stroke="none" /><path d="M 96.58105272829116 120.7198165907248 l -2.1270811387310427 12.890731434436246 a34.06504615703703,34.06504615703703 0 0,0 -0.5777286297943253,-0.10044552765672708 l 2.348658739997418 -12.852207328258514" fill="#ff840c" stroke="none" /><path d="M 95.86986931433489 120.58985236759428 l -2.5601187090572983 12.762905165679326 a34.01714085629364,34.01714085629364 0 0,0 -0.5731216615579026,-0.12010321653699997 l 2.7794318320445877 -12.716945968415784" fill="#ff840c" stroke="none" /><path d="M 95.16358092515715 120.4354850818985 l -3.3643134181108048 14.215347264725656 a35.60803555006708,35.60803555006708 0 0,0 -0.595242091266573,-0.1462960238651941 l 3.6085087941205884 -14.155329982546432" fill="#ff9a0e" stroke="none" /><path d="M 94.81253420990036 120.34920634021253 l -3.31987100857458 13.023071941082813 a34.4395664474786,34.4395664474786 0 0,0 -0.5731884580391684,-0.15138428139697102 l 3.543549909425238 -12.963996310382262" fill="#ff8a0c" stroke="none" /><path d="M 94.11515582081647 120.15858648285463 l -3.671229396912397 12.575829205103018 a34.10074064626408,34.10074064626408 0 0,0 -0.5620533203711763,-0.1693420548341443 l 3.8871576917238193 -12.510771781163147" fill="#ff850c" stroke="none" /><path d="M 93.42475214034765 119.94407469862007 l -4.568296722018633 13.856580468773084 a35.59020758001715,35.59020758001715 0 0,0 -0.5801716793184211,-0.19682573352471297 l 4.8061381342742795 -13.775891748350249" fill="#ff9a0e" stroke="none" /><path d="M 90.7491055286396 118.85261126421891 l -5.752568275526982 11.723291602248715 a34.058621970022514,34.058621970022514 0 0,0 -0.5240909809201361,-0.2627900977836489 l 5.953513164129878 -11.622533663555762" fill="#ff840c" stroke="none" /><path d="M 90.10565033884886 118.52300852407294 l -3.6061220918725065 6.750947008560732 a28.653718184901116,28.653718184901116 0 0,0 -0.4330493574777294,-0.23613303779706346 l 3.7217942612188764 -6.687873319003902" fill="#ff3605" stroke="none" /><line stroke="#e1ed5e" stroke-width="0.3" x1="58.666819895761336" x2="56.23545636021788" y1="174.27360380694188" y2="178.64263932499728" /><path d="M 58.180547188652646 175.14741091055294 a86.0,86.0 0 0,1 -31.652253787137756,-30.449443065178592" fill="none" id="id20" stroke="none" /><text fill="#e1ed5e" style="font-size:6.75px; font-family:Arial;" text-anchor="middle"><textPath startOffset="22.20632615414155" xlink:href="#id20">August</textPath></text><path d="M 89.7882731507175 118.34994917583269 l -6.137362505854987 11.02852550976853 a33.62123581302124,33.62123581302124 0 0,0 -0.5032798540693377,-0.2857754359379236 l 6.326291126845532 -10.921246908035974" fill="#ff7e0b" stroke="none" /><path d="M 89.4739219176387 118.17145234162733 l -6.326900285411178 10.922298514888737 a33.62245111180379,33.62245111180379 0 0,0 -0.4983041447986112,-0.2944068720677186 l 6.513972301238171 -10.811773070527268" fill="#ff7e0b" stroke="none" /><path d="M 89.1626897886671 117.98757091392108 l -6.507580463673077 10.801164014476425 a33.610065327301044,33.610065327301044 0 0,0 -0.4929809148782208,-0.30282914240842856 l 6.692540578483606 -10.687546405239619" fill="#ff7e0b" stroke="none" /><path d="M 86.79598089348748 116.32954008644616 l -39.61205731953757 48.98862025933849 a84.0,84.0 0 0,0 -1.1165194858212448,-0.9188195245712771 l 40.44944693390351 -48.29950561591003" fill="#4dd2ff" stroke="none" /><path d="M 84.67929136418377 114.36230785411682 l -9.532576052103058 8.936257137807754 a34.06624268189401,34.06624268189401 0 0,0 -0.39736421481043566,-0.43126037479116264 l 9.684986674909224 -8.770845508215247" fill="#ff840c" stroke="none" /><path d="M 83.50135304334701 112.99209946851258 l -14.521950818088646 11.435521349184029 a39.48399859582956,39.48399859582956 0 0,0 -0.4158853008747075,-0.5375878132832906 l 14.716642936181422 -11.183855541787485" fill="#ffcf13" stroke="none" /><line stroke="#e1ed5e" stroke-width="0.3" x1="26.63291911575756" x2="22.317208475507996" y1="142.92168965132927" y2="145.44649492493687" /><path d="M 25.769776987707644 143.4266507060508 a86.0,86.0 0 0,1 -11.730757126820373,-40.83630448921669" fill="none" id="id21" stroke="none" /><text fill="#e1ed5e" style="font-size:6.75px; font-family:Arial;" text-anchor="middle"><textPath startOffset="21.46611528233685" xlink:href="#id21">September</textPath></text><path d="M 81.87401531095188 110.60418214915194 l -11.286698494196322 6.603018194500192 a34.07629198877855,34.07629198877855 0 0,0 -0.2918358615576458,-0.5088404235437389 l 11.398686351906345 -6.407757925098146" fill="#ff850c" stroke="none" /><path d="M 80.58989483394504 108.01547362559985 l -12.088808017361611 4.992117301742375 a34.079010453202564,34.079010453202564 0 0,0 -0.21923739147251525,-0.544129226107165 l 12.172948023091514 -4.783288707792404" fill="#ff850c" stroke="none" /><path d="M 79.07016306316243 101.71520430193888 l -13.561860332696666 1.1113971530277147 a34.6073237381687,34.6073237381687 0 0,0 -0.04354498040856455,-0.5941366610268173 l 13.578981871769566 -0.8777873555041367" fill="#ff8c0c" stroke="none" /><line stroke="#e1ed5e" stroke-width="0.3" x1="15.007084014347285" x2="10.007500721073583" y1="101.09737516637583" y2="101.16192664675087" /><path d="M 14.007167355692545 101.11028546245083 a86.0,86.0 0 0,1 10.666146001902534,-42.60595125391555" fill="none" id="id22" stroke="none" /><text fill="#e1ed5e" style="font-size:6.75px; font-family:Arial;" text-anchor="middle"><textPath startOffset="22.20632615414155" xlink:href="#id22">October</textPath></text><path d="M 79.62865764111835 94.90015583598534 l -14.656890037682274 -3.669265078581791 a36.10920023673026,36.10920023673026 0 0,0 0.1561356111773654,-0.6016542015906539 l 14.591558094634602 3.9210157057213086" fill="#ffa10e" stroke="none" /><line stroke="#e1ed5e" stroke-width="0.3" x1="26.266209847984243" x2="21.928928074336255" y1="57.711370442889674" y2="55.22380399835377" /><path d="M 25.398753493254645 57.213857153982495 a86.0,86.0 0 0,1 29.58750427330803,-30.492523968695096" fill="none" id="id23" stroke="none" /><text fill="#e1ed5e" style="font-size:6.75px; font-family:Arial;" text-anchor="middle"><textPath startOffset="21.46611528233685" xlink:href="#id23">November</textPath></text><path d="M 81.78341655067845 89.55222093294921 l -12.618308925941271 -7.236993930546252 a35.54633291593632,35.54633291593632 0 0,0 0.3089828181838675,-0.5281517945283166 l 12.491866433287077 7.45312513742846" fill="#ff990e" stroke="none" /><path d="M 81.96595687620814 89.24020034530311 l -12.967087280728196 -7.736660064959818 a36.099710643147006,36.099710643147006 0 0,0 0.32297930077553494,-0.5308930487858745 l 12.831992181666443 7.958720886952767" fill="#ffa10e" stroke="none" /><path d="M 82.15384107792192 88.93136811851018 l -13.110702835638177 -8.131584170516039 a36.427676103891926,36.427676103891926 0 0,0 0.33508675029344326,-0.5300267677070876 l 12.96878848909877 8.356058585937342" fill="#ffa50f" stroke="none" /><path d="M 82.34701348167596 88.62581576622439 l -6.713379033117017 -4.3255689270808295 a28.986238450310783,28.986238450310783 0 0,0 0.2738555827075849,-0.41710084061523345 l 6.637926815051512 4.44048783167373" fill="#ff3b05" stroke="none" /><path d="M 82.7489923806493 88.02491185347247 l -22.98472609282438 -15.955248937263104 a48.97977130378655,48.97977130378655 0 0,0 0.4867361979043999,-0.6884538337470204 l 22.706677275116103 16.34852927134191" fill="#b8ff1f" stroke="none" /><path d="M 82.95767976084542 87.72973835380427 l -6.16633881379538 -4.439688351268474 a28.59832659359338,28.59832659359338 0 0,0 0.2910729339331682,-0.3970231547705024 l 6.089003267348578 4.545173949710477" fill="#ff3505" stroke="none" /><line stroke="#e1ed5e" stroke-width="0.3" x1="56.762969772571076" x2="54.21961505331055" y1="26.818313649435495" y2="22.513508569990535" /><path d="M 56.25429882871897 25.957352633546506 a86.0,86.0 0 0,1 42.265352541879196,-11.944610805530505" fill="none" id="id24" stroke="none" /><text fill="#e1ed5e" style="font-size:6.75px; font-family:Arial;" text-anchor="middle"><textPath startOffset="22.20632615414155" xlink:href="#id24">December</textPath></text></svg>