<?xml version="1.0" encoding="utf-8" ?>
<svg baseProfile="full" height="200mm" version="1.1" viewBox="0,0,200,200" width="200mm" xmlns="http://www.w3.org/2000/svg" xmlns:ev="http://www.w3.org/2001/xml-events" xmlns:xlink="http://www.w3.org/1999/xlink"><defs /><rect fill="#1a1a1a" height="200" width="200" x="0" y="0" /><rect fill="#1a1a1a" height="200" width="180" x="10" y="0" /><text alignment-baseline="middle" fill="#e1ed5e" style="dominant-baseline: central; font-size:9.0px; font-family:Arial;" text-anchor="middle" x="100.0" y="100.0">2026</text><line stroke="#e1ed5e" stroke-width="0.3" x1="100.0" x2="100.0" y1="15.0" y2="10.0" /><path d="M 100.0 14.0 a86.0,86.0 0 0,1 42.46469731375804,11.215312516191453" fill="none" id="id61" stroke="none" /><text fill="#e1ed5e" style="font-size:6.75px; font-family:Arial;" text-anchor="middle"><textPath startOffset="22.20632615414155" xlink:href="#id61">January</textPath></text><path d="M 101.80526077348638 79.07773832637324 l 0.4601447572514599 -5.3328965877711 a26.352711388958557,26.352711388958557 0 0,0 0.45160374580613977,0.04288521725077716 l -0.5518736301478439 5.324185826005145" fill="#ff2904" stroke="none" /><path d="M 102.52436894288641 79.15227682838746 l 1.3157995238150952 -10.866646216329675 a31.946018836898833,31.946018836898833 0 0,0 0.5453417731351972,0.07080101356663557 l -1.5026560254581385 10.842386879598903" fill="#ff790b" stroke="none" /><path d="M 102.88285421437855 79.19881850522331 l 0.45672288267741096 -3.2954755491992023 a24.326973833220055,24.326973833220055 0 0,0 0.41428954547904284,0.06105550974678445 l -0.5133814085851096 3.287125555291449" fill="#ff0b01" stroke="none" /><path d="M 103.2404852339499 79.25152402106235 l 4.468754853133525 -28.612953317791714 a49.95981470078033,49.95981470078033 0 0,0 0.8485336557372387,0.14001532371356187 l -4.960617715009639 28.53179173113853" fill="#a2ff22" stroke="none" /><path d="M 103.59715602781102 79.31037775812273 l 1.1421281250296584 -6.569133859080016 a27.667681479532092,27.667681479532092 0 0,0 0.46851250104250103,0.08561766490897521 l -1.2550357471750604 6.548500712820302" fill="#ff3c05" stroke="none" /><path d="M 103.95276090670814 79.375362276772 l 5.407914820409589 -28.21731104953454 a49.73085772424815,49.73085772424815 0 0,0 0.839346974451658,0.16836510690863096 l -5.892828204328373 28.120041986548703" fill="#a5ff21" stroke="none" /><path d="M 104.307194497241 79.44645832069477 l 0.7792637672829206 -3.7185760546177917 a24.799349930313973,24.799349930313973 0 0,0 0.41705099353109903,0.09115119383892153 l -0.8431574849675476 3.7046113626829995" fill="#ff1202" stroke="none" /><path d="M 105.71112130821622 79.79150937346287 l 7.785655156367509 -27.549115271383524 a49.628136133004695,49.628136133004695 0 0,0 0.8200689863955275,0.23940062490111658 l -8.258714360486463 27.411016317563707" fill="#a6ff21" stroke="none" /><path d="M 106.0581310904928 79.89281104454417 l 3.3499385183071255 -11.118585215573797 a32.61227907313693,32.61227907313693 0 0,0 0.5361064650136671,0.1665708883122983 l -3.5408303560315106 11.059274192378977" fill="#ff820c" stroke="none" /><path d="M 108.43124777332544 80.76684994638697 l 4.993776544295847 -11.391677269232108 a33.43817169766919,33.43817169766919 0 0,0 0.525166997698539,0.23562712361678884 l -5.189125660461166 11.304029815098788" fill="#ff8d0d" stroke="none" /><path d="M 109.41281617654863 81.2277094730956 l 9.0068953495797 -17.962749200285614 a41.094390328413596,41.094390328413596 0 0,0 0.6296042431952928,0.32250774732610693 l -9.314760080363747 17.805048927647004" fill="#fff216" stroke="none" /><path d="M 109.73455568895987 81.39251694778311 l 2.7933964583636466 -5.339542853103559 a27.026091739571168,27.026091739571168 0 0,0 0.410352534482979,0.21919611251258023 l -2.8848940393749367 5.290668014089225" fill="#ff3304" stroke="none" /><path d="M 110.05341064243156 81.56283822128135 l 3.327174216492348 -6.101774957499804 a27.949945747907908,27.949945747907908 0 0,0 0.4204149796908386,0.23396048102431102 l -3.4317132852552215 6.043599078915313" fill="#ff4006" stroke="none" /><line stroke="#e1ed5e" stroke-width="0.3" x1="143.23703022742887" x2="145.7803849466894" y1="26.81831364943548" y2="22.513508569990506" /><path d="M 143.74570117128098 25.957352633546492 a86.0,86.0 0 0,1 28.547481713284135,27.462654790039103" fill="none" id="id62" stroke="none" /><text fill="#e1ed5e" style="font-size:6.75px; font-family:Arial;" text-anchor="middle"><textPath startOffset="19.985693538727396" xlink:href="#id62">February</textPath></text><path d="M 110.68208982089419 81.91981866633111 l 16.544266562665946 -28.002323936695337 a53.52449695156202,53.52449695156202 0 0,0 0.7892006972772392,0.47548458968266394 l -17.023829326160822 27.71339273755406" fill="#7aff26" stroke="none" /><line stroke="#e1ed5e" stroke-width="0.3" x1="172.23445277983987" x2="176.4835382374775" y1="55.19839476539836" y2="52.563006222186495" /><path d="M 173.08426987136738 54.67131705675599 a86.0,86.0 0 0,1 12.851231095245387,41.99856678651699" fill="none" id="id63" stroke="none" /><text fill="#e1ed5e" style="font-size:6.75px; font-family:Arial;" text-anchor="middle"><textPath startOffset="22.20632615414155" xlink:href="#id63">March</textPath></text><path d="M 119.196687751892 91.48605970444005 l 6.097904593259662 -2.7044871649754576 a27.670733936683,27.670733936683 0 0,0 0.18935912057965515,0.4370669579387748 l -6.143554423681998 2.59912106245008" fill="#ff3c05" stroke="none" /><path d="M 119.34039704204932 91.81776055985345 l 4.266899349618622 -1.8051745302683686 a25.633042752285526,25.633042752285526 0 0,0 0.1684192380444924,0.4078405438188689 l -4.2973402745493114 1.7314594159961965" fill="#ff1f03" stroke="none" /><path d="M 119.47837535516314 92.15188598940014 l 7.285426672433751 -2.935401854547859 a28.854554465219024,28.854554465219024 0 0,0 0.18165515312341604,0.462292550624368 l -7.334875375438867 2.8095602990277064" fill="#ff4d07" stroke="none" /><path d="M 119.7369772167798 92.82701384747503 l 6.3546656902387975 -2.3094685928530123 a27.76131800879626,27.76131800879626 0 0,0 0.15935911231521627,0.4505296700439684 l -6.393477883363824 2.199741296382429" fill="#ff3e05" stroke="none" /><path d="M 119.85752413597 93.16781622104841 l 20.99003832512167 -7.221836840409469 a43.19767186530092,43.19767186530092 0 0,0 0.23586485518259395,0.7052058955505319 l -21.111240474076034 6.8594578419366234" fill="#f2ff19" stroke="none" /><path d="M 119.97218684219823 93.5106431181261 l 23.80878533849992 -7.735943299859869 a46.034038388430574,46.034038388430574 0 0,0 0.23837853498789088,0.7557250987205368 l -23.938419357256016 7.324968034712914" fill="#d0ff1d" stroke="none" /><line stroke="#e1ed5e" stroke-width="0.3" x1="184.98032266829074" x2="189.97916517819016" y1="98.17113171792111" y2="98.06355123074" /><path d="M 185.9800911702706 98.14961562048488 a86.0,86.0 0 0,1 -9.607161424134198,41.387399972396054" fill="none" id="id64" stroke="none" /><text fill="#e1ed5e" style="font-size:6.75px; font-family:Arial;" text-anchor="middle"><textPath startOffset="21.466115282336823" xlink:href="#id64">April</textPath></text><path d="M 118.64920377521936 109.65438752849418 l 2.623283309937138 1.3580308294350305 a23.95395718619799,23.95395718619799 0 0,0 -0.19271242784268802,0.3645392879037366 l -2.599518373869557 -1.4029851324249014" fill="#ff0600" stroke="none" /><line stroke="#e1ed5e" stroke-width="0.3" x1="174.80103733775053" x2="179.2010983576182" y1="140.37084112569926" y2="142.7455964860345" /><path d="M 175.68104954172406 140.8457921977663 a86.0,86.0 0 0,1 -30.038265399797805,32.042727171017184" fill="none" id="id65" stroke="none" /><text fill="#e1ed5e" style="font-size:6.75px; font-family:Arial;" text-anchor="middle"><textPath startOffset="22.206326154141568" xlink:href="#id65">May</textPath></text><path d="M 118.30583269289576 110.29060199501025 l 2.667838895029388 1.499722450004131 a24.06047901428486,24.06047901428486 0 0,0 -0.20605852963508067,0.35928041514391523 l -2.641628369241928 -1.5454227110063614" fill="#ff0701" stroke="none" /><path d="M 117.94076556474637 110.91462005526583 l 24.55614999306495 14.939220192536501 a49.74343059627702,49.74343059627702 0 0,0 -0.45132773680063437,0.7276840176025334 l -24.295357616596352 -15.359700541504308" fill="#a4ff21" stroke="none" /><path d="M 117.35343817320211 111.8261652097733 l 13.47538516690739 9.183317430160256 a37.307032974137044,37.307032974137044 0 0,0 -0.36621133017908963,0.527554734454618 l -13.315312929566163 -9.413913426801894" fill="#ffc112" stroke="none" /><path d="M 117.14729908036423 112.12312394758627 l 10.424220519782684 7.369913875416774 a33.76636220605224,33.76636220605224 0 0,0 -0.3396256207563311,0.4717102827343207 l -10.295815106650752 -7.5482577636022254" fill="#ff920d" stroke="none" /><path d="M 116.0416608686014 113.55231037782055 l 2.0496509534092793 1.7315854084141453 a23.683180399720516,23.683180399720516 0 0,0 -0.26576756468479323,0.30914771963105864 l -2.0195408791537073 -1.7666102272067319" fill="#ff0200" stroke="none" /><path d="M 115.32070863581623 114.36230785411682 l 14.697970651576178 13.778525807560634 a41.14641691974553,41.14641691974553 0 0,0 -0.488845783605059,0.5125528497302166 l -14.458618316592155 -14.029485773873358" fill="#fff216" stroke="none" /><path d="M 114.81725581225074 114.88116024355365 l 5.48908908434383 5.512762639066155 a28.77950196931309,28.77950196931309 0 0,0 -0.35405646211299807,0.34651876718478336 l -5.393382669855037 -5.606431509173511" fill="#ff4c07" stroke="none" /><path d="M 114.55890576462653 115.13401014063108 l 1.7970163315537815 1.8680018831286274 a23.592045279551094,23.592045279551094 0 0,0 -0.29508499468417015,0.27902128075058935 l -1.7645955024788036 -1.8986578006251382" fill="#ff0000" stroke="none" /><path d="M 114.29624159901734 115.38237550388516 l 2.1172260346176603 2.2780788688776203 a24.110030452341192,24.110030452341192 0 0,0 -0.3064275233379759,0.2799142772427877 l -2.0776989618128203 -2.314185912706991" fill="#ff0801" stroke="none" /><path d="M 114.0293411484842 115.62618273729858 l 6.649203539522601 7.406026303473181 a30.952945961761095,30.952945961761095 0 0,0 -0.3995253668097381,0.3525346841917209 l -6.520735819806275 -7.51938412943719" fill="#ff6b09" stroke="none" /><path d="M 113.75828350139079 115.86535959552629 l 1.7884506023518818 2.0623511590148507 a23.729807293591016,23.729807293591016 0 0,0 -0.3108994866971749,0.2649552873836532 l -1.7526856390776595 -2.0928308366214505" fill="#ff0200" stroke="none" /><path d="M 113.48314897796784 116.09983520530334 l 7.015750389656999 8.377303054322878 a31.92702887311733,31.92702887311733 0 0,0 -0.42437083168110357,0.3492283034544214 l -6.870509429431205 -8.496826476634478" fill="#ff790b" stroke="none" /><path d="M 112.04921762599082 117.19931262002967 l 3.3189735540247125 4.7375742977824995 a26.78447885978718,26.78447885978718 0 0,0 -0.3798844108262636,0.2612879617373012 l -3.2369322585755658 -4.794003048884894" fill="#ff2f04" stroke="none" /><path d="M 111.1453310114006 117.79835938074945 l 1.3655527781599635 2.1806978253235005 a23.57297053914557,23.57297053914557 0 0,0 -0.3457602497828445,0.21239418557720033 l -1.3278133284448101 -2.2038804777290792" fill="#ff0000" stroke="none" /><line stroke="#e1ed5e" stroke-width="0.3" x1="143.8653032363475" x2="146.44561519142675" y1="172.8068346515853" y2="177.08958963109032" /><path d="M 144.38136562736335 173.6633856474863 a86.0,86.0 0 0,1 -40.68145358897372,12.25698825130547" fill="none" id="id66" stroke="none" /><text fill="#e1ed5e" style="font-size:6.75px; font-family:Arial;" text-anchor="middle"><textPath startOffset="21.466115282336833" xlink:href="#id66">June</textPath></text><path d="M 110.5260780823613 118.17145234162733 l 12.548106799688107 21.662135023515958 a46.034038388430574,46.034038388430574 0 0,0 -0.6890884157619052,0.39128238657254294 l -12.173369617005003 -21.87492057588313" fill="#d0ff1d" stroke="none" /><path d="M 110.21172684928248 118.3499491758327 l 6.232183250140009 11.19891352191626 a33.81623080841963,33.81623080841963 0 0,0 -0.5110714403417617,0.27867689826887004 l -6.0384889979295995 -11.3045310719449" fill="#ff920d" stroke="none" /><path d="M 109.89434966115114 118.52300852407294 l 10.095310379201681 18.89922295159306 a42.42652374573251,42.42652374573251 0 0,0 -0.6471238823777992,0.33854463029657944 l -9.768495594297386 -19.070197000834355" fill="#fcff18" stroke="none" /><path d="M 109.57404056367764 118.69057910512821 l 6.05899199245229 11.828450942844887 a34.28998253090985,34.28998253090985 0 0,0 -0.527651136213806,0.26457523355550655 l -5.854486948555723 -11.930994017309695" fill="#ff990e" stroke="none" /><path d="M 109.2508944713604 118.85261126421891 l 26.43606465885236 53.87466605656874 a81.01120859767634,81.01120859767634 0 0,0 -1.257167934855874,0.6035170067004065 l -25.50478405599625 -54.32173733976871" fill="#49eeff" stroke="none" /><path d="M 108.92500713936063 119.00905698771935 l 12.065912606869112 25.698760434744855 a49.390359894143835,49.390359894143835 0 0,0 -0.7726816155138828,0.3547002320423937 l -11.62176299558781 -25.902647737121324" fill="#a8ff21" stroke="none" /><path d="M 108.59647513512805 119.15986991738527 l 5.164744412835333 11.511210065867699 a33.61675639895007,33.61675639895007 0 0,0 -0.5299910966075728,0.2323325217501487 l -4.965832641570007 -11.598407140912302" fill="#ff900d" stroke="none" /><path d="M 108.2653958097858 119.30500536409082 l 5.044343829579016 11.781781166855572 a33.81623080841963,33.81623080841963 0 0,0 -0.5370799098490091,0.22449944587535622 l -4.840792460232545 -11.866865655750901" fill="#ff920d" stroke="none" /><path d="M 107.93186726928326 119.44442032107085 l 6.568465638559044 16.10213615591604 a38.39032862336389,38.39032862336389 0 0,0 -0.6140239175435527,0.24433278880002862 l -6.290320644973624 -16.21281578912214" fill="#ffcf13" stroke="none" /><path d="M 107.59598834532513 119.57807347666477 l 8.031484621117379 20.700531503015213 a43.2039804928434,43.2039804928434 0 0,0 -0.6956453517296444,0.263033548017572 l -7.673969048627461 -20.835713301139414" fill="#f2ff19" stroke="none" /><path d="M 107.2578585660854 119.70592522655815 l 4.601799199358329 12.494416928146476 a34.31491683209355,34.31491683209355 0 0,0 -0.5560330941228049,0.1993736848425236 l -4.386046544605789 -12.57177815402896" fill="#ff990e" stroke="none" /><path d="M 106.91757812671514 119.82793768551818 l 13.582232470121628 38.930916877938614 a62.23218800681565,62.23218800681565 0 0,0 -1.014474359060662,0.3441647825669533 l -12.910088378123739 -39.15894464740369" fill="#31ff42" stroke="none" /><path d="M 106.57524785965236 119.94407469862006 l 3.9816236833291345 12.077080873162616 a33.71649360368485,33.71649360368485 0 0,0 -0.5527556698155492,0.1769749100262092 l -3.773146668422645 -12.143828629848532" fill="#ff910d" stroke="none" /><path d="M 106.2309692047433 120.05430185196036 l 3.758350014820988 12.096205772476578 a33.66662500131746,33.66662500131746 0 0,0 -0.5548981637662698,0.16718626484373061 l -3.549576876614472 -12.159107406426035" fill="#ff900d" stroke="none" /><path d="M 105.88484417918355 120.15858648285463 l 3.6613745735157153 12.542071419226854 a34.065573820256596,34.065573820256596 0 0,0 -0.5643024463189993,0.15947750799453247 l -3.4449409590921105 -12.603237720559907" fill="#ff960d" stroke="none" /><path d="M 105.53697534728816 120.25689768951611 l 3.4252180146698272 12.531081779411661 a33.99077091670551,33.99077091670551 0 0,0 -0.5657190138854082,0.14941153330724122 l -3.2090085579729215 -12.588184662022487" fill="#ff950d" stroke="none" /><path d="M 105.18746579009965 120.34920634021253 l 3.2090085579729215 12.588184662022487 a33.99077091670551,33.99077091670551 0 0,0 -0.568207070445498,0.13965147350616275 l -2.991848202784212 -12.64155739384268" fill="#ff950d" stroke="none" /><path d="M 104.83641907484287 120.43548508189849 l 14.509257224528598 61.306455245695496 a84.0,84.0 0 0,0 -1.4099194024285517,0.32089306568926235 l -13.451817672707184 -61.54712504496244" fill="#4dd2ff" stroke="none" /><path d="M 104.48393922423573 120.51570834832081 l 5.31045861101817 24.297345394561496 a45.87090597227925,45.87090597227925 0 0,0 -0.7728342002363113,0.16195492078569954 l -4.89143294935248 -24.38515629607374" fill="#d2ff1c" stroke="none" /><path d="M 104.13013068566511 120.58985236759428 l 6.489022406809157 32.34958492474335 a53.993985157892844,53.993985157892844 0 0,0 -0.9128387309231755,0.17494771535591708 l -5.931216061314277 -32.45648983844773" fill="#75ff27" stroke="none" /><path d="M 103.7750983002368 120.6578951692458 l 3.249512321716647 17.78181110912638 a39.07628658352259,39.07628658352259 0 0,0 -0.6627171265606907,0.11522186720820256 l -2.942946223683906 -17.83511155485559" fill="#ffd814" stroke="none" /><path d="M 103.41894727170886 120.7198165907248 l 2.1474644414808006 13.014260187857738 a34.190245326175074,34.190245326175074 0 0,0 -0.5815014021398216,0.09081855983389293 l -1.923127175732462 -13.049297055038737" fill="#ff980e" stroke="none" /><path d="M 103.06178313531738 120.77559828337769 l 2.6074347547097134 17.692636813205 a38.88373879825035,38.88373879825035 0 0,0 -0.6630073872101334,0.09188678253025338 l -2.3024987763127496 -17.734898161227854" fill="#ffd614" stroke="none" /><path d="M 102.70371172650421 120.8252237178851 l 1.929357745906199 14.860795363816889 a35.98551501140117,35.98551501140117 0 0,0 -0.6149625954745132,0.07446340611268501 l -1.6732677273803056 -14.891804298654925" fill="#ffb010" stroke="none" /><path d="M 102.34483914955558 120.86867818915974 l 1.7540077674702037 15.610377218223963 a36.708609745728346,36.708609745728346 0 0,0 -0.6285342613566576,0.06515014611116178 l -1.4850409095079435 -15.638256732790884" fill="#ffb911" stroke="none" /><path d="M 101.98527174616119 120.90594882070398 l 1.2210336367065315 12.85812220251695 a33.91596801315442,33.91596801315442 0 0,0 -0.581668028534937,0.05018876503341467 l -0.9995212904300527 -12.877235219829029" fill="#ff940d" stroke="none" /><path d="M 101.62511606390274 120.93702456842531 l 2.7033384708349493 34.82819795942176 a55.9329559583578,55.9329559583578 0 0,0 -0.9605479437283732,0.06624501003724145 l -2.1034277663276457 -34.86957131397528" fill="#60ff29" stroke="none" /><path d="M 101.26447882468166 120.96189622390904 l 0.7807155164099755 12.942310551939432 a33.96583661552181,33.96583661552181 0 0,0 -0.5839082040248423,0.030181384510910257 l -0.5578192439716536 -12.953831743212543" fill="#ff940d" stroke="none" /><path d="M 100.90346689309514 120.98055641714683 l 0.5900011234315568 13.701168189936347 a34.713865651032684,34.713865651032684 0 0,0 -0.5972101511627836,0.02056912512882375 l -0.35407062059412087 -13.709294113491264" fill="#ff9f0e" stroke="none" /><line stroke="#e1ed5e" stroke-width="0.3" x1="102.19456741930631" x2="102.32365962044197" y1="184.97166512339345" y2="189.96999836594603" /><path d="M 102.22038585953345 185.97133177190398 a86.0,86.0 0 0,1 -42.740103519485714,-10.115201625700543" fill="none" id="id67" stroke="none" /><text fill="#e1ed5e" style="font-size:6.75px; font-family:Arial;" text-anchor="middle"><textPath startOffset="22.20632615414155" xlink:href="#id67">July</textPath></text><path d="M 100.54218724476979 120.99299961872073 l 0.3276762652407409 12.68732855230373 a33.691559302501155,33.691559302501155 0 0,0 -0.5798803639188373,0.009983166345731102 l -0.10923621142923554 -12.691089195928623" fill="#ff910d" stroke="none" /><path d="M 100.18074693466247 120.99922214144158 l 0.14250067659923848 16.55576272317604 a37.556375985974,37.556375985974 0 0,0 -0.6464952225233764,0.0 l 0.14250067659922708 -16.55576272317604" fill="#ffc412" stroke="none" /><path d="M 99.81925306533755 120.99922214144158 l -0.129194890531227 15.009893312277079 a36.01044931258487,36.01044931258487 0 0,0 -0.619791807935478,-0.010670278049296607 l 0.3875463883593729 -15.005445556948622" fill="#ffb010" stroke="none" /><path d="M 99.45781275523022 120.99299961872073 l -0.4287473333012331 16.600708871973058 a37.6062445883414,37.6062445883414 0 0,0 -0.6469700390339685,-0.02228295627858818 l 0.7144377240098446 -16.590869117268376" fill="#ffc512" stroke="none" /><path d="M 99.09653310690486 120.98055641714683 l -0.8174197382815339 18.98234574678454 a39.99993750197619,39.99993750197619 0 0,0 -0.6876407000441975,-0.03554316968032014 l 1.1440485067392203 -18.965462770342015" fill="#ffe415" stroke="none" /><path d="M 98.73552117531835 120.96189622390904 l -0.9278503637333835 15.381438309804944 a36.409398131524,36.409398131524 0 0,0 -0.6252659439930285,-0.04312200031888932 l 1.1924790685053421 -15.36318796496977" fill="#ffb510" stroke="none" /><path d="M 98.37488393609728 120.93702456842531 l -1.0149579126760677 13.076111439440288 a34.115442422623985,34.115442422623985 0 0,0 -0.5850890686318712,-0.05048394676796414 l 1.2398912990494806 -13.05670324039366" fill="#ff970d" stroke="none" /><path d="M 98.01472825383883 120.90594882070398 l -1.5416138965368062 16.233999846421014 a37.307032974137044,37.307032974137044 0 0,0 -0.6387806178504746,-0.06621222285656411 l 1.8208271109928742 -16.20505825510869" fill="#ffc112" stroke="none" /><path d="M 97.65516085044442 120.86867818915974 l -1.6036642445441827 14.27234488523334 a35.36215748180877,35.36215748180877 0 0,0 -0.6043099324742527,-0.07317351697633136 l 1.8491016000698248 -14.242625839531659" fill="#ffa70f" stroke="none" /><path d="M 97.2962882734958 120.8252237178851 l -1.7784761917338252 13.698636658160664 a34.81360285576747,34.81360285576747 0 0,0 -0.5936074200203247,-0.08226857945168341 l 2.014012202940981 -13.665993513216375" fill="#ffa00e" stroke="none" /><path d="M 96.93821686468263 120.77559828337769 l -2.824706645641051 19.16692592016087 a40.37395201973163,40.37395201973163 0 0,0 -0.6866727478970769,-0.10724416108320801 l 3.154215257146645 -19.11546345173056" fill="#ffe915" stroke="none" /><line stroke="#e1ed5e" stroke-width="0.3" x1="58.666819895761336" x2="56.23545636021788" y1="174.27360380694188" y2="178.64263932499728" /><path d="M 58.180547188652646 175.14741091055294 a86.0,86.0 0 0,1 -31.652253787137756,-30.449443065178592" fill="none" id="id68" stroke="none" /><text fill="#e1ed5e" style="font-size:6.75px; font-family:Arial;" text-anchor="middle"><textPath startOffset="22.20632615414155" xlink:href="#id68">August</textPath></text><line stroke="#e1ed5e" stroke-width="0.3" x1="26.63291911575756" x2="22.317208475507996" y1="142.92168965132927" y2="145.44649492493687" /><path d="M 25.769776987707644 143.4266507060508 a86.0,86.0 0 0,1 -11.730757126820373,-40.83630448921669" fill="none" id="id69" stroke="none" /><text fill="#e1ed5e" style="font-size:6.75px; font-family:Arial;" text-anchor="middle"><textPath startOffset="21.46611528233685" xlink:href="#id69">September</textPath></text><line stroke="#e1ed5e" stroke-width="0.3" x1="15.007084014347285" x2="10.007500721073583" y1="101.09737516637583" y2="101.16192664675087" /><path d="M 14.007167355692545 101.11028546245083 a86.0,86.0 0 0,1 10.666146001902534,-42.60595125391555" fill="none" id="id70" stroke="none" /><text fill="#e1ed5e" style="font-size:6.75px; font-family:Arial;" text-anchor="middle"><textPath startOffset="22.20632615414155" xlink:href="#id70">October</textPath></text><line stroke="#e1ed5e" stroke-width="0.3" x1="26.266209847984243" x2="21.928928074336255" y1="57.711370442889674" y2="55.22380399835377" /><path d="M 25.398753493254645 57.213857153982495 a86.0,86.0 0 0,1 29.58750427330803,-30.492523968695096" fill="none" id="id71" stroke="none" /><text fill="#e1ed5e" style="font-size:6.75px; font-family:Arial;" text-anchor="middle"><textPath startOffset="21.46611528233685" xlink:href="#id71">November</textPath></text><line stroke="#e1ed5e" stroke-width="0.3" x1="56.762969772571076" x2="54.21961505331055" y1="26.818313649435495" y2="22.513508569990535" /><path d="M 56.25429882871897 25.957352633546506 a86.0,86.0 0 0,1 42.265352541879196,-11.944610805530505" fill="none" id="id72" stroke="none" /><text fill="#e1ed5e" style="font-size:6.75px; font-family:Arial;" text-anchor="middle"><textPath startOffset="22.20632615414155" xlink:href="#id72">December</textPath></text></svg>