<?xml version="1.0" encoding="utf-8" ?>
<svg baseProfile="full" height="200mm" version="1.1" viewBox="0,0,200,200" width="200mm" xmlns="http://www.w3.org/2000/svg" xmlns:ev="http://www.w3.org/2001/xml-events" xmlns:xlink="http://www.w3.org/1999/xlink"><defs /><rect fill="#1a1a1a" height="200" width="200" x="0" y="0" /><rect fill="#1a1a1a" height="200" width="180" x="10" y="0" /><text alignment-baseline="middle" fill="#e1ed5e" style="dominant-baseline: central; font-size:9.0px; font-family:Arial;" text-anchor="middle" x="100.0" y="100.0">2024</text><line stroke="#e1ed5e" stroke-width="0.3" x1="100.0" x2="100.0" y1="15.0" y2="10.0" /><path d="M 100.0 14.0 a86.0,86.0 0 0,1 42.35913384403234,11.155469271406648" fill="none" id="id37" stroke="none" /><text fill="#e1ed5e" style="font-size:6.75px; font-family:Arial;" text-anchor="middle"><textPath startOffset="22.145653131862478" xlink:href="#id37">January</textPath></text><path d="M 100.36049292484886 79.00309439819443 l 0.15860807029341878 -9.238124939710685 a30.239486399235986,30.239486399235986 0 0,0 0.5189480136963595,0.01336625999748454 l -0.3171693980605195 9.234040962363157" fill="#ff710a" stroke="none" /><path d="M 100.72087961077811 79.0123766808444 l 0.05225890257195027 -1.5214609289180414 a22.522358154680486,22.522358154680486 0 0,0 0.3862844389446475,0.01658871588792616 l -0.078369102117434 1.5203396446042843" fill="#ff0400" stroke="none" /><path d="M 101.08105385017728 79.02784411241856 l 0.08744931774981289 -1.696493402073328 a22.698745786294477,22.698745786294477 0 0,0 0.38896532717654947,0.023399188196827986 l -0.11655899705882473 1.694742236051808" fill="#ff0601" stroke="none" /><path d="M 101.80034050326958 79.07731436759882 l 0.1281929205753859 -1.489796053928223 a22.49530120951792,22.49530120951792 0 0,0 0.38445587742293463,0.03640837130922057 l -0.1537483613833335 1.4873759271138185" fill="#ff0300" stroke="none" /><path d="M 102.51750503828377 79.15144685158666 l 0.8647188026598208 -7.161112149342798 a28.2131314852246,28.2131314852246 0 0,0 0.4803247723751896,0.062187658220922315 l -0.9875213969258022 7.145212894921478" fill="#ff5507" stroke="none" /><path d="M 102.87502721639298 79.19773525538626 l 0.9569664514596052 -6.924132530457135 a27.989949648499188,27.989949648499188 0 0,0 0.47539582547260695,0.06986681519012623 l -1.0756873825398943 6.906684641968127" fill="#ff5207" stroke="none" /><path d="M 103.23170211078529 79.25015418208739 l 1.0865265471293928 -6.976279854124739 a28.060383880546695,28.060383880546695 0 0,0 0.47531951520368765,0.07821364534647826 l -1.2061235653861508 6.956600210282592" fill="#ff5307" stroke="none" /><path d="M 103.58742460773223 79.30868818359171 l 1.650377630874038 -9.518939604092946 a30.66095013499493,30.66095013499493 0 0,0 0.5178273356764683,0.09436539029638352 l -1.81353970010156 9.489206039865197" fill="#ff770a" stroke="none" /><path d="M 103.94208987418118 79.37332000966035 l 1.3233098816789315 -6.924116478474556 a28.049435300109646,28.049435300109646 0 0,0 0.47217018845051417,0.09444726158746904 l -1.4419765556604025 6.900379820224227" fill="#ff5307" stroke="none" /><path d="M 104.29559338865022 79.4440306129975 l 1.8224768046759168 -8.721211254404144 a29.90959861315465,29.90959861315465 0 0,0 0.5016802254947281,0.10933887015893476 l -1.9719194467897792 8.688640926111491" fill="#ff6c0a" stroke="none" /><path d="M 104.64783097203109 79.52079915486377 l 1.5980983123126773 -7.0415160329771345 a28.220586282185863,28.220586282185863 0 0,0 0.47150934900134767,0.11127492251092197 l -1.71873981505391 7.013044966819985" fill="#ff5507" stroke="none" /><path d="M 104.9986988182912 79.60360301121754 l 1.687204726393799 -6.88437104371134 a28.088104433221673,28.088104433221673 0 0,0 0.4673254767761898,0.11879230873444634 l -1.8051354963953832 6.854393503141626" fill="#ff5307" stroke="none" /><path d="M 105.3480935250658 79.69241777938227 l 1.7860849234711653 -6.782055374760883 a28.013299826770133,28.013299826770133 0 0,0 0.4639784143306477,0.12645938004618093 l -1.9022447387365056 6.75039550057056" fill="#ff5207" stroke="none" /><path d="M 105.69591212413111 79.78721728523813 l 1.8681344708367071 -6.6293501932737735 a27.887540227554926,27.887540227554926 0 0,0 0.45966632519397,0.1338021680151623 l -1.9816608084122815 6.5963043309560945" fill="#ff5107" stroke="none" /><path d="M 106.04205211174951 79.88797359093562 l 3.989108632105122 -13.278445249008982 a34.864706845428245,34.864706845428245 0 0,0 0.5717137325908483,0.17711837578053563 l -4.2164629975676 13.2080102854218" fill="#ffaf10" stroke="none" /><path d="M 106.38641147887787 79.99465700312896 l 2.171361668880635 -6.801759501385561 a28.139940042589494,28.139940042589494 0 0,0 0.4589185537401296,0.1508556438950992 l -2.287802960268507 6.763482936088441" fill="#ff5407" stroke="none" /><path d="M 107.06938296918511 80.22567764915836 l 2.3569224328099705 -6.592731522039268 a28.00137074264555,28.00137074264555 0 0,0 0.4512365537079073,0.1657003127990751 l -2.4697481381720023 6.551300360231471" fill="#ff5207" stroke="none" /><path d="M 107.40779381753099 80.34994680014964 l 2.4998025391356524 -6.631023229465188 a28.086570524899614,28.086570524899614 0 0,0 0.44968971723347717,0.17394964306130103 l -2.6132645188626555 6.587133698265848" fill="#ff5307" stroke="none" /><path d="M 107.74402155503746 80.48000691201159 l 2.620570352315963 -6.605549171091823 a28.106382259852708,28.106382259852708 0 0,0 0.44695242703590377,0.181771661063889 l -2.7335772405423064 6.559590253448641" fill="#ff5407" stroke="none" /><path d="M 108.07796709384702 80.6158196554323 l 2.723308504406765 -6.5349490249254725 a28.079686996509704,28.079686996509704 0 0,0 0.4433447289635997,0.18923750188739913 l -2.8350883085407945 6.487236873378672" fill="#ff5307" stroke="none" /><path d="M 108.4095320186766 80.7573450057729 l 3.6346455130776767 -8.316780229760722 a30.07631430680287,30.07631430680287 0 0,0 0.47131961570810665,0.21081526916274854 l -3.776878531641415 8.25316120968812" fill="#ff6f0a" stroke="none" /><path d="M 108.73861861582097 80.90454125486305 l 3.457679447301069 -7.55565360414148 a29.3092387464836,29.3092387464836 0 0,0 0.45570463040768944,0.2132927769065026 l -3.586872791580263 7.495184595664444" fill="#ff6409" stroke="none" /><path d="M 109.06512990194946 81.05736502329252 l 5.437222431912449 -11.361703685319956 a33.595701584552764,33.595701584552764 0 0,0 0.5180773155717878,0.2534175762315166 l -5.631459996746304 11.266692358991218" fill="#ff9e0e" stroke="none" /><path d="M 109.3889696526874 81.21577127319529 l 3.166616567356582 -6.335354367056628 a28.082667254702898,28.082667254702898 0 0,0 0.4293609522457411,0.21923476153458224 l -3.2749047413159023 6.280061653849213" fill="#ff5307" stroke="none" /><path d="M 109.71004243097381 81.37971332152246 l 3.3181548702697716 -6.362999478861519 a28.176204714965074,28.176204714965074 0 0,0 0.42695159376139813,0.22732767553378866 l -3.426895279817729 6.305101335605157" fill="#ff5507" stroke="none" /><path d="M 110.02825361518725 81.54914285379988 l 3.383260117146479 -6.224817551020855 a28.084829042663717,28.084829042663717 0 0,0 0.4216145514448611,0.23386248453567202 l -3.4896188567474407 6.165822151052037" fill="#ff5307" stroke="none" /><path d="M 110.34350942703115 81.72400993836675 l 3.7555352733937073 -6.635670979647073 a28.624708160961617,28.624708160961617 0 0,0 0.4255642615785795,0.2456996409798772 l -3.868892002832684 6.570224441391024" fill="#ff5b08" stroke="none" /><line stroke="#e1ed5e" stroke-width="0.3" x1="143.13028292997686" x2="145.6673583964461" y1="26.7553504044142" y2="22.446841604673864" /><path d="M 143.63769802327073 25.89364864446614 a86.0,86.0 0 0,1 29.32050498858742,28.57503671076993" fill="none" id="id38" stroke="none" /><text fill="#e1ed5e" style="font-size:6.75px; font-family:Arial;" text-anchor="middle"><textPath startOffset="20.669276256404974" xlink:href="#id38">February</textPath></text><path d="M 110.65571695917076 81.90426304109057 l 4.280784478992778 -7.269707914207195 a29.436454759759705,29.436454759759705 0 0,0 0.433230663300987,0.2601425655842452 l -4.404947898851199 7.195151348087029" fill="#ff6609" stroke="none" /><path d="M 110.96478420261332 82.08984904055464 l 4.853894286590394 -7.9284715328281266 a30.296286925018013,30.296286925018013 0 0,0 0.44122339553093926,0.27535603155254623 l -4.989281810911046 7.843979704434035" fill="#ff720a" stroke="none" /><path d="M 111.27062007382361 82.28071324371311 l 3.7549220977331133 -5.903361213619477 a27.996364311448573,27.996364311448573 0 0,0 0.40330011660858806,0.26141426305191134 l -3.8557078465987087 5.83803310886367" fill="#ff5207" stroke="none" /><path d="M 111.5731344415666 82.4767994020092 l 4.6117636193301506 -6.982797911842024 a29.36826328207965,29.36826328207965 0 0,0 0.4182931695149798,0.2814463122807085 l -4.730953076942131 6.902601925504197" fill="#ff6509" stroke="none" /><path d="M 111.8722381534696 82.67804972795209 l 4.003181452699961 -5.840761376016378 a28.080957223060008,28.080957223060008 0 0,0 0.3952794666512466,0.2759357666729955 l -4.102856010524968 5.771180793538255" fill="#ff5307" stroke="none" /><path d="M 112.16784306229584 82.88440491214696 l 3.754064874126034 -5.280562379882459 a27.4789923697267,27.4789923697267 0 0,0 0.38211369465471606,0.27662084716216145 l -3.844159579154718 5.215340761347223" fill="#ff4b07" stroke="none" /><path d="M 112.45986205192187 83.09580414077388 l 3.7699075941726297 -5.114603683212402 a27.353847189296445,27.353847189296445 0 0,0 0.37559047994406025,0.2818500982329265 l -3.857151063027456 5.049134557715461" fill="#ff4906" stroke="none" /><path d="M 112.7482090630111 83.31218511350987 l 7.248989889916924 -9.489160461602848 a32.94119008684497,32.94119008684497 0 0,0 0.4464159576474645,0.34713574878944864 l -7.410815792199615 9.36332366119261" fill="#ff950d" stroke="none" /><path d="M 113.03279911837588 83.53348406188908 l 6.277069826185172 -7.930872669692001 a31.11436339596674,31.11436339596674 0 0,0 0.4159682644906749,0.3350745890252287 l -6.412288861031106 7.821949786873364" fill="#ff7d0b" stroke="none" /><path d="M 113.31354834802062 83.75963576809568 l 0.9334445829608815 -1.1386506152461282 a22.472360014758415,22.472360014758415 0 0,0 0.2962345725732932,0.2471294163883105 l -0.9528534896960674 1.1224590149459475" fill="#ff0300" stroke="none" /><path d="M 113.86319453409587 84.22622945171908 l 0.870683346289252 -0.9906778189397877 a22.318913200496812,22.318913200496812 0 0,0 0.28561297810794856,0.25539688620114603 l -0.8875613512205762 0.9755854028552547" fill="#ff0100" stroke="none" /><path d="M 114.39649973595853 84.71141617570332 l 8.845985262355775 -9.394129800469502 a33.9035316859333,33.9035316859333 0 0,0 0.4202867678183639,0.4026252162986747 l -9.00594451603945 9.240892453865248" fill="#ffa20f" stroke="none" /><path d="M 114.65682725009322 84.96080404539774 l 5.858777480799127 -6.011621825425327 a29.39433562239735,29.39433562239735 0 0,0 0.35834225817835186,0.3552795222386784 l -5.9611116591074405 5.910162292957989" fill="#ff6509" stroke="none" /><path d="M 114.91283532996326 85.21462403516908 l 7.055270379606464 -6.994969285714896 a30.93511124434181,30.93511124434181 0 0,0 0.3706515379497302,0.3803211305547187 l -7.174308718707006 6.872825463092436" fill="#ff7a0b" stroke="none" /><path d="M 115.16444852881244 85.47280134310134 l 9.220403321848684 -8.832937808369731 a33.768579707394466,33.768579707394466 0 0,0 0.3974146417949836,0.42204057760717667 l -9.370673797379927 8.67335577081806" fill="#ffa00e" stroke="none" /><path d="M 115.41159269507618 85.73525988315684 l 5.14684732384421 -4.763845044981214 a28.013148863923707,28.013148863923707 0 0,0 0.3236216343355542,0.35571686630084515 l -5.227866659021641 4.674790603122697" fill="#ff5207" stroke="none" /><path d="M 115.6541949942343 86.00192230759917 l 6.381750970031923 -5.706601069231841 a29.561077105531837,29.561077105531837 0 0,0 0.3350099661230286,0.3811798445167409 l -6.478772000113541 5.596208946903801" fill="#ff6809" stroke="none" /><path d="M 115.8921839302757 86.27271002978787 l 9.045892641442842 -7.813626615026201 a32.95328133022709,32.95328133022709 0 0,0 0.3661037945057887,0.43126934937292466 l -9.178690999455743 7.657190483203724" fill="#ff950d" stroke="none" /><path d="M 116.35404254752997 86.82634096563983 l 5.631167194280863 -4.536069682302186 a28.230903963727222,28.230903963727222 0 0,0 0.3007714719057163,0.38001492932408304 l -5.708205096828138 4.438734809063424" fill="#ff5507" stroke="none" /><path d="M 116.57777611688842 87.10902102172516 l 5.615642609563407 -4.36675765910717 a28.1136498628844,28.1136498628844 0 0,0 0.2929817467545532,0.3835225113421299 l -5.689776333672268 4.269714234524159" fill="#ff5407" stroke="none" /><path d="M 116.7966241395341 87.39550010848427 l 5.6620872613592255 -4.248935838456793 a28.07903156615147,28.07903156615147 0 0,0 0.2860022925734193,0.388017038206536 l -5.73419157351647 4.151112490981383" fill="#ff5307" stroke="none" /><path d="M 117.01052211995028 87.68569379921539 l 5.210618394556503 -3.772085886226579 a27.432664765613108,27.432664765613108 0 0,0 0.27286997507741495,0.3838257923895675 l -5.274603468163878 3.6820828671275074" fill="#ff4a06" stroke="none" /><path d="M 117.21940702142032 87.97951657250589 l 5.818894423811455 -4.062040225935381 a28.096457081712057,28.096457081712057 0 0,0 0.27268315773241236,0.397852876366491 l -5.887767318359192 3.9615526144988413" fill="#ff5307" stroke="none" /><path d="M 117.42321728460499 88.27688183743584 l 5.915368227919469 -3.9801237382404526 a28.129724135167102,28.129724135167102 0 0,0 0.26612803455045553,0.40295176364903257 l -5.982820701390649 3.877992096252361" fill="#ff5407" stroke="none" /><path d="M 117.62189284568427 88.57770195909679 l 5.980922211079396 -3.8767615177695163 a28.12746170530866,28.12746170530866 0 0,0 0.25915077235464296,0.407428057940677 l -6.046590675059929 3.7735197851501674" fill="#ff5407" stroke="none" /><path d="M 117.81537515405839 88.88188828441811 l 6.071929014478959 -3.7893327829631236 a28.15732945286931,28.15732945286931 0 0,0 0.2523862589720687,0.41225398646715294 l -6.136083237906431 3.684541680371416" fill="#ff5407" stroke="none" /><line stroke="#e1ed5e" stroke-width="0.3" x1="172.87174338648825" x2="177.1583165268699" y1="56.24261187166439" y2="53.66864786411523" /><path d="M 173.72905801456457 55.72781907015455 a86.0,86.0 0 0,1 12.242430191666344,42.057860355516425" fill="none" id="id39" stroke="none" /><text fill="#e1ed5e" style="font-size:6.75px; font-family:Arial;" text-anchor="middle"><textPath startOffset="22.145653131862474" xlink:href="#id39">March</textPath></text><path d="M 118.00360718960297 89.18935116829356 l 7.223961123852079 -4.3377810936113 a29.426266025649667,29.426266025649667 0 0,0 0.25632560327650283,0.4352969124929086 l -7.29736043725835 4.2131330128248345" fill="#ff6609" stroke="none" /><path d="M 118.18653347947321 89.5 l 27.328984271654313 -15.778396425918672 a52.556792851837336,52.556792851837336 0 0,0 0.44439680247473123,0.7852065686936681 l -27.595814439150423 15.306933087125886" fill="#7eff26" stroke="none" /><path d="M 118.36410011445183 89.81374322990088 l 6.1286351830414665 -3.3994506257126917 a28.008311762719472,28.008311762719472 0 0,0 0.22960767235121404,0.42245225587513363 l -6.186088205008022 3.2937435363629546" fill="#ff5207" stroke="none" /><path d="M 118.53625476483649 90.13048839642627 l 6.1541399985730925 -3.276732915926239 a27.97211716226511,27.97211716226511 0 0,0 0.2220345821255745,0.42578058758281834 l -6.209482649673612 3.170606085238922" fill="#ff5207" stroke="none" /><path d="M 118.70294669586156 90.45014215332178 l 5.777147459824827 -2.9498526567919434 a27.486683549344992,27.486683549344992 0 0,0 0.21096695428594986,0.4220752297319836 l -5.8269343273225145 2.850245570896209" fill="#ff4b07" stroke="none" /><path d="M 118.8641267826498 90.77261029715802 l 9.044586450571327 -4.424160462981298 a31.068651342859447,31.068651342859447 0 0,0 0.23023459886478878,0.48110176163791074 l -9.119200307396028 4.268246199278283" fill="#ff7c0b" stroke="none" /><path d="M 119.0197475246899 91.09779779509293 l 6.289685388177215 -2.9438903465000608 a27.94453977268949,27.94453977268949 0 0,0 0.19962452801806257,0.4362156202108371 l -6.339294381050329 2.8354857440745396" fill="#ff5107" stroke="none" /><path d="M 119.16976305983485 91.42560881287824 l 7.7329024823062875 -3.458828921786905 a29.47120288454056,29.47120288454056 0 0,0 0.2026020548919708,0.46359315057595935 l -7.791138419215229 3.3255737014350966" fill="#ff6609" stroke="none" /><path d="M 119.31412917781788 91.75594674310238 l 10.294100847115551 -4.393939526559774 a32.192641190248594,32.192641190248594 0 0,0 0.21258511091417848,0.5101268773017323 l -10.368011802566214 4.216580139816764" fill="#ff8b0c" stroke="none" /><path d="M 119.4528033332814 92.08871423366111 l 19.569427632473655 -7.958715853529993 a42.12590012046476,42.12590012046476 0 0,0 0.2666796657266326,0.6722069656824138 l -19.703165973166413 7.621607870634015" fill="#f4ff19" stroke="none" /><path d="M 119.58574465831526 92.42381321644754 l 9.093399879393832 -3.5175224218279526 a30.750019761755468,30.750019761755468 0 0,0 0.18621233265689907,0.4939503357284099 l -9.152442895865171 3.360903805905385" fill="#ff780b" stroke="none" /><path d="M 119.71291397450082 92.76114493625339 l 12.2842408009062 -4.510943376557513 a34.08629749780879,34.08629749780879 0 0,0 0.19698606038883992,0.5510050698527004 l -12.359867031338982 4.299403350323896" fill="#ffa40f" stroke="none" /><path d="M 119.83427380445688 93.10060997987247 l 7.52665587726993 -2.6181616204623284 a28.969022459856912,28.969022459856912 0 0,0 0.15934973413862197,0.4710891743886447 l -7.570491032980917 2.4885707715995222" fill="#ff6008" stroke="none" /><path d="M 119.94978838288452 93.4421083053983 l 6.649387598152302 -2.185785777132414 a27.999429612045255,27.999429612045255 0 0,0 0.1461774011233935,0.4578986270359378 l -6.685929715052953 2.0713181164050893" fill="#ff5207" stroke="none" /><path d="M 120.05942366710727 93.78553927170692 l 7.776583651888363 -2.4092054939839347 a29.14122376593714,29.14122376593714 0 0,0 0.1439349985047978,0.4791127977012581 l -7.8167949703967885 2.275355092691953" fill="#ff6209" stroke="none" /><path d="M 120.16314734710363 94.1308016681162 l 8.629121569063614 -2.511811526589166 a29.987265223569686,29.987265223569686 0 0,0 0.13962857200571854,0.49549254363797235 l -8.670968633143914 2.3633110590481805" fill="#ff6d0a" stroke="none" /><path d="M 120.26092885502905 94.47779374421319 l 10.410997263911703 -2.837563599927569 a31.79076601603477,31.79076601603477 0 0,0 0.13898698731178516,0.5277562292434484 l -10.45817373202822 2.6584268663113217" fill="#ff860c" stroke="none" /><path d="M 120.35273937422433 94.82641323984039 l 11.245186156468074 -2.858482347015787 a32.60280711818576,32.60280711818576 0 0,0 0.13322512006303752,0.5436039530408803 l -11.292598803047403 2.665022569366812" fill="#ff910d" stroke="none" /><path d="M 120.43855184770803 95.1765574152323 l 6.82903153756221 -1.6116328483758529 a28.01662541247453,28.01662541247453 0 0,0 0.10644868589156818,0.4690325511389243 l -6.855691085011445 1.4941659632979023" fill="#ff5207" stroke="none" /><path d="M 120.51834098615036 95.52812308129327 l 8.942412210093531 -1.9489571202111737 a30.152331396515955,30.152331396515955 0 0,0 0.10588104481720968,0.5066791288200508 l -8.974550965735107 1.7951615401057186" fill="#ff700a" stroke="none" /><path d="M 120.592083275326 95.88100663000786 l 1.7173260759814386 -0.3435133117181012 a22.751345267665215,22.751345267665215 0 0,0 0.07331751856341469,0.38362823815817576 l -1.7229698868270102 0.3139825085266109" fill="#ff0701" stroke="none" /><path d="M 120.7213421655516 96.59031103205396 l 6.722219122376609 -1.1061385984826868 a27.812618624897404,27.812618624897404 0 0,0 0.07347631338270488,0.47177064026772203 l -6.740216927897579 0.9905797762835236" fill="#ff4f07" stroke="none" /><path d="M 120.77682067341334 96.94652285012252 l 24.96434318148711 -3.668898753307066 a46.232503810463996,46.232503810463996 0 0,0 0.10865845602040138,0.7861984596143231 l -25.023646154062725 3.2398119854926573" fill="#c4ff1e" stroke="none" /><path d="M 120.82617615685814 97.30363454192243 l 3.8616765893999965 -0.49997134795655146 a24.89390773258657,24.89390773258657 0 0,0 0.0512315598593723,0.4242708087418037 l -3.8696902355190326 0.4336068622913348" fill="#ff2603" stroke="none" /><path d="M 120.86939407059847 97.66154086499901 l 4.512121331099009 -0.5055926065341051 a25.540359323923674,25.540359323923674 0 0,0 0.04508190549030588,0.436126540610857 l -4.520135629070981 0.4280615436403166" fill="#ff2f04" stroke="none" /><path d="M 120.9064616781168 98.02013634271609 l 8.446637973991205 -0.7999053980733581 a29.484429368527806,29.484429368527806 0 0,0 0.0433931856478825,0.5042945933006708 l -8.45912478233683 0.6547897573970252" fill="#ff6709" stroke="none" /><path d="M 120.93736805541906 98.37931529534042 l 6.973542430356423 -0.5397962878743032 a27.994403052468755,27.994403052468755 0 0,0 0.0329747924317457,0.47944624498544614 l -6.981781183953235 0.420006618734523" fill="#ff5207" stroke="none" /><path d="M 120.96210409425399 98.7389718711861 l 5.8154990863183915 -0.34984598387474414 a26.826012515898274,26.826012515898274 0 0,0 0.023707054929198095,0.4599105322358206 l -5.820647730704162 0.24996365826219288" fill="#ff4206" stroke="none" /><path d="M 120.98066250479742 99.09900007780936 l 6.6270229646447065 -0.28459288042668646 a27.633130971232053,27.633130971232053 0 0,0 0.01628422119171841,0.47409733235305257 l -6.630931872833273 0.17078928350951394" fill="#ff4d07" stroke="none" /><path d="M 120.99303781780057 99.45929381324524 l 14.449113083384066 -0.37215789849529607 a35.45390502244404,35.45390502244404 0 0,0 0.01044804363456157,0.6085461622037982 l -14.453372558617295 0.12406482032243148" fill="#ffb610" stroke="none" /><line stroke="#e1ed5e" stroke-width="0.3" x1="184.99686870605535" x2="189.99668451229388" y1="99.2704041080226" y2="99.22748670261217" /><path d="M 185.99683186730306 99.26182062694052 a86.0,86.0 0 0,1 -10.086455211305974,41.156179273409016" fill="none" id="id40" stroke="none" /><text fill="#e1ed5e" style="font-size:6.75px; font-family:Arial;" text-anchor="middle"><textPath startOffset="21.40746469413373" xlink:href="#id40">April</textPath></text><path d="M 120.99922638620191 99.81974689727618 l 7.016868861722146 -0.0602313799789649 a28.017127363938894,28.017127363938894 0 0,0 0.0,0.4809689654055827 l -7.016868861722146 -0.06023137997896404" fill="#ff5207" stroke="none" /><path d="M 120.99922638620191 100.18025310272382 l 7.087475232117979 0.060837450750422524 a28.08773633548114,28.08773633548114 0 0,0 -0.00827727988336634,0.4821100564557981 l -7.085386520635944 -0.18249442317529166" fill="#ff5307" stroke="none" /><path d="M 120.99303781780057 100.54070618675476 l 7.004856433720274 0.1804202537962283 a28.00717954137128,28.00717954137128 0 0,0 -0.01650464824571458,0.48051482552306074 l -7.000727098477714 -0.30064134388339975" fill="#ff5207" stroke="none" /><path d="M 120.98066250479742 100.90099992219065 l 6.4888929664914725 0.27866098396918487 a27.494873661170722,27.494873661170722 0 0,0 -0.024298150154460622,0.4713776216935552 l -6.4831532268804395 -0.3900103990394707" fill="#ff4b07" stroke="none" /><path d="M 120.96210409425399 101.26102812881392 l 17.78763224970452 1.070059785554804 a38.81978925227203,38.81978925227203 0 0,0 -0.04572608640515006,0.6648472608343894 l -17.766642202134303 -1.3752504705435367" fill="#ffe115" stroke="none" /><path d="M 120.93736805541906 101.62068470465957 l 1.6469196967427622 0.127482000376009 a22.651846284597674,22.651846284597674 0 0,0 -0.03333745275545495,0.3874317344528286 l -1.6444886212895664 -0.15573478220449494" fill="#ff0600" stroke="none" /><path d="M 120.82617615685814 102.69636545807757 l 11.859573353137797 1.5354592074939108 a32.95855823652391,32.95855823652391 0 0,0 -0.07746121787651887,0.560470785291956 l -11.831467618706068 -1.738818300985952" fill="#ff960d" stroke="none" /><path d="M 120.77682067341334 103.0534771498775 l 6.97193216487458 1.0246339365667243 a28.046822888052244,28.046822888052244 0 0,0 -0.07409504209959165,0.4757433224761759 l -6.9533156306367205 -1.1441654409743507" fill="#ff5307" stroke="none" /><path d="M 120.7213421655516 103.40968896794604 l 8.353838173015356 1.3746208923614232 a29.466179470023363,29.466179470023363 0 0,0 -0.08641333526037938,0.49840915433164923 l -8.329010020262743 -1.5178230796136603" fill="#ff6609" stroke="none" /><path d="M 120.65975698304385 103.76489593502545 l 7.0159513407981935 1.2785400479292466 a28.131496187379398,28.131496187379398 0 0,0 -0.09065536431667928,0.4743471734155303 l -6.9929696841993545 -1.3987897863780916" fill="#ff5407" stroke="none" /><path d="M 120.592083275326 104.11899336999214 l 12.918623891712478 2.5840865855056747 a34.17453402352109,34.17453402352109 0 0,0 -0.12000516049548034,0.5742681353279833 l -12.872361020392633 -2.8054711721190673" fill="#ffa60f" stroke="none" /><path d="M 120.51834098615036 104.47187691870673 l 13.031060570525213 2.840059000429653 a34.33695897566677,34.33695897566677 0 0,0 -0.1304626844475374,0.5748426596566161 l -12.980387024520011 -3.063335994025286" fill="#ffa80f" stroke="none" /><path d="M 120.43855184770803 104.8234425847677 l 7.1060359868184895 1.677005144156325 a28.30123918930795,28.30123918930795 0 0,0 -0.11564758749945031,0.4718816218337699 l -7.076200872802743 -1.7987425905981944" fill="#ff5608" stroke="none" /><path d="M 120.35273937422433 105.17358676015961 l 9.095790147298082 2.312114286632485 a30.385055720566335,30.385055720566335 0 0,0 -0.13284132102297122,0.5044201333289574 l -9.05475934547038 -2.4679149243342455" fill="#ff730a" stroke="none" /><path d="M 120.26092885502905 105.52220625578681 l 8.206638513253685 2.236755820087767 a29.505997430396693,29.505997430396693 0 0,0 -0.1373876629327507,0.48754034788980216 l -8.167032358246354 -2.377304091880578" fill="#ff6709" stroke="none" /><path d="M 120.16314734710363 105.8691983318838 l 6.804804903501235 1.9807795331199214 a28.087231993771702,28.087231993771702 0 0,0 -0.1387290982526567,0.46178404888918667 l -6.769799485244948 -2.097301185599832" fill="#ff5307" stroke="none" /><path d="M 119.83427380445688 106.89939002012753 l 52.386292552488094 18.22267190578468 a76.46520908444089,76.46520908444089 0 0,0 -0.4418954653353368,1.2360602636757945 l -52.065756917108814 -19.119267125841393" fill="#44ffe4" stroke="none" /><path d="M 119.71291397450082 107.23885506374661 l 1.7907113000785682 0.6575739933248634 a22.907629554427768,22.907629554427768 0 0,0 -0.13872131361279474,0.36797476544143964 l -1.7791593026513328 -0.6882170389604619" fill="#ff0901" stroke="none" /><line stroke="#e1ed5e" stroke-width="0.3" x1="174.33088141563837" x2="178.70328620479359" y1="141.23008692659167" y2="143.65538615756765" /><path d="M 175.20536237346943 141.71514677278685 a86.0,86.0 0 0,1 -30.301960400862466,31.631185727798858" fill="none" id="id41" stroke="none" /><text fill="#e1ed5e" style="font-size:6.75px; font-family:Arial;" text-anchor="middle"><textPath startOffset="22.145653131862474" xlink:href="#id41">May</textPath></text><path d="M 117.423217284605 111.72311816256416 l 2.0002847459154456 1.3458808469237897 a23.41091980763739,23.41091980763739 0 0,0 -0.2272088441614289,0.33150449385009745 l -1.9768861649386964 -1.3800200758439312" fill="#ff1101" stroke="none" /><path d="M 117.21940702142032 112.02048342749411 l 2.002873129027673 1.3981609950273761 a23.442612318604212,23.442612318604212 0 0,0 -0.23318132211295103,0.3279987316488683 l -1.9785767083847614 -1.4323369533857484" fill="#ff1101" stroke="none" /><path d="M 117.01052211995028 112.31430620078461 l 8.192246584854038 5.930554759392622 a31.113574237687047,31.113574237687047 0 0,0 -0.3169109853795188,0.42995061618434194 l -8.089233579890692 -6.070311684845842" fill="#ff7d0b" stroke="none" /><path d="M 116.79662413953412 112.60449989151573 l 1.5657688415206017 1.1749821290954092 a22.957604420911014,22.957604420911014 0 0,0 -0.23924887296183117,0.3131844546990374 l -1.545367991204466 -1.201687497035324" fill="#ff0a01" stroke="none" /><path d="M 116.57777611688842 112.89097897827486 l 3.879709009418974 3.016885191934348 a25.914645283138906,25.914645283138906 0 0,0 -0.2760940994216422,0.3488358753366097 l -3.82734847935577 -3.0830410111856406" fill="#ff3505" stroke="none" /><path d="M 116.35404254752997 113.17365903436017 l 10.352372260231625 8.339138286860935 a34.29333813538959,34.29333813538959 0 0,0 -0.3732310242746935,0.4552811630994609 l -10.207694416718304 -8.51562173165889" fill="#ffa70f" stroke="none" /><path d="M 116.1254893667686 113.45245675266167 l 13.512969435328179 11.272999708362896 a38.597751713922534,38.597751713922534 0 0,0 -0.42881263386955787,0.505140204464308 l -13.317462237951506 -11.50330669527676" fill="#ffde14" stroke="none" /><path d="M 115.89218393027572 113.72728997021213 l 8.508882006387193 7.3497696186033785 a32.243673174063936,32.243673174063936 0 0,0 -0.3654113082267892,0.4157709911334231 l -8.381459634201818 -7.494752887548095" fill="#ff8c0c" stroke="none" /><path d="M 115.6541949942343 113.99807769240083 l 6.461372866518644 5.777799460043245 a29.667889357892115,29.667889357892115 0 0,0 -0.3427380080663501,0.3767291097267743 l -6.361237157610414 -5.887866145327691" fill="#ff6909" stroke="none" /><path d="M 115.41159269507618 114.26474011684316 l 5.212810054271357 4.824899163498196 a28.103030381452562,28.103030381452562 0 0,0 -0.3307380958623166,0.3512323964310229 l -5.12921612467278 -4.913673019873716" fill="#ff5407" stroke="none" /><path d="M 115.16444852881244 114.52719865689866 l 5.054872499538868 4.842453508716264 a28.000077997470655,28.000077997470655 0 0,0 -0.33548519966526164,0.34423736948954065 l -4.971000498722798 -4.928513570273542" fill="#ff5207" stroke="none" /><path d="M 114.91283532996324 114.78537596483092 l 4.965190935109616 4.922753660751848 a27.991897069218084,27.991897069218084 0 0,0 -0.34124532479096126,0.3383287156090137 l -4.87995369018869 -5.007262386589524" fill="#ff5207" stroke="none" /><path d="M 114.65682725009322 115.03919595460226 l 4.861297126723974 4.98811910892119 a27.96516632960617,27.96516632960617 0 0,0 -0.3466715349023547,0.3321034884090762 l -4.774953105956307 -5.070834727635845" fill="#ff5207" stroke="none" /><path d="M 114.39649973595853 115.28858382429668 l 17.16886065679471 18.232735049023965 a46.04400933597375,46.04400933597375 0 0,0 -0.5800892418876381,0.536921942061667 l -16.853341643593104 -18.52477473721801" fill="#c6ff1e" stroke="none" /><path d="M 114.13192950727249 115.5334660781643 l 5.255230672026412 5.776419089469834 a28.809255208622567,28.809255208622567 0 0,0 -0.36866925836798314,0.3296663241601105 l -5.155296386835051 -5.8657809435133315" fill="#ff5d08" stroke="none" /><path d="M 113.86319453409587 115.77377054828091 l 8.105246350084187 9.222282486845117 a33.27784641794819,33.27784641794819 0 0,0 -0.43232758914840086,0.37343427463464135 l -7.94573928117293 -9.360060893944476" fill="#ff9a0e" stroke="none" /><path d="M 113.59037401385872 116.0094264158162 l 4.579691761116069 5.394865379123594 a28.076591629146108,28.076591629146108 0 0,0 -0.3701105320096636,0.30875936923967945 l -4.486406894944511 -5.472686932275144" fill="#ff5307" stroke="none" /><path d="M 113.31354834802062 116.24036423190432 l 6.982474381908905 8.517483411475421 a32.013740153043976,32.013740153043976 0 0,0 -0.42799204219115317,0.3447600932221676 l -6.8352315693625 -8.636091798490993" fill="#ff890c" stroke="none" /><path d="M 113.03279911837588 116.46651593811092 l 7.478300975060536 9.448588985170398 a33.04993026055648,33.04993026055648 0 0,0 -0.44788959441207304,0.3482816576508226 l -7.315001436013232 -9.575571694442013" fill="#ff970d" stroke="none" /><path d="M 112.7482090630111 116.68781488649013 l 3.869349757679653 5.0651030405985455 a27.37394197958659,27.37394197958659 0 0,0 -0.37586639769256636,0.2820571520553031 l -3.78183037107632 -5.130779219917863" fill="#ff4906" stroke="none" /><path d="M 112.45986205192187 116.90419585922612 l 3.899086100736274 5.28985913681651 a27.57156618381919,27.57156618381919 0 0,0 -0.38340099520981685,0.27755275349026337 l -3.807704095152489 -5.35601266167985" fill="#ff4c07" stroke="none" /><path d="M 112.16784306229584 117.11559508785304 l 4.018343879484141 5.652303897485205 a27.935101072321448,27.935101072321448 0 0,0 -0.393226333596925,0.27450252034673456 l -3.9207224547134576 -5.720451233637061" fill="#ff5107" stroke="none" /><path d="M 111.8722381534696 117.32195027204791 l 3.930436612243976 5.734624479785202 a27.95228378930403,27.95228378930403 0 0,0 -0.3981253255974665,0.26787648683072784 l -3.831414998549506 -5.801250640673051" fill="#ff5107" stroke="none" /><path d="M 111.5731344415666 117.5232005979908 l 4.562124968540522 6.907638667853969 a29.27819160168525,29.27819160168525 0 0,0 -0.42176541052580685,0.27338324347770265 l -4.442873925757706 -6.9849357530355665" fill="#ff6409" stroke="none" /><path d="M 111.27062007382361 117.71928675628689 l 3.7199236464713357 5.84833783514772 a27.931153393887406,27.931153393887406 0 0,0 -0.40677850629179363,0.2538598731343248 l -3.618981011389827 -5.911333505123592" fill="#ff5107" stroke="none" /><path d="M 110.96478420261333 117.91015095944535 l 10.429777635509295 17.03625793938536 a40.975343453954444,40.975343453954444 0 0,0 -0.6030541166869517,0.3621166699183783 l -10.135790762264907 -17.212788609839663" fill="#fffc17" stroke="none" /><line stroke="#e1ed5e" stroke-width="0.3" x1="143.1302829299769" x2="145.66735839644613" y1="173.24464959558577" y2="177.55315839532614" /><path d="M 143.63769802327073 174.10635135553383 a86.0,86.0 0 0,1 -40.68552437913181,11.842963189579606" fill="none" id="id42" stroke="none" /><text fill="#e1ed5e" style="font-size:6.75px; font-family:Arial;" text-anchor="middle"><textPath startOffset="21.407464694133747" xlink:href="#id42">June</textPath></text><path d="M 110.65571695917076 118.09573695890943 l 5.536772744367959 9.402650574076311 a31.91172260648856,31.91172260648856 0 0,0 -0.47443238863311066,0.27391366728960465 l -5.37454788787445 -9.496311138642088" fill="#ff880c" stroke="none" /><path d="M 110.34350942703117 118.27599006163325 l 21.704649383905956 38.35003576202615 a65.06605323632891,65.06605323632891 0 0,0 -0.9767834017379833,0.541805287319462 l -21.043121794011878 -38.71697396477876" fill="#35ff69" stroke="none" /><path d="M 110.02825361518725 118.45085714620011 l 1.152994906697116 2.1213807637998765 a23.414467560330774,23.414467560330774 0 0,0 -0.35479740238572277,0.18890963272723504 l -1.1164086885248394 -2.1408608642496803" fill="#ff1101" stroke="none" /><path d="M 109.71004243097381 118.62028667847754 l 1.8510722698967805 3.549675150554569 a25.003331390585274,25.003331390585274 0 0,0 -0.38228043219005775,0.19519511253216293 l -1.7898646159931404 -3.580928214759568" fill="#ff2803" stroke="none" /><path d="M 109.3889696526874 118.78422872680471 l 1.2967710764438127 2.594410825393725 a23.900445268509888,23.900445268509888 0 0,0 -0.3685673446799902,0.18028475742815286 l -1.252043482501753 -2.6162893329191013" fill="#ff1802" stroke="none" /><path d="M 108.73861861582097 119.09545874513695 l 8.587124107108556 18.764415903194493 a41.63593963498981,41.63593963498981 0 0,0 -0.6524680806374917,0.2918406734102094 l -8.263742623615437 -18.909060327514553" fill="#faff18" stroke="none" /><path d="M 108.4095320186766 119.2426549942271 l 7.372203359558024 16.869044018168992 a39.409617824974035,39.409617824974035 0 0,0 -0.6222308081761692,0.26559333187945006 l -7.081537476211423 -16.993111999707846" fill="#ffe815" stroke="none" /><path d="M 108.07796709384702 119.3841803445677 l 6.107267858904816 14.65521958857272 a36.8768442043656,36.8768442043656 0 0,0 -0.5864217908296684,0.2384926371472835 l -5.854791606884707 -14.757899482299296" fill="#ffc912" stroke="none" /><path d="M 107.74402155503746 119.51999308798841 l 0.5233108059442029 1.3190850828992897 a22.419098183898985,22.419098183898985 0 0,0 -0.35894869806227525,0.1388490675067692 l -0.5005898453883982 -1.3278740385440995" fill="#ff0200" stroke="none" /><path d="M 107.06938296918513 119.77432235084164 l 6.248124435688016 17.47711606769934 a39.56040530289347,39.56040530289347 0 0,0 -0.6414328410092732,0.22312363868078805 l -5.947185822633721 -17.581798138948717" fill="#ffea16" stroke="none" /><path d="M 106.72888874123015 119.89276391827305 l 0.910909433247868 2.6929418813982404 a23.842831681997485,23.842831681997485 0 0,0 -0.3888394152941127,0.12781923913933432 l -0.864547280306021 -2.7081820419395943" fill="#ff1702" stroke="none" /><path d="M 106.38641147887787 120.00534299687104 l 1.7028417837638734 5.334127634316717 a26.599338153720794,26.599338153720794 0 0,0 -0.436177678697569,0.13512895982494508 l -1.6110234721946801 -5.3625731819483065" fill="#ff3e05" stroke="none" /><path d="M 106.0420521117495 120.11202640906438 l 3.4720395914588273 11.55729058028888 a33.067560833983464,33.067560833983464 0 0,0 -0.5450478617926429,0.15865548895518627 l -3.2731317172845777 -11.615189763546585" fill="#ff970d" stroke="none" /><path d="M 105.69591212413111 120.21278271476187 l 0.398045322788598 1.412522427455903 a22.46753524218664,22.46753524218664 0 0,0 -0.37212507773274867,0.10142434470277938 l -0.3737388441211542 -1.4191472663028244" fill="#ff0300" stroke="none" /><path d="M 105.3480935250658 120.30758222061773 l 0.322240601204306 1.2236000498321902 a22.265320547139677,22.265320547139677 0 0,0 -0.3704469116100192,0.09416615630988617 l -0.30118839636888944 -1.2289514379773463" fill="#ff0000" stroke="none" /><path d="M 104.29559338865022 120.5559693870025 l 0.9600092167412766 4.5939916293555045 a25.693226692459746,25.693226692459746 0 0,0 -0.4325069492302049,0.08651350290960479 l -0.881005781980113 -4.609794528927971" fill="#ff3204" stroke="none" /><path d="M 103.94208987418118 120.62667999033965 l 1.7036970113640189 8.914462677288162 a30.07580455559144,30.07580455559144 0 0,0 -0.5079449160178651,0.09256448423387083 l -1.5504173617950967 -8.942395335453396" fill="#ff6f0a" stroke="none" /><path d="M 103.58742460773223 120.69131181640829 l 3.819523967344267 22.02999924464587 a43.3586589503086,43.3586589503086 0 0,0 -0.7344595440987635,0.12085503848681262 l -3.4407869201924313 -22.092320281628357" fill="#e6ff1a" stroke="none" /><path d="M 103.2317021107853 120.74984581791261 l 0.9788798663222915 6.285110942824719 a27.360882435347015,27.360882435347015 0 0,0 -0.4647114215765681,0.06829657575506433 l -0.8708433391380379 -6.3009885918786654" fill="#ff4906" stroke="none" /><path d="M 102.15924093988457 120.88869738790638 l 0.129858292139058 1.2562611784992088 a22.262954997076893,22.262954997076893 0 0,0 -0.3804849651805073,0.036032321791321036 l -0.10827376357353545 -1.2583052557957137" fill="#ff0000" stroke="none" /><path d="M 101.08105385017728 120.97215588758144 l 1.27697692927834 24.77301128087062 a45.805901676819815,45.805901676819815 0 0,0 -0.7856240855448459,0.03373807856568224 l -0.8515270831326647 -24.791281927862133" fill="#c9ff1d" stroke="none" /><line stroke="#e1ed5e" stroke-width="0.3" x1="101.45913802915013" x2="101.54496967792366" y1="184.9874750549273" y2="189.98673829345242" /><path d="M 101.47630435890484 185.9873277026323 a86.0,86.0 0 0,1 -42.54439059252881,-10.42667462771756" fill="none" id="id43" stroke="none" /><text fill="#e1ed5e" style="font-size:6.75px; font-family:Arial;" text-anchor="middle"><textPath startOffset="22.145653131862474" xlink:href="#id43">July</textPath></text><path d="M 100.36049292484886 120.99690560180557 l 0.03789911971695046 2.207433722650673 a23.207759041012114,23.207759041012114 0 0,0 -0.3983920445658024,0.0034197165558756365 l -2.7037250428641155e-16 -2.207759041012114" fill="#ff0e01" stroke="none" /><path d="M 100.0 121.0 l 8.550522708294074e-16 6.982031647204142 a27.982031647204142,27.982031647204142 0 0,0 -0.48034878246256024,-0.004123216581225192 l 0.11985585761370726 -6.981002828817352" fill="#ff5207" stroke="none" /><path d="M 99.63950707515114 120.99690560180557 l -0.12028777061411698 7.006159595768043 a28.00719212160848,28.00719212160848 0 0,0 -0.48063900718525954,-0.012379555881156886 l 0.24054009187012046 -7.003062322536839" fill="#ff5207" stroke="none" /><path d="M 99.27912038922189 120.98762331915562 l -0.2362215982997413 6.877334094125048 a27.881389749586784,27.881389749586784 0 0,0 -0.478198016497571,-0.020535880387835128 l 0.35424537539815104 -6.8722656453113835" fill="#ff5007" stroke="none" /><path d="M 98.91894614982273 120.97215588758144 l -0.3600739099111005 6.985337657757092 a27.99461188440631,27.99461188440631 0 0,0 -0.47971519983160715,-0.028858475183941707 l 0.479933461875154 -6.978127204748459" fill="#ff5207" stroke="none" /><path d="M 98.19965949673042 120.92268563240118 l -1.2036171905999125 13.987856216610908 a35.0395447176213,35.0395447176213 0 0,0 -0.5988432332354555,-0.05671107680236007 l 1.4435599872203833 -13.965133384303364" fill="#ffb110" stroke="none" /><path d="M 96.05791012581884 120.62667999033965 l -3.790278249123788 19.832337418552783 a41.19128070948224,41.19128070948224 0 0,0 -0.693393452203944,-0.13869811005699642 l 4.13016818685869 -19.764349911832927" fill="#fffe18" stroke="none" /><path d="M 93.95794788825049 120.11202640906438 l -3.73175107928775 12.421785656687716 a33.970224555436886,33.970224555436886 0 0,0 -0.5570459537675588,-0.17257426040706506 l 3.9444376659269427 -12.355894808474002" fill="#ffa30f" stroke="none" /><line stroke="#e1ed5e" stroke-width="0.3" x1="58.13341422392154" x2="55.67067388415222" y1="173.97424548756322" y2="178.32567169271397" /><path d="M 57.64086615596768 174.84453072859336 a86.0,86.0 0 0,1 -31.369924170532247,-30.572349798747897" fill="none" id="id44" stroke="none" /><text fill="#e1ed5e" style="font-size:6.75px; font-family:Arial;" text-anchor="middle"><textPath startOffset="22.145653131862474" xlink:href="#id44">August</textPath></text><path d="M 86.13680546590413 115.77377054828092 l -6.399733028181272 7.281721403281896 a30.694330787991913,30.694330787991913 0 0,0 -0.3927923886183613,-0.3512373759805991 l 6.523790443623004 -7.170788497417915" fill="#ff770b" stroke="none" /><path d="M 85.86807049272751 115.53346607816431 l -7.468099543917498 8.208749617247857 a32.0975709538857,32.0975709538857 0 0,0 -0.4043838898826525,-0.37429169137445106 l 7.607913205114118 -8.07934017974103" fill="#ff8a0c" stroke="none" /><path d="M 85.60350026404147 115.28858382429668 l -6.758947049547613 7.177767542542962 a30.859194293316854,30.859194293316854 0 0,0 -0.38254749231325963,-0.3664718440617341 l 6.881167027726187 -7.060683568175645" fill="#ff790b" stroke="none" /><path d="M 85.34317274990678 115.03919595460226 l -6.679600772186121 6.853858832973611 a30.570394316752044,30.570394316752044 0 0,0 -0.37267942618579036,-0.3694941510849453 l 6.796272118501873 -6.738184671660006" fill="#ff750a" stroke="none" /><path d="M 85.08716467003676 114.78537596483092 l -17.89413488728999 17.741194482473507 a46.19821511594576,46.19821511594576 0 0,0 -0.5535276517355304,-0.567968133805259 l 18.19604934017633 -17.431403656600512" fill="#c4ff1e" stroke="none" /><path d="M 84.83555147118756 114.52719865689866 l -1.318473198719837 1.2630674993032318 a22.82584530657409,22.82584530657409 0 0,0 -0.26863211940754844,-0.285278001652207 l 1.3399611518636385 -1.2402480377065346" fill="#ff0801" stroke="none" /><path d="M 84.58840730492382 114.26474011684316 l -6.08069599384531 5.6282014323830944 a29.285620986567363,29.285620986567363 0 0,0 -0.338321856362597,-0.37187498540843394 l 6.176415551049786 -5.522988871416986" fill="#ff6409" stroke="none" /><path d="M 84.3458050057657 113.99807769240083 l -5.2046707076785035 4.654048640398328 a27.982031647204142,27.982031647204142 0 0,0 -0.3171149495235765,-0.3608186005694534 l 5.283796721160672 -4.564017762017574" fill="#ff5207" stroke="none" /><line stroke="#e1ed5e" stroke-width="0.3" x1="26.387840678322732" x2="22.057713659400548" y1="142.50000000000003" y2="145.00000000000006" /><path d="M 25.521815274538298 143.00000000000003 a86.0,86.0 0 0,1 -11.493303480769221,-40.785679425670985" fill="none" id="id45" stroke="none" /><text fill="#e1ed5e" style="font-size:6.75px; font-family:Arial;" text-anchor="middle"><textPath startOffset="21.40746469413373" xlink:href="#id45">September</textPath></text><path d="M 79.34024301695615 103.76489593502545 l -6.893661255520504 1.2562547206945787 a28.00719212160848,28.00719212160848 0 0,0 -0.08213466849234835,-0.47373094142508665 l 6.914210741505087 -1.1377307463488993" fill="#ff5207" stroke="none" /><line stroke="#e1ed5e" stroke-width="0.3" x1="15.003131293944662" x2="10.003315487706104" y1="100.72959589197737" y2="100.7725132973878" /><path d="M 14.003168132696942 100.73817937305945 a86.0,86.0 0 0,1 10.791469493833604,-42.45332614584628" fill="none" id="id46" stroke="none" /><text fill="#e1ed5e" style="font-size:6.75px; font-family:Arial;" text-anchor="middle"><textPath startOffset="22.145653131862435" xlink:href="#id46">October</textPath></text><path d="M 81.1358732173502 90.77261029715801 l -13.696476653309189 -6.699633070331184 a36.24724748902958,36.24724748902958 0 0,0 0.27820640457700874,-0.5565991722361814 l 13.579450335520436 6.933764098731136" fill="#ffc011" stroke="none" /><path d="M 81.29705330413844 90.45014215332179 l -6.3663633952164815 -3.250710511732676 a28.14826564356989,28.14826564356989 0 0,0 0.22343279786347717,-0.42846185062190584 l 6.309622528378064 3.3595186054590687" fill="#ff5407" stroke="none" /><path d="M 81.46374523516351 90.13048839642627 l -6.777493690162716 -3.6086336461614064 a28.678323873893547,28.678323873893547 0 0,0 0.23510032476799464,-0.43255811767167635 l 6.71454801577937 3.7244465973077023" fill="#ff5b08" stroke="none" /><path d="M 81.63589988554816 89.8137432299009 l -5.747931171679664 -3.188280528132666 a27.572963219160492,27.572963219160492 0 0,0 0.23314468072456618,-0.4119443113484755 l 5.692353125933728 3.286481609580247" fill="#ff4c07" stroke="none" /><line stroke="#e1ed5e" stroke-width="0.3" x1="26.387840678322718" x2="22.05771365940052" y1="57.49999999999999" y2="54.99999999999999" /><path d="M 25.521815274538284 56.99999999999999 a86.0,86.0 0 0,1 29.574782752854787,-30.34633250058573" fill="none" id="id47" stroke="none" /><text fill="#e1ed5e" style="font-size:6.75px; font-family:Arial;" text-anchor="middle"><textPath startOffset="21.40746469413373" xlink:href="#id47">November</textPath></text><path d="M 81.99639281039701 89.18935116829357 l -9.43016939971327 -5.662545773753469 a31.999659974160192,31.999659974160192 0 0,0 0.2868267206510218,-0.4685098923185392 l 9.331574714606855 5.823592782196552" fill="#ff890c" stroke="none" /><path d="M 82.18462484594161 88.88188828441811 l -6.556871370664808 -4.091972679404681 a28.728958699620417,28.728958699620417 0 0,0 0.2646926307803347,-0.4161407798640826 l 6.485661048258583 4.203927133947436" fill="#ff5c08" stroke="none" /><path d="M 82.37810715431573 88.57770195909679 l -5.688432563840106 -3.6871732621886713 a27.778901953764752,27.778901953764752 0 0,0 0.26280899675382235,-0.39792631739708606 l 5.624299128165554 3.7842794579248187" fill="#ff4f07" stroke="none" /><path d="M 82.576782715395 88.27688183743585 l -9.271455505608486 -6.23824903608601 a32.17477687601439,32.17477687601439 0 0,0 0.31226427347662206,-0.45560290713326385 l 9.163001495316552 6.3964866782893095" fill="#ff8b0c" stroke="none" /><path d="M 82.78059297857968 87.97951657250589 l -11.482471341521864 -8.015656770046833 a35.00349604791848,35.00349604791848 0 0,0 0.34817627728933126,-0.4897535373172264 l 11.34317996570256 8.21158753407358" fill="#ffb010" stroke="none" /><path d="M 82.98947788004972 87.6856937992154 l -5.674179237426971 -4.107668187671971 a28.00494453642994,28.00494453642994 0 0,0 0.2852476703814063,-0.386993248273685 l 5.602829547461746 4.20446774521452" fill="#ff5207" stroke="none" /><path d="M 83.2033758604659 87.39550010848427 l -5.593556455208585 -4.197509043910733 a27.993350841429166,27.993350841429166 0 0,0 0.29172807042256793,-0.3818814087800072 l 5.5206764074317105 4.292911365931625" fill="#ff5207" stroke="none" /><path d="M 83.42222388311158 87.10902102172516 l -21.096230741043055 -16.404556623645966 a47.723780224693826,47.723780224693826 0 0,0 0.5084481758546859,-0.6424076605009428 l 20.811516134546807 16.76428422806159" fill="#b3ff20" stroke="none" /><path d="M 83.64595745247003 86.82634096563983 l -5.109185089659071 -4.115597847993316 a27.560633957690506,27.560633957690506 0 0,0 0.29995574070619013,-0.36589723154034043 l 5.037782529714251 4.20269736123215" fill="#ff4c07" stroke="none" /><path d="M 83.8745106332314 86.54754324733833 l -6.44039748886379 -5.37280864588438 a29.38723986540584,29.38723986540584 0 0,0 0.32648584876760167,-0.38459950891124495 l 6.347217076589074 5.4825749372451815" fill="#ff6509" stroke="none" /><path d="M 84.10781606972428 86.27271002978789 l -7.402820744994217 -6.394380244394407 a30.7821190798527,30.7821190798527 0 0,0 0.3488477985197168,-0.3969247576083157 l 7.291961882515908 6.5205172798140225" fill="#ff780b" stroke="none" /><path d="M 84.34580500576568 86.00192230759919 l -4.882999551259833 -4.366408308805967 a27.55051189883764,27.55051189883764 0 0,0 0.3182770252210259,-0.3498422046462687 l 4.807324825196941 4.449588089009893" fill="#ff4c07" stroke="none" /><path d="M 84.58840730492382 85.73525988315684 l -5.128996377923636 -4.747322475936282 a27.988824975293312,27.988824975293312 0 0,0 0.3293940387247754,-0.34980505432781367 l 5.046746505462589 4.834668990208606" fill="#ff5207" stroke="none" /><path d="M 84.83555147118756 85.47280134310135 l -10.359854829943375 -9.924506577688534 a35.346512569544004,35.346512569544004 0 0,0 0.4235070997993493,-0.43455559333328586 l 10.187960928993224 10.10088486308955" fill="#ffb510" stroke="none" /><path d="M 85.34317274990677 84.96080404539775 l -19.194781991408544 -19.695537291184706 a48.50188802402754,48.50188802402754 0 0,0 0.6012559971492688,-0.5759896443080994 l 18.853853508393975 20.022139065798378" fill="#aaff21" stroke="none" /><path d="M 85.86807049272753 84.46653392183569 l -4.404014012624693 -4.8407828695764055 a27.544350098656018,27.544350098656018 0 0,0 0.3524823897585442,-0.31519192643636323 l 4.3202665960427575 4.91567032589617" fill="#ff4c07" stroke="none" /><path d="M 86.13680546590413 84.22622945171909 l -9.302212103834933 -10.584209790640664 a35.091012984062814,35.091012984062814 0 0,0 0.4558832579981263,-0.3937811003548297 l 9.119149366073959 10.742335023460203" fill="#ffb210" stroke="none" /><path d="M 86.40962598614128 83.9905735841838 l -10.056886328299798 -11.84698680705619 a36.54001476919848,36.54001476919848 0 0,0 0.48167685324843085,-0.4018319624107752 l 9.852035140889457 12.017880953378848" fill="#ffc412" stroke="none" /><path d="M 86.68645165197937 83.75963576809568 l -8.176174192105153 -9.973603087040663 a33.89661129744839,33.89661129744839 0 0,0 0.45316416711077695,-0.36503697521618583 l 8.00375925463913 10.112488356050248" fill="#ffa20f" stroke="none" /><path d="M 86.96720088162412 83.53348406188908 l -10.260421365878843 -12.963707214266678 a37.53281438057698,37.53281438057698 0 0,0 0.5086412248839757,-0.3955224929587247 l 10.036370196359622 13.137930758846208" fill="#ffd113" stroke="none" /><path d="M 87.25179093698888 83.31218511350988 l -9.995740974208193 -13.084745802834435 a37.46588626063772,37.46588626063772 0 0,0 0.5144369676697427,-0.3860430911187187 l 9.769651017627698 13.254407921217155" fill="#ffd013" stroke="none" /><path d="M 87.54013794807813 83.09580414077388 l -3.8826004636088234 -5.267493203894838 a27.543781094527365,27.543781094527365 0 0,0 0.38301462503354694,-0.27727305127865925 l 3.791604828201309 5.3333670265465765" fill="#ff4c07" stroke="none" /><path d="M 87.83215693770416 82.88440491214696 l -11.027220462529886 -15.511166557200633 a40.0314444826045,40.0314444826045 0 0,0 0.563499595069656,-0.39336648094260457 l 10.759325776286465 15.698177853948364" fill="#fff016" stroke="none" /><path d="M 88.12776184653039 82.6780497279521 l -3.731380128671265 -5.444195121377527 a27.600186223454127,27.600186223454127 0 0,0 0.393110388030927,-0.2645022130264104 l 3.6373734525433488 5.507447008461047" fill="#ff4c07" stroke="none" /><path d="M 88.4268655584334 82.4767994020092 l -4.71450763744239 -7.138365450499315 a29.55469716403713,29.55469716403713 0 0,0 0.4257485964958933,-0.27596509650002354 l 4.591273408689471 7.218244388703245" fill="#ff6809" stroke="none" /><path d="M 88.72937992617638 82.28071324371311 l -3.7014895713995783 -5.819356407316422 a27.89680607546381,27.89680607546381 0 0,0 0.40627828524163356,-0.25354769820283796 l 3.6010471573682463 5.8820399023607965" fill="#ff5107" stroke="none" /><path d="M 89.03521579738668 82.08984904055464 l -20.109144873619833 -32.84677689015063 a59.51348412724515,59.51348412724515 0 0,0 0.8758889755652642,-0.5259461634925834 l 19.542323141497135 33.18713705417913" fill="#36ff2e" stroke="none" /><line stroke="#e1ed5e" stroke-width="0.3" x1="56.869717070023135" x2="54.33264160355391" y1="26.7553504044142" y2="22.446841604673864" /><path d="M 56.362301976729285 25.89364864446614 a86.0,86.0 0 0,1 42.16139366436587,-11.88097634709845" fill="none" id="id48" stroke="none" /><text fill="#e1ed5e" style="font-size:6.75px; font-family:Arial;" text-anchor="middle"><textPath startOffset="22.145653131862474" xlink:href="#id48">December</textPath></text><path d="M 89.34428304082924 81.90426304109057 l -3.285737887632935 -5.579901264114977 a27.475443736416715,27.475443736416715 0 0,0 0.40847811825652863,-0.2358349515334773 l 3.1894673015160064 5.635483112924629" fill="#ff4b07" stroke="none" /><path d="M 89.65649057296885 81.72400993836675 l -6.347156511648969 -11.214817383293326 a33.886369726342096,33.886369726342096 0 0,0 0.5087083332628783,-0.28217193717142586 l 6.153703990229988 11.322122235897897" fill="#ffa20e" stroke="none" /><path d="M 89.97174638481275 81.54914285379989 l -3.28694619928887 -6.047610790225502 a27.883139660581605,27.883139660581605 0 0,0 0.42251080433249316,-0.2249632052913546 l 3.1826465791698153 6.103144463239431" fill="#ff5007" stroke="none" /><path d="M 90.28995756902619 81.37971332152246 l -8.851012341113826 -16.972983213807996 a40.142167553303814,40.142167553303814 0 0,0 0.6137408220370545,-0.3133804368086158 l 8.558344297363188 17.122421602289446" fill="#fff216" stroke="none" /><path d="M 90.61103034731259 81.2157712731953 l -2.854409269799786 -5.710730632565602 a27.384363448084866,27.384363448084866 0 0,0 0.42229263967357844,-0.20656449141838312 l 2.7559563808641543 5.7588888740812" fill="#ff4906" stroke="none" /><path d="M 90.93487009805054 81.0573650232925 l -8.481037657517126 -17.722106832193194 a40.646909943293686,40.646909943293686 0 0,0 0.6319845163206296,-0.2958006644069958 l 8.175564427324975 17.865083728170735" fill="#fff817" stroke="none" /><path d="M 91.5904679813234 80.7573450057729 l -7.60508622880579 -17.40192559791065 a39.991165079130596,39.991165079130596 0 0,0 0.6314127449194673,-0.2695125546834557 l 7.305238408715892 17.52991280225351" fill="#fff016" stroke="none" /><path d="M 91.92203290615298 80.6158196554323 l -2.7505806609756016 -6.600392272610681 a28.15058543930997,28.15058543930997 0 0,0 0.44765535344451896,-0.18205753511484493 l 2.636870846340642 6.646637064304818" fill="#ff5407" stroke="none" /><path d="M 92.25597844496254 80.48000691201159 l -2.631442234877569 -6.632953417186399 a28.135864297340735,28.135864297340735 0 0,0 0.4504789521659028,-0.17425493608785936 l 2.517191020218137 6.677148241412299" fill="#ff5407" stroke="none" /><path d="M 92.93061703081487 80.22567764915836 l -2.5635445835357604 -7.170690451564748 a28.615153470806572,28.615153470806572 0 0,0 0.4639664089931428,-0.1613916013987049 l 2.4400724024976133 7.213640485532038" fill="#ff5b08" stroke="none" /><path d="M 93.27111125876988 80.10723608172694 l -2.1964921258509316 -6.493538679004878 a27.854970622450367,27.854970622450367 0 0,0 0.45427114674661156,-0.14932794890709644 l 2.0846982414565587 6.530287549314004" fill="#ff5007" stroke="none" /><path d="M 93.61358852112211 79.99465700312896 l -8.11514067208247 -25.420562572550203 a47.68446195134216,47.68446195134216 0 0,0 0.7819329114010326,-0.24224481474159668 l 7.67756712780982 25.55612397509844" fill="#b3ff20" stroke="none" /><path d="M 94.30408787586887 79.78721728523814 l -1.721600593872415 -6.10935315840329 a27.347291124480908,27.347291124480908 0 0,0 0.45294745176897494,-0.12345284214748303 l 1.6164717411687626 6.138006494694912" fill="#ff4906" stroke="none" /><path d="M 94.6519064749342 79.69241777938228 l -1.6704699368629292 -6.343046439057292 a27.559322216357437,27.559322216357437 0 0,0 0.4585276811757871,-0.11655594349633673 l 1.561336962461764 6.370787614388892" fill="#ff4c07" stroke="none" /><path d="M 95.00130118170881 79.60360301121753 l -5.0266175808059455 -20.51031506714375 a42.11728932550699,42.11728932550699 0 0,0 0.7036953617120898,-0.16607018930092196 l 4.67379006535395 20.593581400090905" fill="#f4ff19" stroke="none" /><path d="M 95.35216902796891 79.52079915486377 l -1.5482514125625704 -6.821881395307903 a27.99536619542895,27.99536619542895 0 0,0 0.4695723873590819,-0.10234111627789487 l 1.4309166085843703 6.8474539697195125" fill="#ff5207" stroke="none" /><path d="M 95.70440661134978 79.44403061299748 l -1.4382308405122435 -6.882455217276149 a28.031123506838167,28.031123506838167 0 0,0 0.47186193686583544,-0.09438560263744011 l 1.3198724181154313 6.9061302165764555" fill="#ff5307" stroke="none" /><path d="M 96.41257539226777 79.30868818359171 l -10.762273823196677 -62.07393544922487 a84.0,84.0 0 0,0 1.4228899877877086,-0.23413600601732654 l 9.695106332355897 62.24953745373786" fill="#4dd2ff" stroke="none" /><path d="M 97.12497278360702 79.19773525538626 l -0.976874175621574 -7.068174905471434 a28.13536121365502,28.13536121365502 0 0,0 0.47900074395215314,-0.062016236233591274 l 0.8553956097786268 7.08390273790542" fill="#ff5407" stroke="none" /><path d="M 97.48249496171623 79.15144685158666 l -0.834498756544668 -6.9108468160075285 a27.96104818895804,27.96104818895804 0 0,0 0.4770209390339836,-0.05345119118922192 l 0.715741915909885 6.9241537677037215" fill="#ff5207" stroke="none" /><path d="M 97.84075906011542 79.11130261209362 l -2.738325934216809 -26.490819404511928 a47.63197216963982,47.63197216963982 0 0,0 0.8140540765960248,-0.07709176742247638 l 2.2831722942357686 26.53392292743959" fill="#b4ff20" stroke="none" /><path d="M 98.5590905019552 79.04949213459386 l -0.6395880755111572 -9.299470247644772 a30.321438719058683,30.321438719058683 0 0,0 0.5195876654534312,-0.03125710370368391 l 0.4798560579252422 9.30907932917315" fill="#ff720a" stroke="none" /><path d="M 98.9189461498227 79.02784411241856 l -0.36952261197154646 -7.168639953488522 a28.178157545185964,28.178157545185964 0 0,0 0.48328792673845794,-0.020754463034113605 l 0.24640892463226838 7.173926984948464" fill="#ff5507" stroke="none" /><path d="M 99.27912038922189 79.0123766808444 l -0.27416172356231056 -7.98191944483685 a28.986626488983397,28.986626488983397 0 0,0 0.49744734555399595,-0.012812479054257793 l 0.1371010639375707 7.985449641241153" fill="#ff6008" stroke="none" /><path d="M 99.63950707515114 79.00309439819443 l -0.12000275122514915 -6.989558645257281 a27.990588724549056,27.990588724549056 0 0,0 0.48049567607399957,-0.004124477486210227 l 1.712200421134916e-15 6.990588724549056" fill="#ff5207" stroke="none" /></svg>