<?xml version="1.0" encoding="utf-8" ?>
<svg baseProfile="full" height="200mm" version="1.1" viewBox="0,0,200,200" width="200mm" xmlns="http://www.w3.org/2000/svg" xmlns:ev="http://www.w3.org/2001/xml-events" xmlns:xlink="http://www.w3.org/1999/xlink"><defs /><rect fill="#1a1a1a" height="200" width="200" x="0" y="0" /><rect fill="#1a1a1a" height="200" width="180" x="10" y="0" /><text alignment-baseline="middle" fill="#e1ed5e" style="dominant-baseline: central; font-size:9.0px; font-family:Arial;" text-anchor="middle" x="100.0" y="100.0">2025</text><line stroke="#e1ed5e" stroke-width="0.3" x1="100.0" x2="100.0" y1="15.0" y2="10.0" /><path d="M 100.0 14.0 a86.0,86.0 0 0,1 42.46469731375804,11.215312516191453" fill="none" id="id49" stroke="none" /><text fill="#e1ed5e" style="font-size:6.75px; font-family:Arial;" text-anchor="middle"><textPath startOffset="22.20632615414155" xlink:href="#id49">January</textPath></text><path d="M 100.0 79.0 l 0.0 -18.741033584345402 a39.7410335843454,39.7410335843454 0 0,0 0.6840765650883248,0.00588806296639451 l -0.32259608581579646 18.738256897987565" fill="#fff016" stroke="none" /><path d="M 100.36148047927253 79.00311137660856 l 0.09082361503751812 -5.275563795739043 a26.27634554326771,26.27634554326771 0 0,0 0.4521700668453805,0.01167821879497616 l -0.18162031707776646 5.273218784801707" fill="#ff3e05" stroke="none" /><path d="M 100.72285384407766 79.0124445844662 l 0.17754713644928993 -5.154956836196165 a26.15801347116377,26.15801347116377 0 0,0 0.44986697007591236,0.01937221805177792 l -0.26625493891453383 5.151136891620193" fill="#ff3d05" stroke="none" /><path d="M 102.16513564639614 79.11191278185805 l 0.4964990627422023 -4.789961194139147 a25.815624524468536,25.815624524468536 0 0,0 0.44161104280381014,0.04962014616624507 l -0.5788768090557377 4.780705094502301" fill="#ff3805" stroke="none" /><path d="M 102.88285421437855 79.19881850522331 l 0.7127497006489558 -5.142832339422561 a26.19198773180231,26.19198773180231 0 0,0 0.446050822720219,0.0657362963930578 l -0.8011695037978307 5.129801558868533" fill="#ff3d05" stroke="none" /><path d="M 103.2404852339499 79.25152402106235 l 0.8083511762720945 -5.175785029880753 a26.238528638818174,26.238528638818174 0 0,0 0.4456436590169113,0.07353502216000632 l -0.897324041427881 5.161103744781123" fill="#ff3e05" stroke="none" /><path d="M 103.59715602781102 79.31037775812273 l 2.702228039665956 -15.542299783453881 a36.77545938909886,36.77545938909886 0 0,0 0.6227396563069375,0.11380169173838348 l -2.9693628170757944 15.49348261036476" fill="#ffcb12" stroke="none" /><path d="M 103.95276090670814 79.375362276772 l 3.871139094776122 -20.198753046379938 a41.566364348609284,41.566364348609284 0 0,0 0.7015483695940601,0.14072400311616606 l -4.218253873837307 20.129125087186566" fill="#f8ff18" stroke="none" /><path d="M 104.66035177308747 79.52364482259891 l 1.1419248961903437 -5.017316481416489 a26.14562504883837,26.14562504883837 0 0,0 0.4379719800828882,0.1036538173784712 l -1.2281205632357555 4.99691675189715" fill="#ff3c05" stroke="none" /><path d="M 105.01212808612495 79.60689891045804 l 1.2531749901980587 -5.098856976289503 a26.25059901541853,26.25059901541853 0 0,0 0.43787388103784497,0.11162380194520677 l -1.3407577599209286 5.076530178175428" fill="#ff3e05" stroke="none" /><path d="M 105.36241919743992 79.69619591428918 l 1.2349052631756667 -4.6757393640359455 a25.836065509214514,25.836065509214514 0 0,0 0.42900431320083726,0.11726308452960575 l -1.3152074656002148 4.653789738680046" fill="#ff3805" stroke="none" /><path d="M 105.71112130821622 79.79150937346287 l 1.6777695801577044 -5.936695966399613 a27.169219542338237,27.169219542338237 0 0,0 0.4489516646672,0.13106130198159435 l -1.7797114625483317 5.906936335499315" fill="#ff4b07" stroke="none" /><path d="M 106.0581310904928 79.89281104454417 l 6.172862147086444 -20.48798610222078 a42.397705522128405,42.397705522128405 0 0,0 0.6969670528448705,0.21655105598067168 l -6.524614572642032 20.378694911357588" fill="#eeff19" stroke="none" /><path d="M 106.40334571778207 80.00007090966166 l 0.5325058758682103 -1.6632054908385598 a22.746371957112718,22.746371957112718 0 0,0 0.3718676297400075,0.12259891087808271 l -0.5610563278506352 1.653792855701241" fill="#ff0c01" stroke="none" /><path d="M 106.74666289553966 80.11325718540242 l 2.595597681026801 -7.650891163818413 a29.079187021126963,29.079187021126963 0 0,0 0.47263094464382466,0.1648916562343627 l -2.726910629733899 7.605078654411842" fill="#ff6509" stroke="none" /><path d="M 107.08798089147638 80.2323363322302 l 2.3665179044424263 -6.599979700146902 a28.01142917203032,28.01142917203032 0 0,0 0.4524748502629681,0.1666503059441931 l -2.4797750804779706 6.558266126396384" fill="#ff5608" stroke="none" /><path d="M 107.4271985657038 80.35727306442388 l 4.279864650866197 -11.318966621733667 a33.10108453047308,33.10108453047308 0 0,0 0.5312201306446914,0.2061051576902433 l -4.474067946510556 11.243618760152877" fill="#ff9b0e" stroke="none" /><path d="M 107.76421540070413 80.48803036053334 l 7.597882954883921 -19.09396557010404 a41.55011792152138,41.55011792152138 0 0,0 0.6622616518494203,0.2701531561891576 l -7.925428476321729 18.9603515277313" fill="#f8ff18" stroke="none" /><path d="M 108.43124777332544 80.76684994638697 l 9.021193319641158 -20.578918974276096 a43.46939774582663,43.46939774582663 0 0,0 0.6827135560025457,0.3063136719558508 l -9.374088994110483 20.420584971803713" fill="#e2ff1b" stroke="none" /><path d="M 108.76106565485865 80.91482961587045 l 2.3872461741712723 -5.200394766777402 a26.722154316900337,26.722154316900337 0 0,0 0.41638433969068084,0.19549803058921447 l -2.476408725161551 5.158531753548184" fill="#ff4506" stroke="none" /><path d="M 109.08828744355905 81.06846463323043 l 4.365151165457939 -9.092913729167899 a31.086407922714056,31.086407922714056 0 0,0 0.4804015512550127,0.2357309548398043 l -4.521023983723384 9.016427614193264" fill="#ff800b" stroke="none" /><path d="M 109.73455568895987 81.39251694778311 l 4.670162647359005 -8.92695825967526 a31.074770613903407,31.074770613903407 0 0,0 0.4718259303923607,0.2520330716488522 l -4.823133624279677 8.845246461524654" fill="#ff800b" stroke="none" /><line stroke="#e1ed5e" stroke-width="0.3" x1="143.23703022742887" x2="145.7803849466894" y1="26.81831364943548" y2="22.513508569990506" /><path d="M 143.74570117128098 25.957352633546492 a86.0,86.0 0 0,1 28.547481713284135,27.462654790039103" fill="none" id="id50" stroke="none" /><text fill="#e1ed5e" style="font-size:6.75px; font-family:Arial;" text-anchor="middle"><textPath startOffset="19.985693538727396" xlink:href="#id50">February</textPath></text><path d="M 110.68208982089419 81.91981866633111 l 1.4446482573348693 -2.445167836437152 a23.84004477707085,23.84004477707085 0 0,0 0.35151343838339144,0.2117829135152864 l -1.4865237619358982 2.4199383134632515" fill="#ff1c02" stroke="none" /><path d="M 110.99172775467656 82.1063720568725 l 1.279811735685377 -2.0834281513076136 a23.445115731506196,23.445115731506196 0 0,0 0.3420540205023454,0.21419419625847255 l -1.3154849085599858 2.061089613726197" fill="#ff1602" stroke="none" /><path d="M 111.2981086023043 82.29822771554956 l 13.969958649972012 -21.88800227982911 a46.96621629124529,46.96621629124529 0 0,0 0.6777291528759455,0.44081389329336895 l -14.344654828632237 21.644289462376214" fill="#b9ff1f" stroke="none" /><path d="M 111.60114157652 82.49532879139004 l 0.5692220601463593 -0.8588848728228811 a22.03038681014522,22.03038681014522 0 0,0 0.31429526041559747,0.21221356281642273 l -0.5839220149684987 0.8489593977077882" fill="#ff0200" stroke="none" /><path d="M 111.90073688211348 82.69761687909136 l 0.577253662864586 -0.8392643356263447 a22.018619858605216,22.018619858605216 0 0,0 0.3104298899751447,0.21747597619493958 l -0.5916146924233817 0.8292035166674696" fill="#ff0100" stroke="none" /><path d="M 112.19680574252982 82.90503203632743 l 4.100802610250931 -5.7476597338217505 a28.06060723054588,28.06060723054588 0 0,0 0.3907836195490421,0.2839209188502445 l -4.199131546153762 5.6762195801548305" fill="#ff5708" stroke="none" /><path d="M 112.48926042617603 83.11751280151076 l 3.7570975221561804 -5.078695507728969 a27.317351490238494,27.317351490238494 0 0,0 0.3756185862828826,0.28290813179831387 l -3.8439622621974463 5.013270786424807" fill="#ff4d07" stroke="none" /><path d="M 112.77801427241765 83.33499621200491 l 3.6596544983705153 -4.772897789740749 a27.014451293239947,27.014451293239947 0 0,0 0.3665828170859339,0.286123703375866 l -3.74126987061588 4.709195697141658" fill="#ff4906" stroke="none" /><path d="M 113.06298171725822 83.55741782278167 l 1.5390597932587993 -1.9372389607555793 a23.47418670239236,23.47418670239236 0 0,0 0.314214957309767,0.2540733099589157 l -1.5721781491330573 1.910459553532534" fill="#ff1602" stroke="none" /><path d="M 113.34407831869373 83.78471172551755 l 7.536186601305152 -9.157727893372982 a32.85993628392467,32.85993628392467 0 0,0 0.43366112748063573,0.36317872283865504 l -7.692705265744905 9.026648013140507" fill="#ff980e" stroke="none" /><path d="M 113.89432698308785 84.25364557470407 l 4.026222047804391 -4.562892426300109 a27.085265094653895,27.085265094653895 0 0,0 0.34693517659579787,0.31148182705263167 l -4.104168211996179 4.49291159047818" fill="#ff4a06" stroke="none" /><path d="M 114.16331599549186 84.49514656593476 l 6.297277467230683 -6.893750319072971 a30.336996142283127,30.336996142283127 0 0,0 0.3825236860867961,0.35551407728034284 l -6.415009037112326 6.784331655717988" fill="#ff760a" stroke="none" /><path d="M 114.42810811169701 84.74124197986012 l 4.275232968744519 -4.521365160613844 a27.222568589630228,27.222568589630228 0 0,0 0.3377112033099492,0.3248779100159354 l -4.352427415666886 4.447104163835607" fill="#ff4c07" stroke="none" /><path d="M 114.94478906791727 85.2469230424477 l 14.634676724258838 -14.446942742429696 a41.56423880007732,41.56423880007732 0 0,0 0.4982478218074889,0.5134881775926291 l -14.881188809769437 14.192890369286953" fill="#f8ff18" stroke="none" /><path d="M 115.19652480421416 85.50635884689758 l 1.4003106504773608 -1.3355421935190144 a22.935082134822682,22.935082134822682 0 0,0 0.27001437033426684,0.28803250406507114 l -1.4230923427820905 1.3112402725758883" fill="#ff0f01" stroke="none" /><path d="M 115.4437574822437 85.77008943001954 l 8.293194477969664 -7.6413668044610645 a32.27685954908307,32.27685954908307 0 0,0 0.37296120145371636,0.41183307389852614 l -8.423499320039415 7.497480943292989" fill="#ff900d" stroke="none" /><path d="M 115.68641384162765 86.03803664274999 l 7.1333593295937945 -6.349169579447473 a30.549699978202668,30.549699978202668 0 0,0 0.34624176952704133,0.39581419651124244 l -7.241592962698684 6.2254398267332824" fill="#ff790b" stroke="none" /><path d="M 115.9244219780498 86.31012108654704 l 6.020991011412129 -5.17611490067504 a28.940056563053933,28.940056563053933 0 0,0 0.3214956210115704,0.3805494103387991 l -6.109197245910816 5.071706540707135" fill="#ff6309" stroke="none" /><path d="M 116.15771136456269 86.58626213691792 l 4.683605373372802 -3.8882149405350352 a27.087230463625183,27.087230463625183 0 0,0 0.29473680982915185,0.3613124787778626 l -4.749840675278363 3.807018292149072" fill="#ff4a06" stroke="none" /><path d="M 116.38621287248628 86.86637796730983 l 21.85655695758685 -17.518126991923744 a49.01060255234445,49.01060255234445 0 0,0 0.521953393736328,0.6628278048481169 l -22.15486443191714 17.13930679312259" fill="#a2ff22" stroke="none" /><path d="M 116.60985879189232 87.15038557335679 l 4.815791902941235 -3.725562624406591 a27.088650796425238,27.088650796425238 0 0,0 0.28213998457359185,0.37126314762159757 l -4.87920782773894 3.64211470090396" fill="#ff4a06" stroke="none" /><path d="M 116.82858285166822 87.43820079747576 l 5.304319348466415 -3.959441810924332 a27.619137648108772,27.619137648108772 0 0,0 0.2811067774063483,0.38342932846810857 l -5.37168873838639 3.8675500387847297" fill="#ff5107" stroke="none" /><path d="M 117.04232023915458 87.72973835380427 l 2.5321001403352055 -1.8230810594029292 a24.120121098585642,24.120121098585642 0 0,0 0.23969356581318702,0.33902955033764176 l -2.5631063259522753 1.7792250087334942" fill="#ff2003" stroke="none" /><path d="M 117.2510076193507 88.02491185347247 l 16.88971354916376 -11.724289559408875 a41.56018943117183,41.56018943117183 0 0,0 0.4028875128742602,0.5911877114350481 l -17.089025527706752 11.43182382470342" fill="#f8ff18" stroke="none" /><path d="M 117.45458315368197 88.32363383020206 l 5.470553823522471 -3.6595654581164916 a27.581745853365632,27.581745853365632 0 0,0 0.26058624666715924,0.3968907314688471 l -5.532736705547555 3.5648566626699703" fill="#ff5007" stroke="none" /><path d="M 117.65298651832404 88.62581576622439 l 0.8261202281964933 -0.532286345146303 a21.982752962175457,21.982752962175457 0 0,0 0.20221243956356053,0.319851517967153 l -0.8351602640060095 0.5179871794649439" fill="#ff0100" stroke="none" /><line stroke="#e1ed5e" stroke-width="0.3" x1="172.23445277983987" x2="176.4835382374775" y1="55.19839476539836" y2="52.563006222186495" /><path d="M 173.08426987136738 54.67131705675599 a86.0,86.0 0 0,1 12.851231095245387,41.99856678651699" fill="none" id="id51" stroke="none" /><text fill="#e1ed5e" style="font-size:6.75px; font-family:Arial;" text-anchor="middle"><textPath startOffset="22.20632615414155" xlink:href="#id51">March</textPath></text><path d="M 117.84615892207809 88.93136811851018 l 8.728878942911551 -5.413867946544402 a31.271479627717984,31.271479627717984 0 0,0 0.2797817612505907,0.4598876518351206 l -8.820776502448366 5.262812521502199" fill="#ff830c" stroke="none" /><path d="M 118.03404312379186 89.2402003453031 l 8.76514998396446 -5.229623613708943 a31.20670453096661,31.20670453096661 0 0,0 0.2712610477995694,0.46367306125002666 l -8.853870706234355 5.077971140105022" fill="#ff820c" stroke="none" /><path d="M 118.21658344932153 89.55222093294921 l 4.398840568464575 -2.522872334340482 a26.070964717107618,26.070964717107618 0 0,0 0.21991772303667623,0.39120909020327527 l -4.441615932793685 2.446779734202413" fill="#ff3b05" stroke="none" /><path d="M 118.3937258080291 89.86733742301442 l 4.068779558873045 -2.2413931141781216 a25.645299795598582,25.645299795598582 0 0,0 0.2096709651437446,0.38848845491048184 l -4.106758623235255 2.171023675935181" fill="#ff3505" stroke="none" /><path d="M 118.56541770881063 90.18545643968196 l 4.638510237797591 -2.4521323192335625 a26.24678283686135,26.24678283686135 0 0,0 0.20771274844672938,0.4012349163591192 l -4.680032419404436 2.3719246806140983" fill="#ff3e05" stroke="none" /><path d="M 118.73160827565052 90.50648371742162 l 4.638762292249193 -2.351008237222439 a26.200514910610366,26.200514910610366 0 0,0 0.20042144646926127,0.4040374061995934 l -4.678543751671862 2.2708112425238958" fill="#ff3d05" stroke="none" /><path d="M 119.196687751892 91.48605970444005 l 1.09527044990578 -0.48576438490383944 a22.1981587524522,22.1981587524522 0 0,0 0.1519086493863995,0.35062610699003743 l -1.1034698091348603 0.4668391333271993" fill="#ff0400" stroke="none" /><path d="M 119.47837535516314 92.15188598940014 l 0.9206493605829956 -0.37094269998888674 a21.992569257944716,21.992569257944716 0 0,0 0.1384552147892246,0.35235341960637523 l -0.9268981252539207 0.35504027548672706" fill="#ff0100" stroke="none" /><path d="M 119.7369772167798 92.82701384747503 l 7.357436846867308 -2.6739045214982853 a28.828259215542733,28.828259215542733 0 0,0 0.16548370638332824,0.4678447222212279 l -7.402373634060446 2.546862172850443" fill="#ff6209" stroke="none" /><path d="M 119.85752413597 93.16781622104841 l 5.711505587468328 -1.965101770034248 a27.040109356814135,27.040109356814135 0 0,0 0.14764248169331384,0.441432227973233 l -5.744485362933411 1.866496439138701" fill="#ff4906" stroke="none" /><path d="M 120.08093135843002 93.85539295169968 l 6.436946279284427 -1.9696549313992529 a27.731553903162258,27.731553903162258 0 0,0 0.13574477167495405,0.4576638877471717 l -6.469896948071083 1.8585616569055512" fill="#ff5307" stroke="none" /><path d="M 120.18372546131832 94.20196356495316 l 4.900536911752402 -1.407742669711111 a26.098725472858206,26.098725472858206 0 0,0 0.1203191379585393,0.4328519560651611 l -4.924042820277304 1.323179410226998" fill="#ff3c05" stroke="none" /><path d="M 120.28053869075195 94.5502522615342 l 7.063938889778658 -1.8982082072004605 a28.31453532607578,28.31453532607578 0 0,0 0.12243160328550362,0.47177891045320297 l -7.095566824934465 1.7763328711984072" fill="#ff5b08" stroke="none" /><path d="M 120.37134235888165 94.90015583598534 l 10.056199129694017 -2.5175095258943294 a31.366532455408,31.366532455408 0 0,0 0.12661205341776474,0.5248887017364248 l -10.098043983372602 2.3440355924984986" fill="#ff840c" stroke="none" /><path d="M 120.45610955862082 95.25157060432595 l 5.884336698393913 -1.3659174669858922 a27.04079042068855,27.04079042068855 0 0,0 0.10134580885760582,0.4543133891925303 l -5.906976894253556 1.2644259082433982" fill="#ff4906" stroke="none" /><path d="M 120.53481517161879 95.60439243477599 l 7.9560295123580165 -1.7030386308030054 a29.136261191697272,29.136261191697272 0 0,0 0.10075694295931463,0.4913266369695831 l -7.984165751232328 1.5658363376700104" fill="#ff6609" stroke="none" /><path d="M 120.6074358757038 95.95851677861258 l 11.753792848029056 -2.3051269876316263 a32.97769830741644,32.97769830741644 0 0,0 0.10445179666842205,0.557985674450038 l -11.791730368607336 2.1024632357190254" fill="#ff990e" stroke="none" /><path d="M 120.67395015179393 96.31383870115 l 5.648145681739052 -1.0070632786394038 a26.737222855121757,26.737222855121757 0 0,0 0.07688624363522623,0.4537869622158087 l -5.664643786894501 0.9096905281077572" fill="#ff4506" stroke="none" /><path d="M 120.73433829027371 96.67025291283417 l 6.536587786575591 -1.0497168435109243 a27.620338763474248,27.620338763474248 0 0,0 0.07134479043469205,0.4700730280998608 l -6.5536884704495835 0.9370447030189814" fill="#ff5107" stroke="none" /><path d="M 120.78858239683441 97.02765380044208 l 3.1319236593902726 -0.4478016446042873 a24.163774979539294,24.163774979539294 0 0,0 0.05532814185154294,0.4122589219831295 l -3.139167800299652 0.39382438055649344" fill="#ff2003" stroke="none" /><path d="M 120.87857604477298 97.74499172005257 l 5.648849217451005 -0.6101087416215637 a26.681701343620578,26.681701343620578 0 0,0 0.045387955413450864,0.4570505169398418 l -5.6585142985466845 0.512782693977287" fill="#ff4406" stroke="none" /><path d="M 120.91429891909075 98.10471618934814 l 1.7797595080138082 -0.161284363173812 a22.787052476053777,22.787052476053777 0 0,0 0.032038070789892764,0.3909456130942109 l -1.7822720626231958 0.13062483287183235" fill="#ff0d01" stroke="none" /><path d="M 120.96714384426684 98.82574320788733 l 1.091176450873015 -0.061110915647263585 a22.09288635774772,22.09288635774772 0 0,0 0.017996646156593982,0.3798807564963309 l -1.0920667052631055 0.0423190525279329" fill="#ff0200" stroke="none" /><path d="M 120.98425023603335 99.18683210126433 l 1.158197694354119 -0.044881717232917666 a22.159066981562745,22.159066981562745 0 0,0 0.011489271041575336,0.38127297169750657 l -1.1587986598513393 0.024938598110412043" fill="#ff0300" stroke="none" /><line stroke="#e1ed5e" stroke-width="0.3" x1="184.98032266829074" x2="189.97916517819016" y1="98.17113171792111" y2="98.06355123074" /><path d="M 185.9800911702706 98.14961562048488 a86.0,86.0 0 0,1 -9.607161424134198,41.387399972396054" fill="none" id="id52" stroke="none" /><text fill="#e1ed5e" style="font-size:6.75px; font-family:Arial;" text-anchor="middle"><textPath startOffset="21.466115282336823" xlink:href="#id52">April</textPath></text><path d="M 120.99513854157772 99.54816195383933 l 3.3514259139065095 -0.07212630361037627 a24.352201942019093,24.352201942019093 0 0,0 0.005411978720540792,0.4191637161156899 l -3.352170899744766 0.014426329434223643" fill="#ff2303" stroke="none" /><path d="M 120.99980553446 99.90962569577887 l 7.955037582229431 -0.034235125909484417 a28.95511124865823,28.95511124865823 0 0,0 -0.0021450259548704475,0.49842848923561056 l -7.954448258985058 -0.10270284152981086" fill="#ff6309" stroke="none" /><path d="M 120.99824983174949 100.27111621757518 l 5.67197500894327 0.07323298003058172 a26.67244775837038,26.67244775837038 0 0,0 -0.009878886985810392,0.45903305988957993 l -5.669874059272452 -0.17085585571027648" fill="#ff4406" stroke="none" /><path d="M 120.9904718944345 100.63252640178507 l 4.78901444962662 0.14431205230417918 a25.791188304290785,25.791188304290785 0 0,0 -0.017191506071098303,0.4436363829550516 l -4.785820810704318 -0.22672568227323694" fill="#ff3705" stroke="none" /><path d="M 120.9764740272857 100.99374915477107 l 3.161550398489374 0.1497767466628649 a24.16509620644132,24.16509620644132 0 0,0 -0.023260227404100078,0.4153269856371542 l -3.1585038201977444 -0.20417544863544243" fill="#ff2003" stroke="none" /><path d="M 120.95626037817324 101.35467743843564 l 12.263165699492047 0.7927289314558436 a33.288761212260795,33.288761212260795 0 0,0 -0.041885887096621166,0.5714996509411598 l -12.247703253731089 -1.0037017188937736" fill="#ff9e0e" stroke="none" /><path d="M 120.8583938346157 102.4346265915055 l 4.650740586598964 0.5428422146069992 a25.68231413659937,25.68231413659937 0 0,0 -0.05503168453310993,0.43865667188628793 l -4.640707392819006 -0.622816640780682" fill="#ff3605" stroke="none" /><path d="M 120.76222939487914 103.15116336523771 l 6.459061530518624 0.9803165971091004 a27.533031186638645,27.533031186638645 0 0,0 -0.07514976403495525,0.46795765238171794 l -6.4412300121223796 -1.0913534791840231" fill="#ff5007" stroke="none" /><path d="M 120.70491114924044 103.5080841355445 l 4.616518960529639 0.7821881876304757 a25.68231413659937,25.68231413659937 0 0,0 -0.07760162861570366,0.4352311447140434 l -4.602370889574746 -0.8615380830777374" fill="#ff3605" stroke="none" /><path d="M 120.41448212921028 104.9243191809786 l 1.9051988704927993 0.45956626683771695 a22.959842822713647,22.959842822713647 0 0,0 -0.09598163930466719,0.38339893760653265 l -1.8970059168930713 -0.4922930438416456" fill="#ff0f01" stroke="none" /><path d="M 120.32669344350535 105.2749913415812 l 2.796326521251714 0.7256762261325734 a23.888952751193713,23.888952751193713 0 0,0 -0.10671755294142264,0.3971357143991741 l -2.7834208919685137 -0.7737028737072958" fill="#ff1c02" stroke="none" /><path d="M 120.23288151984713 105.62410040840565 l 4.827707082337375 1.3419497043366106 a26.010746918556112,26.010746918556112 0 0,0 -0.12362209821733813,0.4303447415902167 l -4.803892347233938 -1.4248519214314093" fill="#ff3b05" stroke="none" /><path d="M 120.13307415673323 105.97154293290107 l 0.959948994735731 0.2847243590737252 a22.0012841919975,22.0012841919975 0 0,0 -0.11081651609511324,0.36215478639954013 l -0.9549057061344851 -0.30120611802532243" fill="#ff0100" stroke="none" /><path d="M 120.02730092923936 106.31721596034902 l 2.9842568751631853 0.9413248059821396 a24.129198217965115,24.129198217965115 0 0,0 -0.1283532579862699,0.39503070904715376 l -2.9676113661606682 -0.9925544150070886" fill="#ff2003" stroke="none" /><path d="M 119.9155931802556 106.66101706037122 l 1.8579833594061814 0.621425570550421 a22.959150811847877,22.959150811847877 0 0,0 -0.1285812690109751,0.3737173553037645 l -1.8470112594519756 -0.6533156289434859" fill="#ff0f01" stroke="none" /><path d="M 119.79798401119884 107.00284435728193 l 1.8957002717062277 0.6705376640018764 a23.010795931712654,23.010795931712654 0 0,0 -0.13529881107267344,0.37228421954484425 l -1.8838771996283274 -0.7030696805528518" fill="#ff1001" stroke="none" /><line stroke="#e1ed5e" stroke-width="0.3" x1="174.80103733775053" x2="179.2010983576182" y1="140.37084112569926" y2="142.7455964860345" /><path d="M 175.68104954172406 140.8457921977663 a86.0,86.0 0 0,1 -30.038265399797805,32.042727171017184" fill="none" id="id53" stroke="none" /><text fill="#e1ed5e" style="font-size:6.75px; font-family:Arial;" text-anchor="middle"><textPath startOffset="22.206326154141568" xlink:href="#id53">May</textPath></text><path d="M 118.30583269289576 110.29060199501025 l 3.1213294476461946 1.7546516227856501 a24.5807121970479,24.5807121970479 0 0,0 -0.21051390579961532,0.36704873903155594 l -3.0906635456941998 -1.8081202076755212" fill="#ff2603" stroke="none" /><path d="M 118.12598468904814 110.60418214915192 l 5.170092505265404 3.02464134193631 a26.989850729388152,26.989850729388152 0 0,0 -0.23804935795870652,0.3989844165122792 l -5.11726227160847 -3.113187852334693" fill="#ff4806" stroke="none" /><path d="M 117.94076556474637 110.91462005526583 l 4.309982843774365 2.6220634239237026 a26.044915134341494,26.044915134341494 0 0,0 -0.23630844237805157,0.3810044513595151 l -4.264209761728351 -2.695864206648491" fill="#ff3b05" stroke="none" /><path d="M 117.75023020441432 111.22182372390056 l 1.260074501910306 0.7966282001178024 a22.49077303423004,22.49077303423004 0 0,0 -0.20969447519013443,0.32545048219864536 l -1.246175163343121 -0.8182002822379008" fill="#ff0801" stroke="none" /><path d="M 117.55443506779139 111.5257021239791 l 0.8343689636163649 0.5478209978844568 a21.998137973012433,21.998137973012433 0 0,0 -0.21055035330104735,0.3147442103379873 l -0.8248155049045964 -0.5621021224282509" fill="#ff0100" stroke="none" /><path d="M 117.35343817320211 111.8261652097733 l 1.8884829441710684 1.2869790453452885 a23.285318991647095,23.285318991647095 0 0,0 -0.22857212063706733,0.32927518749200685 l -1.866049916371865 -1.3192954950243148" fill="#ff1402" stroke="none" /><path d="M 117.14729908036423 112.12312394758627 l 0.7694692077962617 0.5440139893895726 a21.942355602943053,21.942355602943053 0 0,0 -0.22069851934390414,0.306530940530694 l -0.7599908960767549 -0.5571785353713977" fill="#ff0000" stroke="none" /><path d="M 113.75828350139079 115.86535959552629 l 2.7518923918271914 3.1733437067289576 a25.200359748549243,25.200359748549243 0 0,0 -0.3301661414049551,0.28137474850677097 l -2.696860773845189 -3.2202428454586753" fill="#ff2f04" stroke="none" /><path d="M 113.48314897796784 116.09983520530334 l 2.005258179065027 2.394420344964507 a24.12318893970364,24.12318893970364 0 0,0 -0.3206429822776955,0.26386734515145016 l -1.9637450682426403 -2.428582808973135" fill="#ff2003" stroke="none" /><path d="M 112.92097659922987 116.55440617244103 l 3.6036065296383524 4.616954896493626 a26.856812489461195,26.856812489461195 0 0,0 -0.3668784736887405,0.2813067691238455 l -3.523599327456118 -4.678301007444843" fill="#ff4606" stroke="none" /><path d="M 112.63410532772338 116.77436683061366 l 0.7785823089283732 1.0337277487415182 a22.294134255127513,22.294134255127513 0 0,0 -0.3085243088593515,0.228238907919635 l -0.7606730296504575 -1.0469766054009222" fill="#ff0500" stroke="none" /><path d="M 112.34349029814194 116.9893568818739 l 2.354992674316447 3.241369339771215 a25.006552844140835,25.006552844140835 0 0,0 -0.3504164346063523,0.25001282195824415 l -2.2988489118612097 -3.2814264235736785" fill="#ff2c04" stroke="none" /><path d="M 112.04921762599082 117.19931262002967 l 0.5734981822658186 0.8186236509274986 a21.99952230936586,21.99952230936586 0 0,0 -0.31201934578237667,0.21460975117341388 l -0.5593219518605588 -0.8283741914660065" fill="#ff0100" stroke="none" /><path d="M 111.7513745106137 117.40417183066458 l 0.5360821590922654 0.7939552946566929 a21.957992218762982,21.957992218762982 0 0,0 -0.31507136287544185,0.20881211899754282 l -0.5223360974768595 -0.8030654347455541" fill="#ff0000" stroke="none" /><path d="M 111.45004920935366 117.60387380957326 l 0.5089041768945296 0.7824145335460743 a21.933357361124248,21.933357361124248 0 0,0 -0.31826157762583207,0.20312959686617932 l -0.49536079722176707 -0.7910585592360625" fill="#ff0000" stroke="none" /><path d="M 111.1453310114006 117.79835938074945 l 0.5148138654850988 0.8221238277018322 a21.970010775285935,21.970010775285935 0 0,0 -0.3222485855475892,0.19795140107566211 l -0.5005860800052009 -0.8308636956058725" fill="#ff0100" stroke="none" /><line stroke="#e1ed5e" stroke-width="0.3" x1="143.8653032363475" x2="146.44561519142675" y1="172.8068346515853" y2="177.08958963109032" /><path d="M 144.38136562736335 173.6633856474863 a86.0,86.0 0 0,1 -40.68145358897372,12.25698825130547" fill="none" id="id54" stroke="none" /><text fill="#e1ed5e" style="font-size:6.75px; font-family:Arial;" text-anchor="middle"><textPath startOffset="21.466115282336833" xlink:href="#id54">June</textPath></text><path d="M 110.8373102113329 117.98757091392108 l 2.9126089144068303 4.8342954451580535 a26.643908498492692,26.643908498492692 0 0,0 -0.3948781126719459,0.2333009492560732 l -2.8289629307065027 -4.883714966707876" fill="#ff4306" stroke="none" /><path d="M 110.5260780823613 118.17145234162733 l 1.1202415162744614 1.933903127529071 a23.234932294601254,23.234932294601254 0 0,0 -0.3478061722528742,0.1974934217886892 l -1.0867865771003882 -1.9528997151123888" fill="#ff1302" stroke="none" /><path d="M 110.21172684928248 118.3499491758327 l 0.45885373327371004 0.8245366145203232 a21.943613998001226,21.943613998001226 0 0,0 -0.33163821467263754,0.18083559697758422 l -0.4445927067324238 -0.832312863257678" fill="#ff0000" stroke="none" /><path d="M 109.89434966115114 118.52300852407294 l 0.4836235348474693 0.9053816739057646 a22.026453943878032,22.026453943878032 0 0,0 -0.335965408728823,0.17576122314109888 l -0.4679672235921506 -0.9135723159915803" fill="#ff0100" stroke="none" /><path d="M 103.06178313531738 120.77559828337769 l 0.28961046023496256 1.9651393696379549 a22.986365263686054,22.986365263686054 0 0,0 -0.3919409615934366,0.05431944590267464 l -0.2557409074546955 -1.969833381033232" fill="#ff0f01" stroke="none" /><path d="M 102.34483914955558 120.86867818915974 l 0.24619011155555434 2.191051020442033 a23.20483880254494,23.20483880254494 0 0,0 -0.3973192206865067,0.041183761764436805 l -0.20843829426344498 -2.194964150662228" fill="#ff1302" stroke="none" /><path d="M 101.98527174616119 120.90594882070398 l 0.9108984652480291 9.592236796879755 a30.635390120872387,30.635390120872387 0 0,0 -0.5254052300112776,0.04533417403528369 l -0.7456489174952099 -9.606495223193702" fill="#ff7a0b" stroke="none" /><path d="M 101.26447882468166 120.96189622390904 l 0.1447732243219121 2.3999779553450615 a23.404340548388024,23.404340548388024 0 0,0 -0.40234505661344205,0.020796643677912105 l -0.10344009929499044 -2.4021144057851758" fill="#ff1502" stroke="none" /><line stroke="#e1ed5e" stroke-width="0.3" x1="102.19456741930631" x2="102.32365962044197" y1="184.97166512339345" y2="189.96999836594603" /><path d="M 102.22038585953345 185.97133177190398 a86.0,86.0 0 0,1 -42.740103519485714,-10.115201625700543" fill="none" id="id55" stroke="none" /><text fill="#e1ed5e" style="font-size:6.75px; font-family:Arial;" text-anchor="middle"><textPath startOffset="22.20632615414155" xlink:href="#id55">July</textPath></text><path d="M 100.54218724476979 120.99299961872073 l 0.21929372698399605 8.490854721079833 a29.49368610399385,29.49368610399385 0 0,0 -0.5076289072207546,0.008739291995401653 l -0.07310512987057348 -8.493371490354393" fill="#ff6b09" stroke="none" /><path d="M 100.18074693466247 120.99922214144158 l 0.014782426625847535 1.7174258644298916 a22.7174894817581,22.7174894817581 0 0,0 -0.3910587225766048,0.0 l 0.014782426625846353 -1.7174258644298916" fill="#ff0b01" stroke="none" /><path d="M 99.81925306533755 120.99922214144158 l -0.017642291509208152 2.04968565125492 a23.04976157623515,23.04976157623515 0 0,0 -0.39671966533402375,-0.0068298888151464695 l 0.05292164673589986 -2.049078285160614" fill="#ff1001" stroke="none" /><path d="M 96.58105272829116 120.7198165907248 l -0.5245583683580176 3.1789765444600153 a24.221964207132253,24.221964207132253 0 0,0 -0.410794165016064,-0.07142183117709232 l 0.5792015048461315 -3.1694761347619167" fill="#ff2103" stroke="none" /><path d="M 96.22490169976321 120.6578951692458 l -1.3872386622964126 7.591174740707154 a28.716888301000623,28.716888301000623 0 0,0 -0.48549644550392546,-0.09304654927210387 l 1.5177027223720332 -7.566170993086582" fill="#ff6008" stroke="none" /><path d="M 95.86986931433489 120.58985236759428 l -0.8107079313042496 4.041604948901075 a25.122113282390632,25.122113282390632 0 0,0 -0.4232580088689534,-0.08869783101902794 l 0.8801574016025897 -4.027051137155506" fill="#ff2e04" stroke="none" /><path d="M 95.51606077576429 120.51570834832081 l -0.7700688710573776 3.5233547059118937 a24.606526646212817,24.606526646212817 0 0,0 -0.4130145160103637,-0.0940007591841372 l 0.830603536460604 -3.5095772131500698" fill="#ff2703" stroke="none" /><path d="M 95.16358092515715 120.4354850818985 l -0.44741386672752653 1.8904729423684152 a22.942695836709177,22.942695836709177 0 0,0 -0.38352181012439884,-0.0942603298892958 l 0.4798889615951359 -1.8824913541650894" fill="#ff0f01" stroke="none" /><path d="M 94.11515582081647 120.15858648285463 l -3.0692666925779255 10.513800565890504 a31.952643533388994,31.952643533388994 0 0,0 -0.526648074271237,-0.15867474461789502 l 3.2497897412894083 -10.459410452166884" fill="#ff8c0c" stroke="none" /><path d="M 93.76903079525671 120.05430185196036 l -18.692907614229874 60.16290555588108 a84.0,84.0 0 0,0 -1.3771146196362385,-0.4409086133611737 l 19.725743578957054 -59.832224095860205" fill="#4dd2ff" stroke="none" /><path d="M 93.42475214034765 119.94407469862007 l -2.4055398980209484 7.296495651675299 a28.682803589568536,28.682803589568536 0 0,0 -0.46757103871076644,-0.15862548268001356 l 2.5307806696689408 -7.254007182097162" fill="#ff6008" stroke="none" /><path d="M 93.08242187328487 119.8279376855182 l -0.8332171284020513 2.3882603127617177 a23.529434344784473,23.529434344784473 0 0,0 -0.3812669646179648,-0.13670876868314397 l 0.8742036536497427 -2.3735640030386156" fill="#ff1702" stroke="none" /><path d="M 92.7421414339146 119.70592522655815 l -1.1779610145316908 3.198300361022624 a24.408330581248535,24.408330581248535 0 0,0 -0.39300873481179055,-0.14860227508516208 l 1.2328399701037642 -3.1775498358308285" fill="#ff2403" stroke="none" /><path d="M 92.40401165467489 119.57807347666478 l -0.868317319502661 2.2380208485635964 a23.40056499307009,23.40056499307009 0 0,0 -0.3742741233278546,-0.14893139780974993 l 0.9067125188723737 -2.22274260634778" fill="#ff1502" stroke="none" /><line stroke="#e1ed5e" stroke-width="0.3" x1="58.666819895761336" x2="56.23545636021788" y1="174.27360380694188" y2="178.64263932499728" /><path d="M 58.180547188652646 175.14741091055294 a86.0,86.0 0 0,1 -31.652253787137756,-30.449443065178592" fill="none" id="id56" stroke="none" /><text fill="#e1ed5e" style="font-size:6.75px; font-family:Arial;" text-anchor="middle"><textPath startOffset="22.20632615414155" xlink:href="#id56">August</textPath></text><path d="M 84.67929136418377 114.36230785411682 l -2.580935341597785 2.4194825976222014 a24.53767201386804,24.53767201386804 0 0,0 -0.2862186142485548,-0.31063377690395205 l 2.622200363842069 -2.374697565916905" fill="#ff2603" stroke="none" /><path d="M 84.43433777217949 114.09645910891817 l -0.693200968796603 0.6277714990781987 a21.93521368584695,21.93521368584695 0 0,0 -0.25104449954599856,-0.28205115654439916 l 0.7039043179909398 -0.6157461727929354" fill="#ff0000" stroke="none" /><path d="M 84.19399662182784 113.82643327865904 l -2.279252612378261 1.9937952318659853 a24.028235773126767,24.028235773126767 0 0,0 -0.26963970198746157,-0.3136518901028666 l 2.3132348239365013 -1.9542662426015884" fill="#ff1e03" stroke="none" /><path d="M 83.95833913139862 113.55231037782056 l -1.715543083335514 1.4493245133608923 a23.245802666266364,23.245802666266364 0 0,0 -0.2555975629203048,-0.3078837300465193 l 1.7402366461493555 -1.419579526200612" fill="#ff1302" stroke="none" /><path d="M 83.72743513129214 113.27417163493432 l -2.224194998105208 1.8143634019973265 a23.870358504456114,23.870358504456114 0 0,0 -0.25698383288983073,-0.32062684460074053 l 2.2550967430499 -1.7758087238183262" fill="#ff1c02" stroke="none" /><path d="M 83.28015986056508 112.70617746262583 l -1.031419602936087 0.7838233143406069 a22.295455667101244,22.295455667101244 0 0,0 -0.22957814723380288,-0.3075574453443067 l 1.044759016864975 -0.7659529894869923" fill="#ff0500" stroke="none" /><path d="M 82.05923443525364 110.91462005526583 l -0.909405367178219 0.5532547662555726 a22.064475907776714,22.064475907776714 0 0,0 -0.19460775741980302,-0.32617379525288337 l 0.9187940002962539 -0.5375188771165781" fill="#ff0200" stroke="none" /><line stroke="#e1ed5e" stroke-width="0.3" x1="26.63291911575756" x2="22.317208475507996" y1="142.92168965132927" y2="145.44649492493687" /><path d="M 25.769776987707644 143.4266507060508 a86.0,86.0 0 0,1 -11.730757126820373,-40.83630448921669" fill="none" id="id57" stroke="none" /><text fill="#e1ed5e" style="font-size:6.75px; font-family:Arial;" text-anchor="middle"><textPath startOffset="21.46611528233685" xlink:href="#id57">September</textPath></text><path d="M 81.87401531095188 110.60418214915194 l -2.8208107405858143 1.6502491541620614 a24.268072138894258,24.268072138894258 0 0,0 -0.20783639673382104,-0.3623802762874375 l 2.8487991334720126 -1.601449032016317" fill="#ff2203" stroke="none" /><path d="M 81.69416730710424 110.29060199501025 l -1.3383786176951429 0.752367942195697 a22.535354957248437,22.535354957248437 0 0,0 -0.1871760726632304,-0.33977894084926824 l 1.3511310998098898 -0.7292184829486063" fill="#ff0901" stroke="none" /><path d="M 81.51974371655577 109.97397251340807 l -0.8319977679538919 0.44903721796451146 a21.945438897548417,21.945438897548417 0 0,0 -0.17655365988784888,-0.33397298852387386 l 0.8396039360666269 -0.4346492143545114" fill="#ff0000" stroke="none" /><path d="M 81.35079622478065 109.6543875284942 l -1.8307834451284037 0.9477666217314633 a23.061559989965,23.061559989965 0 0,0 -0.17946432430304238,-0.35410013763476594 l 1.8468264392177127 -0.9161122723940124" fill="#ff1001" stroke="none" /><path d="M 81.18737489456691 109.33194174019688 l -0.8905353403055768 0.4417471706762495 a21.994079350521698,21.994079350521698 0 0,0 -0.16531875234463367,-0.34060559562693016 l 0.8980073492649294 -0.4263526190840346" fill="#ff0100" stroke="none" /><path d="M 80.73074385275274 108.34839909993369 l -3.224313386965527 1.3969327498660369 a24.513917745908888,24.513917745908888 0 0,0 -0.16441720293541762,-0.3886336996827373 l 3.2478815710932514 -1.3412245245171408" fill="#ff2503" stroke="none" /><path d="M 80.45479744820244 107.68017299344265 l -0.9853013627918672 0.3871684059994753 a22.05863976409527,22.05863976409527 0 0,0 -0.13582420504207646,-0.3545941396226454 l 0.9918198474274528 -0.370150699543672" fill="#ff0200" stroke="none" /><path d="M 80.32549172779594 107.34259656027581 l -1.9240680141710316 0.7180690356845325 a23.053694442502334,23.053694442502334 0 0,0 -0.1355510456117965,-0.37297826066609535 l 1.9361433207880525 -0.6848429780123201" fill="#ff1001" stroke="none" /><path d="M 80.20201598880116 107.00284435728193 l -0.8928061225623831 0.3157989376088072 a21.94701200704095,21.94701200704095 0 0,0 -0.12291284978224162,-0.35724227569683586 l 0.8981098032878532 -0.3003839588226744" fill="#ff0000" stroke="none" /><path d="M 79.86692584326677 105.97154293290107 l -1.8483203315136336 0.5482185247748832 a22.927908607479363,22.927908607479363 0 0,0 -0.10897019522994823,-0.3793395451420254 l 1.857483163629686 -0.5163215041282617" fill="#ff0f01" stroke="none" /><path d="M 79.76711848015287 105.62410040840567 l -0.9692547637296103 0.2694221338267409 a22.0060035204751,22.0060035204751 0 0,0 -0.09830597725168777,-0.365833112074708 l 0.973748817323073 -0.252698088576494" fill="#ff0100" stroke="none" /><path d="M 79.67330655649465 105.27499134158121 l -9.004689678399385 2.336811947265296 a30.302963306449954,30.302963306449954 0 0,0 -0.1266789200780147,-0.5060193150159219 l 9.043579912772458 -2.1814647928519824" fill="#ff760a" stroke="none" /><path d="M 79.58551787078972 104.9243191809786 l -5.5824613284666444 1.3465843131776278 a26.742574666151206,26.742574666151206 0 0,0 -0.10409156756052726,-0.4484237487213252 l 5.604813461957727 -1.2502919071077283" fill="#ff4506" stroke="none" /><path d="M 79.50377843672027 104.57218783832718 l -0.9161255342695968 0.20436440020109625 a21.938643064540674,21.938643064540674 0 0,0 -0.07904802459808814,-0.36928605447983576 l 0.9195075975921256 -0.18856452630509674" fill="#ff0000" stroke="none" /><path d="M 79.4281124754447 104.21870165774334 l -8.33974370326904 1.7102412476317603 a29.51329843018067,29.51329843018067 0 0,0 -0.09777343570937272,-0.4985446422406414 l 8.36794707195408 -1.5664328783231642" fill="#ff6b09" stroke="none" /><path d="M 79.35854240842038 103.8639653848113 l -4.5750841056444616 0.856430149778861 a25.654553380848782,25.654553380848782 0 0,0 -0.07751774677209759,-0.43476069078847246 l 4.589148294755748 -0.7775507082571749" fill="#ff3605" stroke="none" /><path d="M 79.29508885075956 103.50808413554451 l -0.9707738325842176 0.16448060350239024 a21.98460941644835,21.98460941644835 0 0,0 -0.06000567822871747,-0.37365541561012255 l 0.9734612651742257 -0.147745958199054" fill="#ff0100" stroke="none" /><path d="M 79.23777060512086 103.15116336523772 l -2.815556154502317 0.42732778056221593 a23.847800114333186,23.847800114333186 0 0,0 -0.05810453923887219,-0.40638301210573574 l 2.8224947447577886 -0.37879929647607957" fill="#ff1c02" stroke="none" /><path d="M 79.18660465613746 102.79330883721812 l -0.9191076904572253 0.12335092817358931 a21.92734804584843,21.92734804584843 0 0,0 -0.04698559848963112,-0.3745214495050722 l 0.9210947981937045 -0.10751172438110845" fill="#ff0000" stroke="none" /><path d="M 79.1416061653843 102.43462659150553 l -1.880142764577616 0.21945340598904875 a22.892906921270498,22.892906921270498 0 0,0 -0.04231666469687432,-0.3917997595359022 l 1.8836417307755424 -0.18705732456836444" fill="#ff0e01" stroke="none" /><path d="M 79.10278846688536 102.07522291339032 l -4.9144161769622 0.48803205347311424 a25.938589033884572,25.938589033884572 0 0,0 -0.040297949487310025,-0.44468451461850056 l 4.922088722726585 -0.4033661503060475" fill="#ff3a05" stroke="none" /><line stroke="#e1ed5e" stroke-width="0.3" x1="15.007084014347285" x2="10.007500721073583" y1="101.09737516637583" y2="101.16192664675087" /><path d="M 14.007167355692545 101.11028546245083 a86.0,86.0 0 0,1 10.666146001902534,-42.60595125391555" fill="none" id="id58" stroke="none" /><text fill="#e1ed5e" style="font-size:6.75px; font-family:Arial;" text-anchor="middle"><textPath startOffset="22.20632615414155" xlink:href="#id58">October</textPath></text><path d="M 80.2630227832202 92.82701384747504 l -7.834523572221086 -2.8472915825932668 a29.33587601635211,29.33587601635211 0 0,0 0.1765676247977171,-0.47311345055782444 l 7.784351358921742 2.9817281701804323" fill="#ff6909" stroke="none" /><line stroke="#e1ed5e" stroke-width="0.3" x1="26.266209847984243" x2="21.928928074336255" y1="57.711370442889674" y2="55.22380399835377" /><path d="M 25.398753493254645 57.213857153982495 a86.0,86.0 0 0,1 29.58750427330803,-30.492523968695096" fill="none" id="id59" stroke="none" /><text fill="#e1ed5e" style="font-size:6.75px; font-family:Arial;" text-anchor="middle"><textPath startOffset="21.46611528233685" xlink:href="#id59">November</textPath></text><line stroke="#e1ed5e" stroke-width="0.3" x1="56.762969772571076" x2="54.21961505331055" y1="26.818313649435495" y2="22.513508569990535" /><path d="M 56.25429882871897 25.957352633546506 a86.0,86.0 0 0,1 42.265352541879196,-11.944610805530505" fill="none" id="id60" stroke="none" /><text fill="#e1ed5e" style="font-size:6.75px; font-family:Arial;" text-anchor="middle"><textPath startOffset="22.20632615414155" xlink:href="#id60">December</textPath></text><path d="M 91.90106846888425 80.62456947434976 l -0.5487517971999002 -1.3128030878670247 a22.422877535996445,22.422877535996445 0 0,0 0.3573951810258267,-0.14579046799900638 l 0.526072746585693 1.322054442049608" fill="#ff0701" stroke="none" /><path d="M 92.23578459929587 80.48803036053334 l -0.8025386949632494 -2.0168310437652197 a23.170639494713118,23.170639494713118 0 0,0 0.37185217083055777,-0.144272865212166 l 0.7677033591330152 2.030346612867937" fill="#ff1202" stroke="none" /><path d="M 92.57280143429618 80.3572730644239 l -0.48096070380936995 -1.2719977375176996 a22.35989023191541,22.35989023191541 0 0,0 0.36118428383099943,-0.13302721989451638 l 0.45899409420580106 1.2800882252185384" fill="#ff0601" stroke="none" /><path d="M 94.28887869178378 79.79150937346287 l -2.6649942092123875 -9.429936362788466 a30.79928027670276,30.79928027670276 0 0,0 0.511417811565544,-0.13978980682061792 l 2.502278508423121 9.474412710435379" fill="#ff7c0b" stroke="none" /><path d="M 94.98787191387505 79.60689891045804 l -1.3316856593521158 -5.418297338777152 a26.57954592657177,26.57954592657177 0 0,0 0.4452406984885436,-0.1053740881822172 l 1.238221273901038 5.44041733910024" fill="#ff4306" stroke="none" /><path d="M 95.33964822691252 79.52364482259891 l -4.151301922092495 -18.23972454102513 a39.70617168158261,39.70617168158261 0 0,0 0.667739210731444,-0.14594192838601236 l 3.83671998720753 18.308479967507008" fill="#ffef16" stroke="none" /><path d="M 96.04723909329186 79.375362276772 l -0.18239837140340406 -0.9517146167676788 a21.969035539936417,21.969035539936417 0 0,0 0.37201410584120587,-0.06798319998815892 l 0.1659891444593049 0.9547132981065738" fill="#ff0100" stroke="none" /><path d="M 96.40284397218896 79.31037775812273 l -0.9601389434338311 -5.522393770461347 a26.605238598554795,26.605238598554795 0 0,0 0.45187197961004283,-0.07456274842418241 l 0.8649377576849027 5.538102781825156" fill="#ff4306" stroke="none" /><path d="M 97.47563105711357 79.15227682838746 l -0.4775201871501763 -3.943642508602746 a24.97244783034271,24.97244783034271 0 0,0 0.42718736931074297,-0.047999478389381185 l 0.40956611432971535 3.951277940462725" fill="#ff2c04" stroke="none" /></svg>