<?xml version="1.0" encoding="utf-8" ?>
<svg baseProfile="full" height="200mm" version="1.1" viewBox="0,0,200,200" width="200mm" xmlns="http://www.w3.org/2000/svg" xmlns:ev="http://www.w3.org/2001/xml-events" xmlns:xlink="http://www.w3.org/1999/xlink"><defs /><rect fill="#1a1a1a" height="200" width="200" x="0" y="0" /><rect fill="#1a1a1a" height="200" width="180" x="10" y="0" /><text alignment-baseline="middle" fill="#e1ed5e" style="dominant-baseline: central; font-size:9.0px; font-family:Arial;" text-anchor="middle" x="100.0" y="100.0">2021</text><line stroke="#e1ed5e" stroke-width="0.3" x1="100.0" x2="100.0" y1="15.0" y2="10.0" /><path d="M 100.0 14.0 a86.0,86.0 0 0,1 42.46469731375804,11.215312516191453" fill="none" id="id1" stroke="none" /><text fill="#e1ed5e" style="font-size:6.75px; font-family:Arial;" text-anchor="middle"><textPath startOffset="22.20632615414155" xlink:href="#id1">January</textPath></text><line stroke="#e1ed5e" stroke-width="0.3" x1="143.23703022742887" x2="145.7803849466894" y1="26.81831364943548" y2="22.513508569990506" /><path d="M 143.74570117128098 25.957352633546492 a86.0,86.0 0 0,1 28.547481713284135,27.462654790039103" fill="none" id="id2" stroke="none" /><text fill="#e1ed5e" style="font-size:6.75px; font-family:Arial;" text-anchor="middle"><textPath startOffset="19.985693538727396" xlink:href="#id2">February</textPath></text><line stroke="#e1ed5e" stroke-width="0.3" x1="172.23445277983987" x2="176.4835382374775" y1="55.19839476539836" y2="52.563006222186495" /><path d="M 173.08426987136738 54.67131705675599 a86.0,86.0 0 0,1 12.851231095245387,41.99856678651699" fill="none" id="id3" stroke="none" /><text fill="#e1ed5e" style="font-size:6.75px; font-family:Arial;" text-anchor="middle"><textPath startOffset="22.20632615414155" xlink:href="#id3">March</textPath></text><line stroke="#e1ed5e" stroke-width="0.3" x1="184.98032266829074" x2="189.97916517819016" y1="98.17113171792111" y2="98.06355123074" /><path d="M 185.9800911702706 98.14961562048488 a86.0,86.0 0 0,1 -9.607161424134198,41.387399972396054" fill="none" id="id4" stroke="none" /><text fill="#e1ed5e" style="font-size:6.75px; font-family:Arial;" text-anchor="middle"><textPath startOffset="21.466115282336823" xlink:href="#id4">April</textPath></text><line stroke="#e1ed5e" stroke-width="0.3" x1="174.80103733775053" x2="179.2010983576182" y1="140.37084112569926" y2="142.7455964860345" /><path d="M 175.68104954172406 140.8457921977663 a86.0,86.0 0 0,1 -30.038265399797805,32.042727171017184" fill="none" id="id5" stroke="none" /><text fill="#e1ed5e" style="font-size:6.75px; font-family:Arial;" text-anchor="middle"><textPath startOffset="22.206326154141568" xlink:href="#id5">May</textPath></text><line stroke="#e1ed5e" stroke-width="0.3" x1="143.8653032363475" x2="146.44561519142675" y1="172.8068346515853" y2="177.08958963109032" /><path d="M 144.38136562736335 173.6633856474863 a86.0,86.0 0 0,1 -40.68145358897372,12.25698825130547" fill="none" id="id6" stroke="none" /><text fill="#e1ed5e" style="font-size:6.75px; font-family:Arial;" text-anchor="middle"><textPath startOffset="21.466115282336833" xlink:href="#id6">June</textPath></text><line stroke="#e1ed5e" stroke-width="0.3" x1="102.19456741930631" x2="102.32365962044197" y1="184.97166512339345" y2="189.96999836594603" /><path d="M 102.22038585953345 185.97133177190398 a86.0,86.0 0 0,1 -42.740103519485714,-10.115201625700543" fill="none" id="id7" stroke="none" /><text fill="#e1ed5e" style="font-size:6.75px; font-family:Arial;" text-anchor="middle"><textPath startOffset="22.20632615414155" xlink:href="#id7">July</textPath></text><line stroke="#e1ed5e" stroke-width="0.3" x1="58.666819895761336" x2="56.23545636021788" y1="174.27360380694188" y2="178.64263932499728" /><path d="M 58.180547188652646 175.14741091055294 a86.0,86.0 0 0,1 -31.652253787137756,-30.449443065178592" fill="none" id="id8" stroke="none" /><text fill="#e1ed5e" style="font-size:6.75px; font-family:Arial;" text-anchor="middle"><textPath startOffset="22.20632615414155" xlink:href="#id8">August</textPath></text><line stroke="#e1ed5e" stroke-width="0.3" x1="26.63291911575756" x2="22.317208475507996" y1="142.92168965132927" y2="145.44649492493687" /><path d="M 25.769776987707644 143.4266507060508 a86.0,86.0 0 0,1 -11.730757126820373,-40.83630448921669" fill="none" id="id9" stroke="none" /><text fill="#e1ed5e" style="font-size:6.75px; font-family:Arial;" text-anchor="middle"><textPath startOffset="21.46611528233685" xlink:href="#id9">September</textPath></text><line stroke="#e1ed5e" stroke-width="0.3" x1="15.007084014347285" x2="10.007500721073583" y1="101.09737516637583" y2="101.16192664675087" /><path d="M 14.007167355692545 101.11028546245083 a86.0,86.0 0 0,1 10.666146001902534,-42.60595125391555" fill="none" id="id10" stroke="none" /><text fill="#e1ed5e" style="font-size:6.75px; font-family:Arial;" text-anchor="middle"><textPath startOffset="22.20632615414155" xlink:href="#id10">October</textPath></text><path d="M 81.43458229118936 90.18545643968196 l -35.25682398264036 -18.6383974873818 a60.88023944562676,60.88023944562676 0 0,0 0.49774495383115375,-0.9222458050917329 l 34.930770929590736 19.242524275806005" fill="#4cff2c" stroke="none" /><path d="M 81.6062741919709 89.86733742301443 l -11.506736902534744 -6.338785497424228 a34.137168482078266,34.137168482078266 0 0,0 0.28795897831014466,-0.5122468910874953 l 11.395920282932167 6.5359158984465076" fill="#ff3d05" stroke="none" /><line stroke="#e1ed5e" stroke-width="0.3" x1="26.266209847984243" x2="21.928928074336255" y1="57.711370442889674" y2="55.22380399835377" /><path d="M 25.398753493254645 57.213857153982495 a86.0,86.0 0 0,1 29.58750427330803,-30.492523968695096" fill="none" id="id11" stroke="none" /><text fill="#e1ed5e" style="font-size:6.75px; font-family:Arial;" text-anchor="middle"><textPath startOffset="21.46611528233685" xlink:href="#id11">November</textPath></text><path d="M 81.96595687620814 89.24020034530311 l -15.316754319578386 -9.138561259258234 a38.83581410464738,38.83581410464738 0 0,0 0.3474588538550738,-0.5711309975835408 l 15.157179667437095 9.400860030048849" fill="#ff880c" stroke="none" /><path d="M 82.15384107792192 88.93136811851018 l -8.018235004505593 -4.973108890919466 a30.435247989767998,30.435247989767998 0 0,0 0.27996428633493886,-0.44283626741308596 l 7.931443121924691 5.110392806046768" fill="#ff0000" stroke="none" /><path d="M 83.39014120810768 87.1503855733568 l -25.092123466164292 -19.411610641947195 a52.7242066528982,52.7242066528982 0 0,0 0.561502555801947,-0.7130512243911625 l 24.754266829768373 19.840654260291405" fill="#b0ff20" stroke="none" /><path d="M 83.84228863543731 86.58626213691792 l -12.229557764226374 -10.152680557875073 a36.89462190864583,36.89462190864583 0 0,0 0.4098630338424996,-0.48514855461381395 l 12.05298411689675 10.361688062118002" fill="#ff6a09" stroke="none" /><path d="M 84.5562425177563 85.77008943001954 l -11.648749369185461 -10.733182126578134 a36.83965152484091,36.83965152484091 0 0,0 0.43371265257912356,-0.46265441803122487 l 11.46226939463588 10.932105961487409" fill="#ff6909" stroke="none" /><path d="M 85.05521093208273 85.24692304244772 l -6.8436571328405 -6.755866536025198 a30.61651577258956,30.61651577258956 0 0,0 0.3734692983119161,-0.37186550245681266 l 6.726352034361271 6.87266788913212" fill="#ff0300" stroke="none" /><path d="M 85.57189188830299 84.74124197986013 l -11.000722545948163 -11.634052231646107 a37.011466761718054,37.011466761718054 0 0,0 0.46668307655674607,-0.4337310587004491 l 10.798831585596561 11.821687876421203" fill="#ff6c09" stroke="none" /><path d="M 86.65592168130627 83.78471172551755 l -10.26773915677917 -12.477021370679719 a37.15866732363949,37.15866732363949 0 0,0 0.4973892904070195,-0.4021875484025574 l 10.051446467807649 12.651915016346411" fill="#ff6e0a" stroke="none" /><path d="M 87.22198572758235 83.33499621200491 l -6.159059946139156 -8.03260625201022 a31.12209378636502,31.12209378636502 0 0,0 0.4279344897097625,-0.3223113856370154 l 6.019879302671004 8.13743422715309" fill="#ff0c01" stroke="none" /><path d="M 89.00827224532344 82.1063720568725 l -8.309784472806772 -13.527645058413992 a36.876073154622745,36.876073154622745 0 0,0 0.5437252903621049,-0.32758840365937447 l 8.075697116227017 13.668680071531986" fill="#ff6909" stroke="none" /><line stroke="#e1ed5e" stroke-width="0.3" x1="56.762969772571076" x2="54.21961505331055" y1="26.818313649435495" y2="22.513508569990535" /><path d="M 56.25429882871897 25.957352633546506 a86.0,86.0 0 0,1 42.265352541879196,-11.944610805530505" fill="none" id="id12" stroke="none" /><text fill="#e1ed5e" style="font-size:6.75px; font-family:Arial;" text-anchor="middle"><textPath startOffset="22.20632615414155" xlink:href="#id12">December</textPath></text><path d="M 89.3179101791058 81.91981866633112 l -8.082974181830192 -13.680997012120244 a36.890379192133096,36.890379192133096 0 0,0 0.549496721518695,-0.3183039686628203 l 7.846280727846176 13.818105138173111" fill="#ff6a09" stroke="none" /><path d="M 90.26544431104013 81.39251694778311 l -7.463373187444251 -14.266145732284311 a37.100461278790604,37.100461278790604 0 0,0 0.5684135391461924,-0.2911634920523173 l 7.216699160709295 14.392501749649133" fill="#ff6d0a" stroke="none" /><path d="M 90.91171255644093 81.06846463323043 l -6.927717443994011 -14.430917663691154 a37.007643599232594,37.007643599232594 0 0,0 0.576652730196547,-0.2707461888962148 l 6.678286502497856 14.548028835227376" fill="#ff6b09" stroke="none" /><path d="M 91.23893434514133 80.91482961587045 l -8.396342828465125 -18.29065547476554 a41.12577080734272,41.12577080734272 0 0,0 0.6459054573380356,-0.2897989510154076 l 8.080255252660315 18.432474756297477" fill="#ffab0f" stroke="none" /><path d="M 92.57280143429618 80.3572730644239 l -5.634568521005953 -14.901754662785809 a36.931436044744046,36.931436044744046 0 0,0 0.5965617067131986,-0.21971871117381522 l 5.377224488520185 14.996536641765946" fill="#ff6a09" stroke="none" /><path d="M 93.59665428221793 80.00007090966166 l -4.8714655928285655 -15.21532191398542 a36.97614465283529,36.97614465283529 0 0,0 0.6078431426153673,-0.18885982323939754 l 4.60883707750247 15.296921872107344" fill="#ff6b09" stroke="none" /><path d="M 95.33964822691252 79.52364482259891 l -9.136186534617035 -40.14199132566122 a62.168548334678725,62.168548334678725 0 0,0 1.0454892939621572,-0.2285034654481804 l 8.443854516501357 40.29330828920527" fill="#3dff2e" stroke="none" /><path d="M 96.04723909329186 79.375362276772 l -2.9922085540257695 -15.61268664502154 a36.8968329017581,36.8968329017581 0 0,0 0.6247949426531654,-0.11417728218109856 l 2.723018490269711 15.661879408553375" fill="#ff6a09" stroke="none" /><path d="M 97.83486435360386 79.11191278185805 l -1.6363068526322577 -15.786225823918798 a36.87080419763699,36.87080419763699 0 0,0 0.631851236890733,-0.06000188841626856 l 1.3643304886512884 15.812053256850247" fill="#ff6909" stroke="none" /><path d="M 98.19473922651362 79.07773832637324 l -5.415782320459142 -62.766785020880285 a84.0,84.0 0 0,0 1.4416392425506632,-0.11189895124615123 l 4.334552888546145 62.8507092343149" fill="#4dd2ff" stroke="none" /></svg>