<?xml version="1.0" encoding="utf-8" ?>
<svg baseProfile="full" height="200mm" version="1.1" viewBox="0,0,200,200" width="200mm" xmlns="http://www.w3.org/2000/svg" xmlns:ev="http://www.w3.org/2001/xml-events" xmlns:xlink="http://www.w3.org/1999/xlink"><defs /><rect fill="#1a1a1a" height="200" width="200" x="0" y="0" /><rect fill="#1a1a1a" height="200" width="180" x="10" y="0" /><text alignment-baseline="middle" fill="#e1ed5e" style="dominant-baseline: central; font-size:9.0px; font-family:Arial;" text-anchor="middle" x="100.0" y="100.0">2023</text><line stroke="#e1ed5e" stroke-width="0.3" x1="100.0" x2="100.0" y1="15.0" y2="10.0" /><path d="M 100.0 14.0 a86.0,86.0 0 0,1 42.46469731375804,11.215312516191453" fill="none" id="id25" stroke="none" /><text fill="#e1ed5e" style="font-size:6.75px; font-family:Arial;" text-anchor="middle"><textPath startOffset="22.20632615414155" xlink:href="#id25">January</textPath></text><line stroke="#e1ed5e" stroke-width="0.3" x1="143.23703022742887" x2="145.7803849466894" y1="26.81831364943548" y2="22.513508569990506" /><path d="M 143.74570117128098 25.957352633546492 a86.0,86.0 0 0,1 28.547481713284135,27.462654790039103" fill="none" id="id26" stroke="none" /><text fill="#e1ed5e" style="font-size:6.75px; font-family:Arial;" text-anchor="middle"><textPath startOffset="19.985693538727396" xlink:href="#id26">February</textPath></text><path d="M 111.90073688211348 82.69761687909136 l 6.083532320771573 -8.844797425999976 a31.73498053118161,31.73498053118161 0 0,0 0.44741616767628395,0.3134436179408798 l -6.234879628031508 8.738768965295161" fill="#ff7f0b" stroke="none" /><path d="M 112.77801427241765 83.33499621200491 l 3.5980598758835565 -4.6925664804166525 a26.913223743743604,26.913223743743604 0 0,0 0.36520917155605553,0.2850515512513916 l -3.6783016025990425 4.629936539942037" fill="#ff3c05" stroke="none" /><path d="M 116.60985879189232 87.15038557335679 l 7.725569427395246 -5.97660640057627 a30.76750976681945,30.76750976681945 0 0,0 0.32045688787585663,0.42168370091045854 l -7.8273022554952165 5.842737923784778" fill="#ff720a" stroke="none" /><path d="M 116.82858285166822 87.43820079747576 l 7.66888373470603 -5.724485444318428 a30.56982295231486,30.56982295231486 0 0,0 0.3111387663689885,0.4243929276625218 l -7.766285113588646 5.591630072984413" fill="#ff6f0a" stroke="none" /><path d="M 117.45458315368197 88.32363383020206 l 8.205230320728202 -5.488946535634737 a30.87189640784657,30.87189640784657 0 0,0 0.29167086286658817,0.4442347345335128 l -8.298497818952715 5.34689373712355" fill="#ff730a" stroke="none" /><path d="M 117.65298651832404 88.62581576622439 l 4.784849853861029 -3.0829776996814138 a26.69205934796246,26.69205934796246 0 0,0 0.24553186978054845,0.3883724533867591 l -4.837209319887534 3.0001575985804485" fill="#ff3905" stroke="none" /><line stroke="#e1ed5e" stroke-width="0.3" x1="172.23445277983987" x2="176.4835382374775" y1="55.19839476539836" y2="52.563006222186495" /><path d="M 173.08426987136738 54.67131705675599 a86.0,86.0 0 0,1 12.851231095245387,41.99856678651699" fill="none" id="id27" stroke="none" /><text fill="#e1ed5e" style="font-size:6.75px; font-family:Arial;" text-anchor="middle"><textPath startOffset="22.20632615414155" xlink:href="#id27">March</textPath></text><path d="M 118.21658344932153 89.55222093294921 l 8.077119327549868 -4.632479985460165 a30.311268841955357,30.311268841955357 0 0,0 0.25568617419443596,0.454837173661896 l -8.155663143036737 4.492759301863475" fill="#ff6c09" stroke="none" /><path d="M 118.56541770881063 90.18545643968196 l 8.57670893873362 -4.534047377960285 a30.701418548096033,30.701418548096033 0 0,0 0.24296600720459988,0.4693329913924298 l -8.653484379098337 4.38574166430751" fill="#ff710a" stroke="none" /><path d="M 118.73160827565052 90.50648371742162 l 9.591845092514518 -4.861319766339915 a31.75341444144147,31.75341444144147 0 0,0 0.24289848021705818,0.4896685142514188 l -9.674103585684984 4.6954916635895465" fill="#ff7f0b" stroke="none" /><path d="M 118.89224826269711 90.83032412892265 l 8.56754718914608 -4.158405587425498 a30.523402851280444,30.523402851280444 0 0,0 0.22535254800753377,0.47464993816879925 l -8.63785793099537 4.0103132336161575" fill="#ff6f0a" stroke="none" /><path d="M 119.04729006885535 91.15688171328212 l 8.21702036142733 -3.814930247704153 a30.059421417229657,30.059421417229657 0 0,0 0.21384799586459313,0.47118571226159683 l -8.28147067425527 3.6729225266004932" fill="#ff6809" stroke="none" /><path d="M 119.196687751892 91.48605970444005 l 9.857347519177337 -4.3718410871474545 a31.78333411358019,31.78333411358019 0 0,0 0.21750287544264377,0.5020266244459218 l -9.931141104462661 4.20151531811493" fill="#ff800b" stroke="none" /><path d="M 119.34039704204932 91.81776055985345 l 9.955592116916732 -4.211859678575484 a31.809883271822343,31.809883271822343 0 0,0 0.2090035254377626,0.5061186148584728 l -10.026617329240691 4.039866493263709" fill="#ff800b" stroke="none" /><path d="M 119.47837535516314 92.15188598940014 l 18.46364169817783 -7.4392634116559 a40.90599670618614,40.90599670618614 0 0,0 0.2575255530036059,0.6553744427393378 l -18.588960801063138 7.120339964020777" fill="#fff617" stroke="none" /><path d="M 119.61058180528143 92.48833698450437 l 8.662107782245835 -3.3179451436065737 a30.275821861550938,30.275821861550938 0 0,0 0.18222499822105814,0.4882723986632763 l -8.717937368968519 3.168349607913964" fill="#ff6b09" stroke="none" /><path d="M 119.7369772167798 92.82701384747503 l 10.089427962603848 -3.666788802954467 a31.73507786362282,31.73507786362282 0 0,0 0.18216980317716866,0.5150185648313742 l -10.151050846590826 3.492572611696478" fill="#ff7f0b" stroke="none" /><path d="M 119.85752413597 93.16781622104841 l 9.306487000725973 -3.2019918037117288 a30.84192317617439,30.84192317617439 0 0,0 0.16840087507920573,0.5034971820188684 l -9.360225169576948 3.0413215187705465" fill="#ff730a" stroke="none" /><path d="M 119.97218684219823 93.5106431181261 l 9.429386475963785 -3.0637933894328286 a30.914643677219118,30.914643677219118 0 0,0 0.16008561767416554,0.5075151553670402 l -9.480727577406157 2.901028067639369" fill="#ff740a" stroke="none" /><path d="M 120.08093135843002 93.85539295169968 l 9.403138660514534 -2.8772864693493023 a30.83350365310166,30.83350365310166 0 0,0 0.15092868318683977,0.5088564890385024 l -9.451273240813077 2.71500059356427" fill="#ff730a" stroke="none" /><path d="M 120.18372546131832 94.20196356495316 l 9.435587603600272 -2.7104946912103633 a30.81718365399643,30.81718365399643 0 0,0 0.1420719557901372,0.5111084155785333 l -9.480846329956773 2.547674972212878" fill="#ff730a" stroke="none" /><path d="M 120.28053869075195 94.5502522615342 l 9.384150062097913 -2.5216909352443624 a30.71705704217413,30.71705704217413 0 0,0 0.13282006921802672,0.5118099074131707 l -9.426166463186242 2.3597846022823417" fill="#ff710a" stroke="none" /><path d="M 120.37134235888165 94.90015583598534 l 44.17530207157249 -11.059023627133278 a66.53854759102632,66.53854759102632 0 0,0 0.2685850644763571,1.1134584898771474 l -44.35911993630967 10.296979905596725" fill="#37ff78" stroke="none" /><path d="M 120.45610955862082 95.25157060432595 l 9.437682001488827 -2.190747293099407 a30.688612659377426,30.688612659377426 0 0,0 0.11501743197206332,0.5156005948787473 l -9.473993820462928 2.0279685286706957" fill="#ff710a" stroke="none" /><path d="M 120.53481517161879 95.60439243477599 l 9.611498092079705 -2.057402191039602 a30.82923187994598,30.82923187994598 0 0,0 0.10661145359626194,0.5198753100224712 l -9.645488841590964 1.891651224853719" fill="#ff730a" stroke="none" /><path d="M 120.6074358757038 95.95851677861258 l 9.412639259517789 -1.8459852970433932 a30.59194659840827,30.59194659840827 0 0,0 0.09689529438958898,0.517618537119478 l -9.443020277817238 1.6836886824613522" fill="#ff6f0a" stroke="none" /><path d="M 120.67395015179393 96.31383870115 l 8.951504614670954 -1.596051535135097 a30.092679218430753,30.092679218430753 0 0,0 0.08653527999381443,0.5107361210048269 l -8.977651756184992 1.4417296258144323" fill="#ff6909" stroke="none" /><path d="M 120.73433829027371 96.67025291283417 l 9.788836664088407 -1.5719985809376018 a30.914257550349966,30.914257550349966 0 0,0 0.07985315622886245,0.5261325280111835 l -9.81444571375657 1.403266940534336" fill="#ff740a" stroke="none" /><path d="M 120.78858239683441 97.02765380044208 l 9.808594102073247 -1.402430278590958 a30.90834642841755,30.90834642841755 0 0,0 0.07077128375165499,0.5273282667815785 l -9.831281384882738 1.233383669744715" fill="#ff740a" stroke="none" /><path d="M 120.83666639777658 97.38593545837742 l 37.83392705822664 -4.74645633352361 a59.130498087138335,59.130498087138335 0 0,0 0.11800658578828231,1.01100836162654 l -37.91002399701851 4.094504233572217" fill="#3cff2e" stroke="none" /><path d="M 120.87857604477298 97.74499172005257 l 9.768645558647208 -1.0550708329620977 a30.825457267376677,30.825457267376677 0 0,0 0.052436854083348944,0.5280319645857235 l -9.785359538412786 0.8867633376719393" fill="#ff730a" stroke="none" /><path d="M 120.91429891909075 98.10471618934814 l 9.807009587224703 -0.8887252961947562 a30.847196032171478,30.847196032171478 0 0,0 0.04337044693195697,0.5292293058835772 l -9.820854517976155 0.7197820731034102" fill="#ff730a" stroke="none" /><line stroke="#e1ed5e" stroke-width="0.3" x1="184.98032266829074" x2="189.97916517819016" y1="98.17113171792111" y2="98.06355123074" /><path d="M 185.9800911702706 98.14961562048488 a86.0,86.0 0 0,1 -9.607161424134198,41.387399972396054" fill="none" id="id28" stroke="none" /><text fill="#e1ed5e" style="font-size:6.75px; font-family:Arial;" text-anchor="middle"><textPath startOffset="21.466115282336823" xlink:href="#id28">April</textPath></text><path d="M 120.9764740272857 100.99374915477107 l 9.59217380401176 0.4544240656344125 a30.60293181886642,30.60293181886642 0 0,0 -0.02945699645711574,0.5259744598327389 l -9.582930456667114 -0.6194702418025748" fill="#ff700a" stroke="none" /><path d="M 120.95626037817324 101.35467743843564 l 5.765368705838899 0.3726912516413229 a26.77740210503964,26.77740210503964 0 0,0 -0.033692910173521703,0.4597129901759392 l -5.75809923700104 -0.47187737831403237" fill="#ff3a05" stroke="none" /><path d="M 120.92983693683757 101.71520430193887 l 9.374537627097194 0.7682452240411214 a30.405963876505325,30.405963876505325 0 0,0 -0.047238421288364266,0.5212720426029415 l -9.359924609531754 -0.9294986551926334" fill="#ff6d0a" stroke="none" /><path d="M 120.89721153311464 102.0752229133903 l 9.625784139736233 0.9559001579935806 a30.673131107188084,30.673131107188084 0 0,0 -0.056698112158930176,0.524954101868258 l -9.607903726076252 -1.12145058174663" fill="#ff710a" stroke="none" /><path d="M 120.81339534386255 102.79330883721812 l 9.440008772884969 1.2669177466276185 a30.524644151298524,30.524644151298524 0 0,0 -0.07437249454198755,0.5201610536061377 l -9.41680222732638 -1.4292242722141655" fill="#ff6f0a" stroke="none" /><path d="M 120.76222939487914 103.15116336523771 l 8.887862051104847 1.3489449884238243 a29.989646512586766,29.989646512586766 0 0,0 -0.08185494882983706,0.5097108445000457 l -8.863325347913722 -1.501735062617075" fill="#ff6709" stroke="none" /><path d="M 120.64145759157962 103.86396538481128 l 8.833434674918548 1.653569553479626 a29.98687155934968,29.98687155934968 0 0,0 -0.09934231734448136,0.5065443358979023 l -8.803662424598402 -1.8053776164454731" fill="#ff6709" stroke="none" /><path d="M 120.49622156327973 104.57218783832717 l 9.393962042173468 2.0955549719408726 a30.624857063365774,30.624857063365774 0 0,0 -0.11920278499129668,0.513522477915775 l -9.356498691251618 -2.2569461072052124" fill="#ff700a" stroke="none" /><line stroke="#e1ed5e" stroke-width="0.3" x1="174.80103733775053" x2="179.2010983576182" y1="140.37084112569926" y2="142.7455964860345" /><path d="M 175.68104954172406 140.8457921977663 a86.0,86.0 0 0,1 -30.038265399797805,32.042727171017184" fill="none" id="id29" stroke="none" /><text fill="#e1ed5e" style="font-size:6.75px; font-family:Arial;" text-anchor="middle"><textPath startOffset="22.206326154141568" xlink:href="#id29">May</textPath></text><path d="M 117.14729908036423 112.12312394758627 l 2.4086553475917185 1.7029170127037077 a23.94983845924449,23.94983845924449 0 0,0 -0.2408899929491616,0.3345751313722091 l -2.378985562266954 -1.744125749527048" fill="#ff1101" stroke="none" /><path d="M 116.93607887273984 112.41649034213515 l 5.043352842546764 3.6974758048780396 a27.25353781647501,27.25353781647501 0 0,0 -0.2806319283577125,0.3759523282494589 l -4.9789596474939595 -3.783741012636814" fill="#ff4106" stroke="none" /><path d="M 116.71984013943494 112.70617746262583 l 3.202346192885296 2.4336105300190938 a25.022123985024177,25.022123985024177 0 0,0 -0.2635582497243622,0.3406845657783335 l -3.159981125942865 -2.48837308991068" fill="#ff2103" stroke="none" /><path d="M 116.0416608686014 113.55231037782055 l 5.531614296995023 4.673216474112019 a28.241388606105303,28.241388606105303 0 0,0 -0.3169187983405323,0.3686481604005789 l -5.4503529890837115 -4.767741733674126" fill="#ff4f07" stroke="none" /><path d="M 115.80600337817218 113.82643327865902 l 4.37391872518646 3.8261218837637245 a26.81122824228686,26.81122824228686 0 0,0 -0.306849592290104,0.34474876982812563 l -4.307410283248017 -3.9008448233327164" fill="#ff3a05" stroke="none" /><path d="M 115.56566222782051 114.09645910891815 l 6.875066648815912 6.226146659722956 a30.275313668768305,30.275313668768305 0 0,0 -0.35314508724861965,0.38326924520657385 l -6.766875153571569 -6.343567159730864" fill="#ff6b09" stroke="none" /><path d="M 115.32070863581623 114.36230785411682 l 6.024983413717034 5.6480851284814975 a29.258407277080686,29.258407277080686 0 0,0 -0.3476086158436982,0.3644662439911854 l -5.926868246494371 -5.750958489055191" fill="#ff5d08" stroke="none" /><path d="M 115.07121518719521 114.62390073753431 l 7.9443326640103 7.708544457857953 a32.069511241930854,32.069511241930854 0 0,0 -0.38782633475120165,0.39286602954193584 l -7.810465704203563 -7.844150981380554" fill="#ff840c" stroke="none" /><path d="M 114.55890576462653 115.13401014063108 l 8.682570878653742 9.025548887304346 a33.523879981058855,33.523879981058855 0 0,0 -0.4193105696765491,0.3964843156753245 l -8.525924474586384 -9.173667839725592" fill="#ff970e" stroke="none" /><path d="M 112.63410532772338 116.77436683061366 l 3.8339262809791235 5.090323704801895 a27.37262788397773,27.37262788397773 0 0,0 -0.3788046220106581,0.28023060342398093 l -3.745736688549901 -5.155564256965645" fill="#ff4206" stroke="none" /><path d="M 112.34349029814194 116.9893568818739 l 5.336757717654026 7.345416836514003 a30.079434533002768,30.079434533002768 0 0,0 -0.42150264651529823,0.3007309466992894 l -5.2095277432898435 -7.436192045057512" fill="#ff6809" stroke="none" /><path d="M 112.04921762599082 117.19931262002967 l 11.791339721429623 16.831212147781663 a41.550557043296834,41.550557043296834 0 0,0 -0.5893117788300061,0.4053340151109723 l -11.499871057976733 -17.031686952257733" fill="#fffe18" stroke="none" /><line stroke="#e1ed5e" stroke-width="0.3" x1="143.8653032363475" x2="146.44561519142675" y1="172.8068346515853" y2="177.08958963109032" /><path d="M 144.38136562736335 173.6633856474863 a86.0,86.0 0 0,1 -40.68145358897372,12.25698825130547" fill="none" id="id30" stroke="none" /><text fill="#e1ed5e" style="font-size:6.75px; font-family:Arial;" text-anchor="middle"><textPath startOffset="21.466115282336833" xlink:href="#id30">June</textPath></text><path d="M 109.2508944713604 118.85261126421891 l 0.7898732067179942 1.6097008305929295 a22.79305227104581,22.79305227104581 0 0,0 -0.35371271394011217,0.1698035977774813 l -0.7620478247776493 -1.6230587048699707" fill="#ff0000" stroke="none" /><path d="M 108.92500713936063 119.00905698771935 l 0.7611095201653943 1.621060243068463 a22.790844497253623,22.790844497253623 0 0,0 -0.35654865813503867,0.16367400134244567 l -0.7330928662629361 -1.6339213147449831" fill="#ff0000" stroke="none" /><path d="M 108.2653958097858 119.30500536409082 l 0.7216595185484772 1.685538260627665 a22.83352984397619,22.83352984397619 0 0,0 -0.36264923254202586,0.15158740861429043 l -0.6925388265089902 -1.6977107122619286" fill="#ff0100" stroke="none" /><path d="M 107.93186726928326 119.44442032107085 l 3.553112006616014 8.710206683870563 a30.407034889235945,30.407034889235945 0 0,0 -0.48633724568352377,0.19352362691434014 l -3.4026536848906237 -8.770077155190974" fill="#ff6d0a" stroke="none" /><path d="M 107.59598834532513 119.57807347666477 l 1.9814250309957557 5.106970032308188 a26.47788171324924,26.47788171324924 0 0,0 -0.4263314427826915,0.16120207192897873 l -1.8932233674527894 -5.140320354343797" fill="#ff3605" stroke="none" /><path d="M 107.2578585660854 119.70592522655815 l 1.2095743500700746 3.284134222430793 a24.499801094246436,24.499801094246436 0 0,0 -0.39699062289687054,0.14234671312099445 l -1.1528641665434691 -3.3044684765917474" fill="#ff1902" stroke="none" /><line stroke="#e1ed5e" stroke-width="0.3" x1="102.19456741930631" x2="102.32365962044197" y1="184.97166512339345" y2="189.96999836594603" /><path d="M 102.22038585953345 185.97133177190398 a86.0,86.0 0 0,1 -42.740103519485714,-10.115201625700543" fill="none" id="id31" stroke="none" /><text fill="#e1ed5e" style="font-size:6.75px; font-family:Arial;" text-anchor="middle"><textPath startOffset="22.20632615414155" xlink:href="#id31">July</textPath></text><path d="M 98.01472825383883 120.90594882070398 l -0.22769909401721264 2.397790436119995 a23.40857755801319,23.40857755801319 0 0,0 -0.40080768808054207,-0.041545355673307506 l 0.26893937870334805 -2.393515711990927" fill="#ff0901" stroke="none" /><path d="M 96.58105272829116 120.7198165907248 l -1.0014050715941605 6.068806497294118 a27.1508718421874,27.1508718421874 0 0,0 -0.4604671872393143,-0.0800581228029634 l 1.1057212303055248 -6.050669795970149" fill="#ff3f05" stroke="none" /><path d="M 96.22490169976321 120.6578951692458 l -0.4643248328686417 2.540854027900761 a23.582931811240478,23.582931811240478 0 0,0 -0.39870021601608396,-0.07641184531399224 l 0.5079926634564207 -2.532484984238301" fill="#ff0c01" stroke="none" /><path d="M 95.86986931433489 120.58985236759428 l -0.35725022441812504 1.7809919198415336 a22.816469086273596,22.816469086273596 0 0,0 -0.384412456321716,-0.08055736779452127 l 0.3878541421692278 -1.7745785713204711" fill="#ff0000" stroke="none" /><path d="M 95.51606077576429 120.51570834832081 l -3.596553357399573 16.455584264115547 a37.84403305405298,37.84403305405298 0 0,0 -0.6352028151078172,-0.14457009267572005 l 3.879276321900253 -16.391237437862138" fill="#ffd013" stroke="none" /><path d="M 95.16358092515715 120.4354850818985 l -1.6553135776026422 6.994252441215916 a28.187463408717324,28.187463408717324 0 0,0 -0.4711960210024363,-0.11580851782016452 l 1.775462883348289 -6.964722665081721" fill="#ff4e07" stroke="none" /><path d="M 94.81253420990036 120.34920634021253 l -2.659494869855972 10.432571906444581 a31.766218906650884,31.766218906650884 0 0,0 -0.5286951001722309,-0.13963318119047605 l 2.8386804128396923 -10.385247375950524" fill="#ff800b" stroke="none" /><path d="M 94.46302465271185 120.25689768951611 l -2.3745415793030147 8.68720606729838 a30.005886795177066,30.005886795177066 0 0,0 -0.49705298997254455,-0.14047213989436122 l 2.523725737380173 -8.645045134065498" fill="#ff6709" stroke="none" /><path d="M 94.11515582081647 120.15858648285463 l -3.0611978477660045 10.486160665664563 a31.923849951793457,31.923849951793457 0 0,0 -0.526173494310965,-0.15853175756890386 l 3.2412463165172154 -10.431913538989935" fill="#ff820b" stroke="none" /><path d="M 93.76903079525671 120.05430185196036 l -2.6686576287350228 8.589043512756984 a29.994075939385795,29.994075939385795 0 0,0 -0.49172952950723475,-0.15743626704148017 l 2.816108503333198 -8.541834399055798" fill="#ff6709" stroke="none" /><path d="M 93.42475214034765 119.94407469862007 l -7.529052767214002 22.837160515361543 a45.0462582531229,45.0462582531229 0 0,0 -0.7343189341890599,-0.24912085166349845 l 7.921041434340288 -22.70417667679992" fill="#d6ff1c" stroke="none" /><path d="M 93.08242187328487 119.8279376855182 l -5.367463327427127 15.384824925145647 a37.294247468007164,37.294247468007164 0 0,0 -0.604309662590342,-0.21668394469694677 l 5.631492550647196 -15.290153439408744" fill="#ffc912" stroke="none" /><path d="M 92.7421414339146 119.70592522655815 l -3.096563686740543 8.40752846236524 a29.959645166607984,29.959645166607984 0 0,0 -0.4823927717278768,-0.18239966955881806 l 3.240826679228703 -8.35298054269979" fill="#ff6709" stroke="none" /><path d="M 92.40401165467489 119.57807347666478 l -4.146627761118212 10.687612894708254 a32.463838413743034,32.463838413743034 0 0,0 -0.5192342435218572,-0.20661402127087194 l 4.329983080681927 -10.614652029031316" fill="#ff890c" stroke="none" /><path d="M 92.06813273071674 119.44442032107085 l -4.201573457811487 10.299864779623821 a32.12386776260493,32.12386776260493 0 0,0 -0.5102012728646735,-0.2132641734359827 l 4.378246190173623 -10.226015563167865" fill="#ff840c" stroke="none" /><path d="M 91.7346041902142 119.30500536409082 l -5.076233484796286 11.856263984036527 a33.897253275458645,33.897253275458645 0 0,0 -0.5344133212092596,-0.23427109505832303 l 5.279567480663289 -11.767128335683752" fill="#ff9c0e" stroke="none" /><path d="M 91.40352486487194 119.15986991738527 l -3.3323547107080453 7.427170063558977 a29.140481746862697,29.140481746862697 0 0,0 -0.4558848034571301,-0.2092743535295616 l 3.4597075099325947 -7.368708639695341" fill="#ff5b08" stroke="none" /><path d="M 91.07499286063937 119.00905698771935 l -2.807191720259063 5.978938341743576 a27.60515170519667,27.60515170519667 0 0,0 -0.4283890113645291,-0.20565275861232532 l 2.9096933996238343 -5.929731306631688" fill="#ff4606" stroke="none" /><path d="M 90.7491055286396 118.85261126421891 l -4.151920239220228 8.461294041607532 a30.42506968310525,30.42506968310525 0 0,0 -0.4681782084083416,-0.23475427291611806 l 4.29695235531133 -8.388571927782111" fill="#ff6d0a" stroke="none" /><path d="M 90.42595943632237 118.69057910512821 l -0.8182270517787087 1.597354568900146 a22.79472480538066,22.79472480538066 0 0,0 -0.3476837014080182,-0.1818916800301388 l 0.8456016557132225 -1.5830334699252906" fill="#ff0000" stroke="none" /><path d="M 90.10565033884886 118.52300852407294 l -4.759882263141263 8.910877698200483 a31.102485858008095,31.102485858008095 0 0,0 -0.47005807169095154,-0.25631313958276103 l 4.912563146700855 -8.827623906857957" fill="#ff760a" stroke="none" /><line stroke="#e1ed5e" stroke-width="0.3" x1="58.666819895761336" x2="56.23545636021788" y1="174.27360380694188" y2="178.64263932499728" /><path d="M 58.180547188652646 175.14741091055294 a86.0,86.0 0 0,1 -31.652253787137756,-30.449443065178592" fill="none" id="id32" stroke="none" /><text fill="#e1ed5e" style="font-size:6.75px; font-family:Arial;" text-anchor="middle"><textPath startOffset="22.20632615414155" xlink:href="#id32">August</textPath></text><path d="M 89.7882731507175 118.34994917583269 l -8.195303012385635 14.726539005338884 a37.85330657587954,37.85330657587954 0 0,0 -0.5666301713446338,-0.3217473994285569 l 8.447581950651477 -14.583288440115695" fill="#ffd013" stroke="none" /><path d="M 89.4739219176387 118.17145234162733 l -4.5130037663733145 7.790920057457973 a30.003645835826767,30.003645835826767 0 0,0 -0.4446713604949896,-0.26271967774688204 l 4.646442997896686 -7.712081807417341" fill="#ff6709" stroke="none" /><path d="M 89.1626897886671 117.98757091392108 l -4.6284356359609395 7.682193514706742 a29.968752066683273,29.968752066683273 0 0,0 -0.43957138041000277,-0.2700206440846359 l 4.7599862163032505 -7.601384403793729" fill="#ff6709" stroke="none" /><path d="M 88.8546689885994 117.79835938074946 l -9.680247789949112 15.458717994466147 a39.239494491548996,39.239494491548996 0 0,0 -0.5693803833359278,-0.36340549994543314 l 9.944909975331964 -15.28979806569691" fill="#ffe215" stroke="none" /><path d="M 88.54995079064634 117.60387380957326 l -19.631059649689455 30.181765204906565 a57.00440881133551,57.00440881133551 0 0,0 -0.817946221820288,-0.5420901545782469 l 20.147680570249705 -29.839377029237" fill="#52ff2b" stroke="none" /><path d="M 87.95078237400918 117.19931262002967 l -6.397536800588717 9.131981747439113 a32.149958195008985,32.149958195008985 0 0,0 -0.4505168622662795,-0.32143181926240966 l 6.553780990703883 -9.020505666332484" fill="#ff850c" stroke="none" /><path d="M 87.65650970185807 116.9893568818739 l -5.393598043580252 7.423650833472554 a30.176137071395047,30.176137071395047 0 0,0 -0.41760185560271096,-0.30893186932452604 l 5.520584869601527 -7.329709015408262" fill="#ff6a09" stroke="none" /><path d="M 87.36589467227662 116.77436683061367 l -8.556821409288986 11.36093593493309 a35.22287094605447,35.22287094605447 0 0,0 -0.481163322590689,-0.3689355179058982 l 8.751113460373162 -11.211961075199826" fill="#ffae10" stroke="none" /><path d="M 87.07902340077011 116.55440617244103 l -5.515361471664819 7.066302867169763 a29.9639192529661,29.9639192529661 0 0,0 -0.40386013492257866,-0.3208509163562284 l 5.636179099304755 -6.970318036808404" fill="#ff6709" stroke="none" /><path d="M 86.79598089348748 116.32954008644616 l -6.995008679962387 8.650795922292035 a32.125035573960815,32.125035573960815 0 0,0 -0.4270027166789039,-0.3513941656297862 l 7.14288152518598 -8.529106637805068" fill="#ff840c" stroke="none" /><path d="M 86.51685102203217 116.09983520530335 l -5.765602607501188 6.884538025332039 a29.97992412272327,29.97992412272327 0 0,0 -0.3927862921791177,-0.33474099951167546 l 5.883254376257362 -6.784272635597413" fill="#ff6709" stroke="none" /><path d="M 86.24171649860922 115.8653595955263 l -5.925196795195305 6.832638520679618 a30.043943067936002,30.043943067936002 0 0,0 -0.387792405590627,-0.34218171008386455 l 6.041931553692519 -6.729633668823465" fill="#ff6809" stroke="none" /><path d="M 85.97065885151581 115.62618273729859 l -6.228623532400483 6.937575221031971 a30.32339536091063,30.32339536091063 0 0,0 -0.3853965658819875,-0.3520506252688132 l 6.347119647749325 -6.829331829176582" fill="#ff6c09" stroke="none" /><path d="M 85.70375840098266 115.38237550388516 l -6.343009385491939 6.824909296371394 a30.31735772459851,30.31735772459851 0 0,0 -0.3792039747717518,-0.3585610268654033 l 6.459549194654508 -6.71471363276006" fill="#ff6c09" stroke="none" /><path d="M 85.18274418774928 114.88116024355367 l -6.5722854890839635 6.600630694961639 a30.31467992586398,30.31467992586398 0 0,0 -0.36660462693399953,-0.37136855156485854 l 6.684930741073496 -6.486521649416116" fill="#ff6c09" stroke="none" /><path d="M 84.9287848128048 114.62390073753433 l -6.6638042844857726 6.4660222271573735 a30.285242645403734,30.285242645403734 0 0,0 -0.3598080776155639,-0.3772573308861807 l 6.774118913480294 -6.350357779688692" fill="#ff6b09" stroke="none" /><path d="M 84.67929136418377 114.36230785411682 l -7.8504403790577095 7.359348982776961 a31.760549781281625,31.760549781281625 0 0,0 -0.3704695596645428,-0.4020715383891983 l 7.975956346717981 -7.223126189586418" fill="#ff7f0b" stroke="none" /><path d="M 84.43433777217949 114.09645910891817 l -7.969501550109022 7.21728064475043 a31.75184146378095,31.75184146378095 0 0,0 -0.3633940049137478,-0.40827701683399553 l 8.092554404671107 -7.07902945817557" fill="#ff7f0b" stroke="none" /><path d="M 84.19399662182784 113.82643327865904 l -6.9968979161954055 6.120594806999947 a30.29614227737153,30.29614227737153 0 0,0 -0.339976802798667,-0.39546982882324216 l 7.101217228564851 -5.999247879015175" fill="#ff6b09" stroke="none" /><path d="M 83.95833913139862 113.55231037782056 l -6.876710892458491 5.809580513919832 a30.002242967515055,30.002242967515055 0 0,0 -0.3298875196840592,-0.3973707687024828 l 6.975694412036087 -5.690348488103588" fill="#ff6709" stroke="none" /><path d="M 83.72743513129214 113.27417163493432 l -6.982329285202326 5.6957608152871195 a30.01080537532324,30.01080537532324 0 0,0 -0.32309074000801336,-0.4031053756323161 l 7.079337937265199 -5.574727606076544" fill="#ff6709" stroke="none" /><path d="M 83.50135304334701 112.99209946851258 l -10.19064731442336 8.024773419624582 a33.97097841811778,33.97097841811778 0 0,0 -0.3578166113580847,-0.4625262043449352 l 10.327270742999513 -7.848169221166394" fill="#ff9d0e" stroke="none" /><path d="M 83.06392112726016 112.41649034213515 l -13.503361151972555 9.899833048114886 a37.743579568931764,37.743579568931764 0 0,0 -0.3796288910970261,-0.5272713264526474 l 13.671769835445188 -9.6659281162111" fill="#ffce13" stroke="none" /><path d="M 82.85270091963577 112.12312394758628 l -9.38142158469135 6.632656031876872 a32.489264423230296,32.489264423230296 0 0,0 -0.3189194045321072,-0.45942718836166024 l 9.49420189638559 -6.470187581328199" fill="#ff890c" stroke="none" /><path d="M 82.6465618267979 111.8261652097733 l -4.58253868189097 3.122946530325488 a26.545489681019976,26.545489681019976 0 0,0 -0.2540743329160246,-0.37980665445127626 l 4.635616120217725 -3.043602961668391" fill="#ff3705" stroke="none" /><path d="M 82.44556493220864 111.52570212397912 l -5.290498728080466 3.4735787390290365 a27.328911916597953,27.328911916597953 0 0,0 -0.2548032401174753,-0.3954602871001644 l 5.3495068315749865 -3.3819968520074237" fill="#ff4206" stroke="none" /><path d="M 82.24976979558568 111.22182372390057 l -9.124716207492332 5.768711483281637 a31.79529888630318,31.79529888630318 0 0,0 -0.28848232048413414,-0.46512535539096506 l 9.222663167644422 -5.610789796525407" fill="#ff800b" stroke="none" /><path d="M 82.05923443525364 110.91462005526583 l -7.919348880710407 4.817892737414564 a30.269745256674597,30.269745256674597 0 0,0 -0.26697789091804136,-0.4474703017182325 l 8.00110764732668 -4.68086034181022" fill="#ff6b09" stroke="none" /><line stroke="#e1ed5e" stroke-width="0.3" x1="26.63291911575756" x2="22.317208475507996" y1="142.92168965132927" y2="145.44649492493687" /><path d="M 25.769776987707644 143.4266507060508 a86.0,86.0 0 0,1 -11.730757126820373,-40.83630448921669" fill="none" id="id33" stroke="none" /><text fill="#e1ed5e" style="font-size:6.75px; font-family:Arial;" text-anchor="middle"><textPath startOffset="21.46611528233685" xlink:href="#id33">September</textPath></text><path d="M 81.87401531095188 110.60418214915194 l -9.6491622307886 5.645016016361475 a32.17911166332347,32.17911166332347 0 0,0 -0.2755880475351658,-0.480510990263225 l 9.744902274476143 -5.478085180239943" fill="#ff850c" stroke="none" /><path d="M 81.69416730710424 110.29060199501025 l -4.649735471503067 2.6138432445025437 a26.33406191019428,26.33406191019428 0 0,0 -0.2187276967667686,-0.39705430338592673 l 4.694039577721353 -2.5334184227187944" fill="#ff3404" stroke="none" /><path d="M 81.51974371655577 109.97397251340807 l -8.235846306732034 4.444965666498276 a30.358786468579147,30.358786468579147 0 0,0 -0.24424003939060548,-0.46201011026497063 l 8.311138854347526 -4.302540541147179" fill="#ff6c0a" stroke="none" /><path d="M 81.35079622478065 109.6543875284942 l -8.19335885562733 4.241567763732346 a30.22615989626346,30.22615989626346 0 0,0 -0.23521901226192254,-0.4641094264262553 l 8.26515653767552 -4.0999041256034054" fill="#ff6a09" stroke="none" /><path d="M 81.18737489456691 109.33194174019688 l -8.733048879188404 4.332000605877259 a30.748454850673248,30.748454850673248 0 0,0 -0.23112111725276763,-0.4761779573543691 l 8.806323253055892 -4.181033692557605" fill="#ff720a" stroke="none" /><path d="M 81.02952815118164 109.00673069616217 l -8.4408278127443 4.007505114681628 a30.34385741589613,30.34385741589613 0 0,0 -0.21995739627106928,-0.4737686632392803 l 8.508559825855196 -3.8616163841635203" fill="#ff6c0a" stroke="none" /><path d="M 80.87730276802145 108.67885076344099 l -8.334772663813894 3.782742947761665 a30.153009317503177,30.153009317503177 0 0,0 -0.21043773036480362,-0.47448152803429366 l 8.398651478909978 -3.6387130832346757" fill="#ff6909" stroke="none" /><path d="M 80.73074385275274 108.34839909993369 l -11.710740850389529 5.073674750486678 a33.76258699240511,33.76258699240511 0 0,0 -0.22644891668045963,-0.5352583471040023 l 11.796340748262296 -4.8713418777165165" fill="#ff9a0e" stroke="none" /><path d="M 80.58989483394504 108.01547362559985 l -10.075504317613392 4.160716205890695 a31.900795686563782,31.900795686563782 0 0,0 -0.2052244809697127,-0.5093503314296355 l 10.145631412840492 -3.9866665066182536" fill="#ff810b" stroke="none" /><path d="M 80.45479744820244 107.68017299344265 l -9.702934288006107 3.8127112614158927 a31.42514752702772,31.42514752702772 0 0,0 -0.19349768285059882,-0.505161391138849 l 9.767126250450215 -3.645126303443886" fill="#ff7b0b" stroke="none" /><path d="M 80.0844068197444 106.66101706037122 l -8.816016090592743 2.9486258858794288 a30.29604939339655,30.29604939339655 0 0,0 -0.16115730861127878,-0.4959911956084065 l 8.86546565022027 -2.7964357902932186" fill="#ff6b09" stroke="none" /><path d="M 79.97269907076064 106.31721596034903 l -1.9157743601095822 0.6042931300064782 a23.008820944192465,23.008820944192465 0 0,0 -0.11589129771884676,-0.3787394663708028 l 1.9258924303345593 -0.5712266910836276" fill="#ff0300" stroke="none" /><path d="M 79.86692584326677 105.97154293290107 l -10.557636234536924 3.131433260201083 a32.0122457802167,32.0122457802167 0 0,0 -0.1521456113655891,-0.5296388327926589 l 10.609974482788617 -2.949236951903828" fill="#ff830c" stroke="none" /><path d="M 79.67330655649465 105.27499134158121 l -2.326626272190221 0.6037840574026148 a23.403694031780944,23.403694031780944 0 0,0 -0.09783712093764914,-0.39081066439080897 l 2.3366747074229286 -0.5636455536144139" fill="#ff0901" stroke="none" /><path d="M 79.58551787078972 104.9243191809786 l -10.919113549559208 2.633875302398267 a32.2322900522,32.2322900522 0 0,0 -0.12545948322042974,-0.5404761701338753 l 10.962833598710194 -2.4455304749158175" fill="#ff860c" stroke="none" /><path d="M 79.50377843672027 104.57218783832718 l -8.993042417731347 2.0061199594747237 a30.214083200130013,30.214083200130013 0 0,0 -0.10886560235226489,-0.5085838509645814 l 9.026242058808052 -1.8510222890939787" fill="#ff6a09" stroke="none" /><path d="M 79.1416061653843 102.43462659150553 l -4.394256696471852 0.5129049862591558 a25.42408899542236,25.42408899542236 0 0,0 -0.046995458154034754,-0.4351195760801634 l 4.402434456126938 -0.4371890882942103" fill="#ff2703" stroke="none" /><path d="M 79.07016306316243 101.71520430193888 l -4.374632998720004 0.35850204478191566 a25.389298074818203,25.389298074818203 0 0,0 -0.031946315630174395,-0.43588209530776384 l 4.380155873014513 -0.2831468129773912" fill="#ff2603" stroke="none" /><path d="M 79.0235259727143 100.99374915477108 l -1.866227358467015 0.08841151557096244 a22.86832040870305,22.86832040870305 0 0,0 -0.01524322433319987,-0.3933598882951294 l 1.867472715651416 -0.05627438026183625" fill="#ff0100" stroke="none" /><line stroke="#e1ed5e" stroke-width="0.3" x1="15.007084014347285" x2="10.007500721073583" y1="101.09737516637583" y2="101.16192664675087" /><path d="M 14.007167355692545 101.11028546245083 a86.0,86.0 0 0,1 10.666146001902534,-42.60595125391555" fill="none" id="id34" stroke="none" /><text fill="#e1ed5e" style="font-size:6.75px; font-family:Arial;" text-anchor="middle"><textPath startOffset="22.20632615414155" xlink:href="#id34">October</textPath></text><path d="M 79.00019446554 99.90962569577889 l -2.221222822768403 -0.009559206003044026 a23.2212433920682,23.2212433920682 0 0,0 0.005160637029932242,-0.39969702518978617 l 2.2207291786207555 0.04779248925330219" fill="#ff0601" stroke="none" /><path d="M 79.08570108090925 98.10471618934814 l -5.315625886481571 -0.48170965352963513 a26.33740786855723,26.33740786855723 0 0,0 0.04480228148306435,-0.45115286038751 l 5.306546479316277 0.5731380446215755" fill="#ff3404" stroke="none" /><path d="M 79.12142395522702 97.74499172005258 l -12.173298622761056 -1.3147874227500858 a33.24409512074853,33.24409512074853 0 0,0 0.06634515672503254,-0.5684047865156511 l 12.148863113032435 1.5241359475905984" fill="#ff940d" stroke="none" /><path d="M 79.16333360222342 97.38593545837743 l -9.248043593348196 -1.1602135569695002 a30.320536776508337,30.320536776508337 0 0,0 0.06942536756802904,-0.5172996278941369 l 9.226702226722333 1.3192315269282964" fill="#ff6c09" stroke="none" /><path d="M 79.21141760316559 97.0276538004421 l -13.802908993085488 -1.9735364011491545 a34.943283063829014,34.943283063829014 0 0,0 0.09026034143309367,-0.5947028753784223 l 13.766892758213093 2.2108383889196688" fill="#ffaa0f" stroke="none" /><path d="M 79.26566170972629 96.67025291283419 l -9.779430348579192 -1.5704880117923756 a30.904730715062136,30.904730715062136 0 0,0 0.08887043610006615,-0.5245183445295472 l 9.750948050958902 1.7385921446377508" fill="#ff740a" stroke="none" /><path d="M 79.32604984820605 96.31383870115002 l -9.871431085396273 -1.760074246289839 a31.027113893148943,31.027113893148943 0 0,0 0.09827361998900368,-0.5249816075857812 l 9.839671741497407 1.9297339313381927" fill="#ff750a" stroke="none" /><path d="M 79.54389044137918 95.25157060432595 l -8.717907534595867 -2.023667710979656 a29.94970070931006,29.94970070931006 0 0,0 0.12089296486451921,-0.501179387458695 l 8.681781769470533 2.173432330097748" fill="#ff6709" stroke="none" /><path d="M 79.62865764111835 94.90015583598534 l -14.356652093617415 -3.5941022984428885 a35.79969697895338,35.79969697895338 0 0,0 0.15479732398192586,-0.5964972351049204 l 14.292658437765182 3.840695959096673" fill="#ffb510" stroke="none" /><path d="M 79.71946130924805 94.55025226153421 l -7.604340756101974 -2.0434239676773296 a28.874108193731637,28.874108193731637 0 0,0 0.13311407910721254,-0.4788821670350106 l 7.5680399064284005 2.1740174381312825" fill="#ff5808" stroke="none" /><path d="M 79.81627453868168 94.20196356495316 l -22.65334615459547 -6.507466950627756 a44.5694976211509,44.5694976211509 0 0,0 0.2181657868641961,-0.7355465772838538 l 22.53797447061957 6.896442914658149" fill="#dbff1b" stroke="none" /><path d="M 79.91906864156998 93.8553929516997 l -10.228293388634324 -3.1297773258660033 a31.696424250817913,31.696424250817913 0 0,0 0.16413392006823646,-0.5203493802546303 l 10.172903984797882 3.305376872547048" fill="#ff7f0b" stroke="none" /><path d="M 80.2630227832202 92.82701384747504 l -59.210931650339425 -21.518958457574875 a84.0,84.0 0 0,0 0.5055816459934896,-1.3547074518826343 l 58.83174541584431 22.534989046486853" fill="#4dd2ff" stroke="none" /><path d="M 80.95270993114464 91.15688171328213 l -2.132728714252015 -0.9901656469467351 a23.351374018949027,23.351374018949027 0 0,0 0.17240186686545975,-0.36312229957630626 l 2.1153686535448037 1.0267303621635737" fill="#ff0801" stroke="none" /><path d="M 81.10775173730289 90.83032412892265 l -8.95377756198625 -4.345869105862455 a30.952723793757073,30.952723793757073 0 0,0 0.23677357853741562,-0.4773210862118226 l 8.877643970495422 4.499349780573239" fill="#ff740a" stroke="none" /><path d="M 81.26839172434947 90.50648371742162 l -14.339816563476255 -7.267677181329543 a37.07636372710465,37.07636372710465 0 0,0 0.2934162811509195,-0.5667868626570498 l 14.21259084916522 7.513436766246929" fill="#ffc612" stroke="none" /><path d="M 81.43458229118936 90.18545643968196 l -13.238448628898697 -6.998459866469799 a35.97447703936863,35.97447703936863 0 0,0 0.2941203020243163,-0.5449602505186898 l 13.116020227655909 7.225301100320961" fill="#ffb811" stroke="none" /><path d="M 81.6062741919709 89.86733742301443 l -8.547721817802222 -4.708735026588289 a30.758879742324503,30.758879742324503 0 0,0 0.2594619289884683,-0.4615538201304455 l 8.465402247521324 4.85517235665352" fill="#ff720a" stroke="none" /><line stroke="#e1ed5e" stroke-width="0.3" x1="26.266209847984243" x2="21.928928074336255" y1="57.711370442889674" y2="55.22380399835377" /><path d="M 25.398753493254645 57.213857153982495 a86.0,86.0 0 0,1 29.58750427330803,-30.492523968695096" fill="none" id="id35" stroke="none" /><text fill="#e1ed5e" style="font-size:6.75px; font-family:Arial;" text-anchor="middle"><textPath startOffset="21.46611528233685" xlink:href="#id35">November</textPath></text><path d="M 81.78341655067845 89.55222093294921 l -11.115813446729659 -6.375265886990962 a33.81426251144897,33.81426251144897 0 0,0 0.2939269755421801,-0.502416479030575 l 11.004426796717153 6.565661778375429" fill="#ff9b0e" stroke="none" /><path d="M 81.96595687620814 89.24020034530311 l -8.490055582857185 -5.065491775844024 a30.886366912630134,30.886366912630134 0 0,0 0.27633620910564355,-0.4542240700557572 l 8.401603575465325 5.210883619106856" fill="#ff740a" stroke="none" /><path d="M 82.15384107792192 88.93136811851018 l -11.639717239657536 -7.219242297064443 a34.696732338879414,34.696732338879414 0 0,0 0.31916434230056084,-0.5048413420368978 l 11.513725301111013 7.418531286815557" fill="#ffa70f" stroke="none" /><path d="M 82.34701348167596 88.62581576622439 l -7.518815829573197 -4.84452850947473 a29.944386393607665,29.944386393607665 0 0,0 0.2829079529825844,-0.4308882215914843 l 7.434311241232693 4.973234795043882" fill="#ff6709" stroke="none" /><path d="M 82.54541684631803 88.32363383020206 l -33.366154434775865 -22.320523694447953 a61.143567850400714,61.143567850400714 0 0,0 0.5927302140983312,-0.869758450122436 l 32.9769997550088 22.891560167840804" fill="#30ff38" stroke="none" /><path d="M 82.7489923806493 88.02491185347247 l -6.047066682339563 -4.1976769210697 a28.361216407248357,28.361216407248357 0 0,0 0.28183942624780595,-0.3986418810369078 l 5.973914636287879 4.301145302438394" fill="#ff5007" stroke="none" /><path d="M 82.95767976084542 87.72973835380427 l -11.593566291348484 -8.347225601390173 a35.285900552376646,35.285900552376646 0 0,0 0.3591388666270821,-0.48986501047096814 l 11.448164812207768 8.545553055532642" fill="#ffaf10" stroke="none" /><path d="M 83.17141714833178 87.43820079747576 l -8.62612360013872 -6.43902303100682 a31.76434047950484,31.76434047950484 0 0,0 0.33083930979909404,-0.43534575114762214 l 8.51400835011552 6.586553558035468" fill="#ff800b" stroke="none" /><path d="M 84.31358615837235 86.03803664274999 l -7.884457486790358 -7.017697456778314 a31.555223704681836,31.555223704681836 0 0,0 0.36462265255830345,-0.4026254399407206 l 7.762491193616009 7.15237568398859" fill="#ff7d0b" stroke="none" /><path d="M 84.5562425177563 85.77008943001954 l -7.275454909540671 -6.703619429256158 a30.89296505568781,30.89296505568781 0 0,0 0.3637024039519438,-0.3879723661191698 l 7.158985183618272 6.827861212253379" fill="#ff740a" stroke="none" /><path d="M 85.05521093208273 85.24692304244772 l -1.6998439079966166 -1.678038269829887 a23.388573161233897,23.388573161233897 0 0,0 0.28530072043217786,-0.28407554847037175 l 1.6707073873971254 1.707049668950368" fill="#ff0901" stroke="none" /><path d="M 85.31137513191541 84.99185889309783 l -1.620915029448194 -1.6561741962050156 a23.317386135469523,23.317386135469523 0 0,0 0.2892652287356701,-0.2782729208591713 l 1.5921665571000962 1.6838302038265005" fill="#ff0801" stroke="none" /><path d="M 85.57189188830299 84.74124197986013 l -6.422028790268626 -6.79175554760622 a30.347213338823448,30.347213338823448 0 0,0 0.3826525162340967,-0.35563381086184453 l 6.304168390239673 6.9012939445427115" fill="#ff6c0a" stroke="none" /><path d="M 86.10567301691215 84.25364557470407 l -3.4474399230631465 -3.906962241103324 a26.210489034297716,26.210489034297716 0 0,0 0.3408689093222594,-0.2955981591862519 l 3.3796772150941137 3.9657253937092563" fill="#ff3204" stroke="none" /><path d="M 86.93701828274178 83.55741782278169 l -5.843221248448214 -7.354955219017449 a30.393540377944234,30.393540377944234 0 0,0 0.4124366448172187,-0.3219133432414955 l 5.715752048471569 7.454446951482167" fill="#ff6d0a" stroke="none" /><path d="M 87.22198572758235 83.33499621200491 l -5.64863581236799 -7.366914389297096 a30.28323834445711,30.28323834445711 0 0,0 0.41640007374349514,-0.3136239026647437 l 5.520989584866105 7.463054881467695" fill="#ff6b09" stroke="none" /><path d="M 87.80319425747018 82.90503203632743 l -7.1023085216468935 -9.954551971120353 a33.22848687624083,33.22848687624083 0 0,0 0.468472392514663,-0.3281948490548458 l 6.929904989548571 10.075331662939142" fill="#ff930d" stroke="none" /><path d="M 88.09926311788651 82.69761687909137 l -5.599708581227936 -8.141370084693339 a30.881226798865484,30.881226798865484 0 0,0 0.44056526570986027,-0.2974716340482716 l 5.458738621111536 8.236553631040277" fill="#ff730a" stroke="none" /><path d="M 88.39885842347998 82.49532879139004 l -8.545326885035768 -12.893829155174954 a36.46846604725093,36.46846604725093 0 0,0 0.5262451300658662,-0.34228447105545845 l 8.322114729185614 13.039012550389948" fill="#ffbe11" stroke="none" /><path d="M 88.70189139769569 82.29822771554957 l -9.372226808853807 -14.684318465014073 a38.42032847389943,38.42032847389943 0 0,0 0.560535847808104,-0.35100749647377877 l 9.11807180867346 14.843470302810783" fill="#ffd714" stroke="none" /><path d="M 89.00827224532344 82.1063720568725 l -7.496722321350489 -12.20404680730123 a35.322695418050124,35.322695418050124 0 0,0 0.5208212583270644,-0.31378898063322597 l 7.2855389968057755 12.331282397393075" fill="#ffaf10" stroke="none" /><line stroke="#e1ed5e" stroke-width="0.3" x1="56.762969772571076" x2="54.21961505331055" y1="26.818313649435495" y2="22.513508569990535" /><path d="M 56.25429882871897 25.957352633546506 a86.0,86.0 0 0,1 42.265352541879196,-11.944610805530505" fill="none" id="id36" stroke="none" /><text fill="#e1ed5e" style="font-size:6.75px; font-family:Arial;" text-anchor="middle"><textPath startOffset="22.20632615414155" xlink:href="#id36">December</textPath></text><path d="M 89.3179101791058 81.91981866633112 l -4.566683671927018 -7.729430314323422 a29.977677469336193,29.977677469336193 0 0,0 0.44652930788138634,-0.2586585965974176 l 4.432957631580312 7.806893068310887" fill="#ff6709" stroke="none" /><path d="M 89.94658935756843 81.56283822128135 l -7.271009411399824 -13.334457487169818 a36.18799968191348,36.18799968191348 0 0,0 0.5494629978481059,-0.2935041043417995 l 7.040401367023413 13.457640318013366" fill="#ffba11" stroke="none" /><path d="M 90.26544431104013 81.39251694778311 l -6.08869459615404 -11.638464571788417 a34.13491756631954,34.13491756631954 0 0,0 0.5229786539993043,-0.267889979179568 l 5.8874554545659725 11.74154707628049" fill="#ff9f0e" stroke="none" /><path d="M 90.58718382345135 81.22770947309562 l -8.384727924036849 -16.721940132138126 a39.70633433206343,39.70633433206343 0 0,0 0.6136117320211889,-0.30109661201630267 l 8.095644925005233 16.863791904289258" fill="#ffe715" stroke="none" /><path d="M 90.91171255644093 81.06846463323043 l -5.237867481037538 -10.910842562972672 a33.10296414862436,33.10296414862436 0 0,0 0.5158100542856093,-0.24217973674481474 l 5.04927921545232 10.999387282357493" fill="#ff920d" stroke="none" /><path d="M 91.56875222667455 80.76684994638697 l -3.7483956702901784 -8.550745788196581 a30.336258545874344,30.336258545874344 0 0,0 0.4800586401269814,-0.205536056464284 l 3.600653272372889 8.614001372623651" fill="#ff6c09" stroke="none" /><path d="M 91.90106846888425 80.62456947434976 l -3.171162226407385 -7.586511031395017 a29.222616341267013,29.222616341267013 0 0,0 0.46577528867867873,-0.19000143517304383 l 3.040103068140326 7.639973352751638" fill="#ff5c08" stroke="none" /><path d="M 92.23578459929587 80.48803036053334 l -14.187506986938585 -35.65411201288432 a59.373181493482306,59.373181493482306 0 0,0 0.9528457957539617,-0.3696893654049188 l 13.571678026184948 35.89304408217979" fill="#3aff2e" stroke="none" /><path d="M 97.11714578562143 79.19881850522333 l -1.4072175596014045 -10.153752386752373 a31.250802348671545,31.250802348671545 0 0,0 0.5334739221100379,-0.06926022589396709 l 1.2322289089835088 10.176470935810478" fill="#ff790b" stroke="none" /><path d="M 98.19473922651362 79.07773832637324 l -0.16919671587398574 -1.960923327989498 a22.968209294489778,22.968209294489778 0 0,0 0.39418895059587317,-0.030596649191137016 l 0.13541757591577835 1.963545239369097" fill="#ff0300" stroke="none" /></svg>